<svg width="102" height="114" viewBox="0 0 102 114" fill="none" xmlns="http://www.w3.org/2000/svg">
<path d="M11.0889 4.4808C11.5516 3.67878 12.5771 3.40384 13.3799 3.86721L20.108 7.75013C20.9102 8.21306 21.185 9.23838 20.7219 10.0402C20.4113 10.578 19.8475 10.8786 19.2679 10.8786C18.9834 10.8786 18.695 10.8062 18.4309 10.6538L11.7028 6.77085C10.9007 6.30792 10.6258 5.2826 11.0889 4.4808ZM82.7314 10.8784C83.0159 10.8784 83.3044 10.806 83.5685 10.6535L90.2965 6.77063C91.0987 6.3077 91.3735 5.28237 90.9104 4.48058C90.4475 3.67878 89.4211 3.40384 88.6194 3.86699L81.8913 7.74991C81.0892 8.21283 80.8143 9.23816 81.2775 10.04C81.5881 10.5778 82.1518 10.8784 82.7314 10.8784ZM32.9614 49.4867C26.7556 42.2509 23.4753 34.2383 23.4753 26.3151C23.4753 19.3269 26.3444 12.7462 31.5541 7.78545C36.7316 2.8553 43.6301 0.0906967 50.9792 0.000167646C50.9928 -5.58822e-05 51.0067 -5.58822e-05 51.0204 0.000167646C58.3694 0.0904732 65.2682 2.8553 70.4454 7.78545C75.6554 12.7462 78.5244 19.3269 78.5244 26.3151C78.5244 34.2376 75.2441 42.2502 69.0384 49.4867C68.2095 50.453 67.4013 51.9672 66.7924 53.6649C68.137 54.6625 69.0102 56.261 69.0102 58.0595C69.0102 59.5319 68.4244 60.8693 67.4746 61.8537C68.4244 62.8381 69.0102 64.1755 69.0102 65.6479C69.0102 68.6644 66.5551 71.1183 63.5373 71.1183H63.3877C62.1498 76.8102 57.0277 80.9457 50.9233 80.9457C47.7237 80.9457 44.6639 79.7831 42.3076 77.6723C40.3442 75.9134 39.0123 73.626 38.4611 71.1183H38.3014C35.2837 71.1183 32.8285 68.6641 32.8285 65.6479C32.8285 64.1755 33.4144 62.8381 34.3641 61.8537C33.4144 60.8693 32.8285 59.5319 32.8285 58.0595C32.8285 56.2044 33.7579 54.5631 35.175 53.5735C34.5701 51.9129 33.7756 50.4361 32.9614 49.4867ZM65.6559 65.6479C65.6559 64.4801 64.7055 63.5301 63.5373 63.5301H38.3012C37.133 63.5301 36.1826 64.4801 36.1826 65.6479C36.1826 66.8156 37.133 67.7653 38.3012 67.7653H63.5373C64.7055 67.7653 65.6559 66.8153 65.6559 65.6479ZM65.6559 58.0597C65.6559 56.892 64.7055 55.9422 63.5373 55.9422H38.3012C37.133 55.9422 36.1826 56.8922 36.1826 58.0597C36.1826 59.2272 37.133 60.1774 38.3012 60.1774H63.5373C64.7055 60.1772 65.6559 59.2272 65.6559 58.0597ZM26.8299 26.3151C26.8299 33.4266 29.8309 40.6846 35.5084 47.3044C36.6147 48.5944 37.6335 50.4776 38.3844 52.5891H45.8891L39.1604 24.0507C38.9882 23.3209 39.3218 22.5656 39.9773 22.2013C40.632 21.8367 41.4502 21.9514 41.9802 22.4822L50.9998 31.5217L60.0195 22.4822C60.5506 21.9502 61.3707 21.8367 62.0263 22.203C62.6822 22.5699 63.0136 23.3281 62.8378 24.0586L55.9655 52.5891H63.5373C63.5633 52.5891 63.5888 52.5906 63.6145 52.5911C64.3656 50.4785 65.3851 48.5946 66.4918 47.3044C72.1691 40.6842 75.1701 33.4262 75.1701 26.3153C75.1699 13.8238 64.3296 3.527 50.9998 3.3531C37.6699 3.527 26.8299 13.8238 26.8299 26.3151ZM101.999 63.0209C101.999 62.0951 101.248 61.3445 100.322 61.3445H75.3562C74.4297 61.3445 73.679 62.0951 73.679 63.0209C73.679 75.5211 63.5051 85.691 50.9996 85.691C38.4942 85.691 28.3203 75.5211 28.3203 63.0209C28.3203 62.0951 27.5696 61.3445 26.6432 61.3445H1.67716C0.750697 61.3445 0 62.0951 0 63.0209V68.8474C0 71.4363 2.10696 73.5424 4.69695 73.5424H10.1965C12.864 73.5424 15.0658 75.013 16.0869 77.4765C17.1075 79.94 16.5909 82.5363 14.7045 84.4216L10.8159 88.3087C9.93103 89.1932 9.44353 90.3721 9.44353 91.6286C9.44353 92.885 9.93103 94.0641 10.8157 94.9487L19.059 103.189C19.9437 104.073 21.1231 104.56 22.3803 104.56C23.6375 104.56 24.8168 104.073 25.7015 103.189L29.5905 99.3014C31.477 97.416 34.0743 96.8998 36.5384 97.92C39.0029 98.9404 40.4741 101.142 40.4741 103.808V109.305C40.4741 111.894 42.5811 114 45.1711 114H56.8287C59.4187 114 61.5256 111.894 61.5256 109.305V103.808C61.5256 101.142 62.9971 98.9404 65.4616 97.92C67.9259 96.9001 70.5235 97.4162 72.4093 99.3014L76.2983 103.189C77.1829 104.073 78.3623 104.56 79.6195 104.56C80.8767 104.56 82.0561 104.073 82.941 103.189L91.1841 94.9491C92.0687 94.0646 92.5562 92.8857 92.5562 91.629C92.5562 90.3724 92.0687 89.1935 91.1841 88.3092L87.2953 84.4218C85.4089 82.5363 84.8923 79.94 85.9129 77.4768C86.9337 75.0133 89.136 73.5427 91.8033 73.5427H97.3028C99.8928 73.5427 102 71.4366 102 68.8477L101.999 63.0209ZM18.4309 44.3737L11.703 48.2566C10.9009 48.7196 10.626 49.7449 11.0892 50.5467C11.4 51.0845 11.9635 51.3852 12.5431 51.3852C12.8276 51.3852 13.1161 51.3127 13.3802 51.1603L20.108 47.2774C20.9102 46.8144 21.185 45.7891 20.7219 44.9873C20.2585 44.1853 19.2326 43.9104 18.4309 44.3737ZM6.59214 29.1901H14.361C15.2874 29.1901 16.0381 28.4395 16.0381 27.5136C16.0381 26.5878 15.2874 25.8372 14.361 25.8372H6.59214C5.66567 25.8372 4.91498 26.5878 4.91498 27.5136C4.91498 28.4395 5.66567 29.1901 6.59214 29.1901ZM85.9614 27.5134C85.9614 28.4393 86.7121 29.1899 87.6386 29.1899H95.4072C96.3337 29.1899 97.0844 28.4393 97.0844 27.5134C97.0844 26.5876 96.3337 25.8369 95.4072 25.8369H87.6386C86.7123 25.8369 85.9614 26.5876 85.9614 27.5134ZM81.8913 47.2771L88.6194 51.1601C88.8837 51.3125 89.172 51.3849 89.4564 51.3849C90.036 51.3849 90.5998 51.0843 90.9104 50.5465C91.3735 49.7447 91.0987 48.7194 90.2965 48.2564L83.5685 44.3735C82.7659 43.9104 81.7403 44.1851 81.2775 44.9871C80.8143 45.7891 81.0892 46.8142 81.8913 47.2771Z" fill="url(#paint0_linear_346_1480)"/>
<defs>
<linearGradient id="paint0_linear_346_1480" x1="51" y1="0" x2="51" y2="114" gradientUnits="userSpaceOnUse">
<stop offset="0.28125" stop-color="#0FA8DC"/>
<stop offset="1" stop-color="#142978"/>
</linearGradient>
</defs>
</svg>
