<svg width="102" height="107" viewBox="0 0 102 107" fill="none" xmlns="http://www.w3.org/2000/svg">
<path d="M99.6134 44.824C93.7775 48.9949 87.148 51.7958 80.1796 53.0344C71.0729 54.5965 62.8586 56.4252 56.1014 63.1498C50.7102 68.579 47.3954 76.0274 47.3954 97.0392C47.8673 100.108 49.213 102.956 51.2566 105.212C57.7771 91.3651 67.6478 79.5438 79.8882 70.9221C80.7332 70.3119 81.8911 70.5336 82.4745 71.4174C83.0579 72.3011 82.8459 73.5122 82.001 74.1224C70.3797 82.3493 60.9726 93.5591 54.6808 106.678C73.2039 107.821 89.3956 100.049 97.5371 81.609C102.659 70.0651 103.401 56.918 99.6134 44.824Z" fill="url(#paint0_linear_346_1575)"/>
<path d="M18.9641 51.7199C12.9154 50.6985 7.14595 48.3341 2.04384 44.7858C-6.06115 68.8265 10.4402 102.03 42.6599 95.858C35.8469 85.561 27.2321 76.7058 17.2703 69.7599C16.6421 69.1101 16.5504 68.0823 17.0529 67.3222C17.5554 66.562 18.507 66.2887 19.3102 66.6739C28.7576 73.2859 37.0601 81.5315 43.862 91.0575C43.8681 84.3314 44.8758 77.6474 46.849 71.2458C45.3008 67.1243 42.9287 63.3963 39.8914 60.3113C34.0449 54.6154 27.2331 53.0914 18.9641 51.7199Z" fill="url(#paint1_linear_346_1575)"/>
<path d="M51.038 50.6341L74.1145 26.2124C76.8473 23.3231 78.3734 19.4183 78.3582 15.3541C78.3344 9.23888 74.818 3.73082 69.4268 1.36407C64.0357 -1.00268 57.814 0.230304 53.6243 4.49573L52.3312 5.84826C51.9892 6.20889 51.5237 6.41175 51.038 6.41175C50.5524 6.41175 50.0869 6.20889 49.7449 5.84826L48.4699 4.51478C45.7949 1.63885 42.1248 0.0114152 38.2886 0C25.3935 0 18.9277 16.5923 28.0344 26.1933L51.038 50.6341ZM38.2886 3.80994C39.0227 3.82436 39.7542 3.90724 40.4742 4.05759C41.4801 4.27853 42.1243 5.31052 41.9131 6.3626C41.7018 7.41469 40.7152 8.08847 39.7092 7.86753C39.2459 7.73021 38.7695 7.64715 38.2886 7.61988C37.2827 7.61988 36.4673 6.767 36.4673 5.71491C36.4673 5.20968 36.6591 4.72515 37.0007 4.36789C37.3423 4.01064 37.8055 3.80994 38.2886 3.80994ZM30.5661 7.18174C31.0248 6.69853 31.6952 6.508 32.3247 6.68192C32.9542 6.85584 33.4471 7.36779 33.6178 8.02492C33.7886 8.68205 33.6111 9.38453 33.1524 9.86775C30.5774 12.6192 30.2845 16.9156 32.4603 20.0212C32.9099 20.5609 33.0324 21.3186 32.7774 21.9828C32.5223 22.6471 31.9327 23.1057 31.2511 23.1701C30.5695 23.2345 29.9109 22.8938 29.5461 22.2882C26.3029 17.671 26.7346 11.2763 30.5661 7.18174Z" fill="url(#paint2_linear_346_1575)"/>
<defs>
<linearGradient id="paint0_linear_346_1575" x1="74.6977" y1="44.824" x2="74.6977" y2="106.788" gradientUnits="userSpaceOnUse">
<stop offset="0.197917" stop-color="#0EC115"/>
<stop offset="1" stop-color="#142877"/>
</linearGradient>
<linearGradient id="paint1_linear_346_1575" x1="23.4245" y1="44.7858" x2="23.4245" y2="96.6089" gradientUnits="userSpaceOnUse">
<stop offset="0.197917" stop-color="#0EC115"/>
<stop offset="1" stop-color="#142877"/>
</linearGradient>
<linearGradient id="paint2_linear_346_1575" x1="51.0671" y1="0" x2="51.0671" y2="50.6341" gradientUnits="userSpaceOnUse">
<stop offset="0.197917" stop-color="#C10E0E"/>
<stop offset="1" stop-color="#142877"/>
</linearGradient>
</defs>
</svg>
