<svg width="1500" height="1500" viewBox="0 0 1500 1500" fill="none" xmlns="http://www.w3.org/2000/svg">
<rect x="25" y="25" width="1450" height="1450" rx="725" stroke="#101526" stroke-width="50"/>
<rect x="75" y="75" width="1350" height="1350" rx="675" fill="#101526"/>
<rect x="75" y="75" width="1350" height="1350" rx="675" stroke="white" stroke-width="50"/>
<path d="M930.305 810.423L974.605 467.853C975.155 463.623 978.755 460.453 983.025 460.453H1110.48C1115.59 460.453 1119.55 464.943 1118.91 470.013L1016.72 1276.12C1016.18 1280.36 1012.57 1283.54 1008.29 1283.54H868.515C863.315 1283.54 859.335 1278.92 860.115 1273.78L930.295 810.423H930.305Z" fill="white"/>
<path d="M381.017 884.683L484.827 218.803C485.037 217.463 486.397 216.453 488.007 216.453H660.057C661.777 216.453 663.197 217.603 663.257 219.053L675.267 490.183C675.397 493.183 680.367 493.793 681.507 490.943L790.097 218.293C790.537 217.193 791.757 216.453 793.137 216.453H940.387C942.317 216.453 945.807 217.873 945.567 219.493L823.277 1037.17C823.077 1038.52 819.717 1039.53 818.097 1039.53H666.777C664.847 1039.53 663.357 1038.11 663.597 1036.5L720.867 646.733C721.367 643.353 715.507 642.453 714.577 645.773L686.777 744.193C686.437 745.413 685.147 746.273 683.657 746.273H590.517C588.697 746.273 587.247 745.003 587.317 743.473L598.467 643.923C598.607 640.723 592.237 640.313 591.717 643.483L546.647 884.703" fill="white"/>
</svg>
