<svg width="3375" height="3918" viewBox="0 0 3375 3918" fill="none" xmlns="http://www.w3.org/2000/svg">
<path d="M1668.23 914.08C1920.65 914.08 2125.27 709.456 2125.27 457.04C2125.27 204.624 1920.65 0 1668.23 0C1415.82 0 1211.19 204.624 1211.19 457.04C1211.19 709.456 1415.82 914.08 1668.23 914.08Z" fill="#5C5D60"/>
<path d="M1668.23 890.62C1907.69 890.62 2101.8 696.505 2101.8 457.05C2101.8 217.596 1907.69 23.4805 1668.23 23.4805C1428.78 23.4805 1234.66 217.596 1234.66 457.05C1234.66 696.505 1428.78 890.62 1668.23 890.62Z" fill="white"/>
<path d="M1668.23 873.391C1898.18 873.391 2084.58 686.985 2084.58 457.041C2084.58 227.098 1898.18 40.6914 1668.23 40.6914C1438.29 40.6914 1251.88 227.098 1251.88 457.041C1251.88 686.985 1438.29 873.391 1668.23 873.391Z" fill="#273C8F"/>
<path d="M1668.23 457.04C1333.27 574.43 1460.29 868.53 1676.17 873.31C1892.05 878.09 2086.14 699.65 2084.57 444.52C2083 189.39 1865.44 40.69 1668.22 40.69C1863.87 39.12 1984.39 327.12 1668.22 457.04H1668.23Z" fill="#F26125"/>
<path d="M1685.67 240.258C1703.4 240.258 1717.76 225.891 1717.76 208.168C1717.76 190.445 1703.4 176.078 1685.67 176.078C1667.95 176.078 1653.58 190.445 1653.58 208.168C1653.58 225.891 1667.95 240.258 1685.67 240.258Z" fill="#F26125"/>
<path d="M1685.67 703.129C1703.4 703.129 1717.76 688.762 1717.76 671.039C1717.76 653.316 1703.4 638.949 1685.67 638.949C1667.95 638.949 1653.58 653.316 1653.58 671.039C1653.58 688.762 1667.95 703.129 1685.67 703.129Z" fill="#263E8F"/>
<path d="M1310.66 770.093C1334.84 784.183 1498.41 783.394 1572.76 741.134C1633.02 709.044 1680.97 747.523 1697.69 768.583C1715.19 790.433 1754.32 920.343 1772.72 946.563C1791.11 972.783 1831.86 994.324 1858.02 1035.39C1884.18 1076.46 1886.24 1076.64 1888.97 1089.19C1891.71 1101.74 1897.54 1118.14 1876.67 1133.24C1855.8 1148.34 1828.67 1163.47 1801.54 1136.6C1793.71 1151.21 1766.58 1170.51 1744.67 1171.03C1722.76 1171.55 1717.71 1167.68 1717.71 1167.68C1714.32 1178.38 1688.32 1206.51 1663.01 1204.68C1637.71 1202.85 1625.97 1189.77 1625.97 1189.77C1614.49 1209.34 1563.12 1213.29 1541.97 1187.99C1520.82 1162.69 1305.88 1062.77 1295.45 1051.03C1276.67 1050.51 1245.81 1058.95 1245.81 1058.95L1310.65 770.083L1310.66 770.093Z" fill="#EAC6A7" stroke="#414042" stroke-width="6" stroke-miterlimit="10"/>
<path d="M1692.49 1007.22C1703.45 1016.61 1712.06 1039.86 1721.45 1047.41C1730.84 1054.96 1757.45 1068.85 1767.62 1086.95C1777.79 1105.05 1782.69 1119.93 1800.88 1135.25" fill="#EAC6A7"/>
<path d="M1692.49 1007.22C1703.45 1016.61 1712.06 1039.86 1721.45 1047.41C1730.84 1054.96 1757.45 1068.85 1767.62 1086.95C1777.79 1105.05 1782.69 1119.93 1800.88 1135.25" stroke="#414042" stroke-width="6" stroke-miterlimit="10"/>
<path d="M1632.62 1081.52C1648.66 1112.09 1712.58 1159.56 1721.71 1168.69Z" fill="#EAC6A7"/>
<path d="M1632.62 1081.52C1648.66 1112.09 1712.58 1159.56 1721.71 1168.69" stroke="#414042" stroke-width="6" stroke-miterlimit="10"/>
<path d="M1585.28 1137.91C1597.8 1154.34 1607.55 1176.9 1625.98 1188.78Z" fill="#EAC6A7"/>
<path d="M1585.28 1137.91C1597.8 1154.34 1607.55 1176.9 1625.98 1188.78" stroke="#414042" stroke-width="6" stroke-miterlimit="10"/>
<path d="M1453.8 1016.61C1475.71 1026.78 1498.41 1049.99 1509.37 1061.47Z" fill="#EAC6A7"/>
<path d="M1453.8 1016.61C1475.71 1026.78 1498.41 1049.99 1509.37 1061.47" stroke="#414042" stroke-width="6" stroke-miterlimit="10"/>
<path d="M1602.49 938.644C1593.1 929.744 1581.73 921.064 1573.33 918.754Z" fill="#EAC6A7"/>
<path d="M1602.49 938.644C1593.1 929.744 1581.73 921.064 1573.33 918.754" stroke="#414042" stroke-width="6" stroke-miterlimit="10"/>
<path d="M1345.02 928.694C1364.59 921.134 1395.38 921.204 1414.81 934.474C1434.24 947.744 1476.5 975.915 1476.5 975.915" fill="#EAC6A7"/>
<path d="M1345.02 928.694C1364.59 921.134 1395.38 921.204 1414.81 934.474C1434.24 947.744 1476.5 975.915 1476.5 975.915" stroke="#414042" stroke-width="6" stroke-miterlimit="10"/>
<path d="M1649.45 1181.74C1656.49 1173.13 1676.32 1165.15 1676.32 1165.15Z" fill="#EAC6A7"/>
<path d="M1649.45 1181.74C1656.49 1173.13 1676.32 1165.15 1676.32 1165.15" stroke="#414042" stroke-width="6" stroke-miterlimit="10"/>
<path d="M1737.1 1142.61C1741.01 1135.57 1757.45 1130.91 1757.45 1130.91Z" fill="#EAC6A7"/>
<path d="M1737.1 1142.61C1741.01 1135.57 1757.45 1130.91 1757.45 1130.91" stroke="#414042" stroke-width="6" stroke-miterlimit="10"/>
<path d="M1817.71 1092.93C1831.01 1087.82 1842.75 1076.59 1842.75 1076.59Z" fill="#EAC6A7"/>
<path d="M1817.71 1092.93C1831.01 1087.82 1842.75 1076.59 1842.75 1076.59" stroke="#414042" stroke-width="6" stroke-miterlimit="10"/>
<path d="M1812.36 1070.23C1821.62 1065.13 1834.93 1049.2 1834.93 1049.2Z" fill="#EAC6A7"/>
<path d="M1812.36 1070.23C1821.62 1065.13 1834.93 1049.2 1834.93 1049.2" stroke="#414042" stroke-width="6" stroke-miterlimit="10"/>
<path d="M1800.88 1047.42C1808.31 1045.58 1812.35 1036.95 1812.35 1036.95Z" fill="#EAC6A7"/>
<path d="M1800.88 1047.42C1808.31 1045.58 1812.35 1036.95 1812.35 1036.95" stroke="#414042" stroke-width="6" stroke-miterlimit="10"/>
<path d="M501.365 352.172C511.535 366.262 516.234 361.562 527.194 365.472C538.154 369.382 553.804 388.172 576.494 389.732C599.194 391.302 715.014 485.992 718.924 491.472C722.834 496.952 810.494 507.902 845.704 526.692C880.914 545.482 949.794 590.862 963.094 600.262C976.394 609.652 1031.18 616.692 1061.7 631.562C1092.22 646.432 1086.74 655.822 1111 655.042C1135.26 654.262 1237 709.822 1252.65 719.212C1268.3 728.602 1291.78 725.472 1283.95 777.122C1276.12 828.772 1260.47 880.122 1247.17 905.712C1233.87 931.292 1191.6 1103.3 1193.95 1126.47C1189.25 1152.77 1179.08 1169.21 1172.82 1185.64C1166.56 1202.07 1171.25 1224.77 1167.34 1240.42C1159.51 1258.42 1067.95 1180.63 1024.12 1165.13C980.295 1149.63 833.954 1090.38 797.164 1076.57C760.384 1062.76 689.164 1007.19 658.644 993.112C628.124 979.022 516.214 939.892 501.344 941.462C484.914 930.502 482.564 917.982 482.564 917.982L501.344 352.152L501.365 352.172Z" fill="#1C75BC" stroke="#414042" stroke-width="6" stroke-miterlimit="10"/>
<path d="M1068.75 1238.09C1055.45 1228.7 1047.62 1210.7 1034.32 1209.13C1021.02 1207.56 966.235 1172.88 954.495 1158.13C942.755 1143.39 856.724 1102.96 889.534 1112.93C922.344 1122.9 1021.4 1161.54 1041.11 1172.81C1060.82 1184.08 1104.96 1212.71 1115.04 1219.11C1099.26 1220.87 1096.92 1218.86 1090.66 1223.39C1084.4 1227.92 1068.75 1238.09 1068.75 1238.09Z" fill="#17639F" stroke="#414042" stroke-width="6" stroke-miterlimit="10"/>
<path d="M1295.71 916.434C1283.62 964.354 1247.19 1086.87 1193.97 1126.48C1200.68 1079.46 1237.31 932.054 1240.65 922.604C1243.99 913.154 1256.21 886.994 1260.99 872.214C1265.77 857.434 1290.27 766.594 1285.53 751.824C1302.76 747.394 1309.8 756.784 1310.58 791.214C1311.36 825.644 1306.08 875.324 1295.71 916.434Z" fill="#F1F2F2" stroke="#414042" stroke-width="6" stroke-miterlimit="10"/>
<path d="M787.024 549.783C765.894 534.523 726.044 494.363 726.044 494.363Z" fill="#1C75BC"/>
<path d="M787.024 549.783C765.894 534.523 726.044 494.363 726.044 494.363" stroke="#414042" stroke-width="6" stroke-miterlimit="10"/>
<path d="M1020.62 649.562C984.235 622.562 963.104 600.262 963.104 600.262Z" fill="#1C75BC"/>
<path d="M1020.62 649.562C984.235 622.562 963.104 600.262 963.104 600.262" stroke="#414042" stroke-width="6" stroke-miterlimit="10"/>
<path d="M825.755 1029.91C836.865 1005.98 883.275 1014.42 870.365 1047.4C857.455 1080.38 810.495 1062.78 825.755 1029.91Z" fill="#414042"/>
<path d="M898.544 1060.52C909.654 1036.59 956.064 1045.03 943.154 1078.01C930.244 1110.99 883.284 1093.39 898.544 1060.52Z" fill="#414042"/>
<path d="M966.124 1090.21C977.234 1066.28 1023.64 1074.72 1010.73 1107.7C997.824 1140.68 950.864 1123.08 966.124 1090.21Z" fill="#414042"/>
<path d="M860.975 992.352C857.455 1004.09 853.885 1016.61 853.885 1016.61" stroke="#414042" stroke-width="6" stroke-miterlimit="10"/>
<path d="M934.935 1016.61C930.235 1034.61 927.725 1047.41 927.725 1047.41" stroke="#414042" stroke-width="6" stroke-miterlimit="10"/>
<path d="M1005.36 1046.82C1003.01 1066.3 998.584 1081.52 998.584 1081.52" stroke="#414042" stroke-width="6" stroke-miterlimit="10"/>
<path d="M2795.47 1073.98C2795.47 1074.28 2795.22 1074.53 2794.92 1074.54C2724.42 1076.94 2605.19 1090.99 2570.06 1102.7C2534.84 1114.44 2419.8 1163.74 2382.23 1168.44C2344.66 1173.14 2301.07 1184.87 2282.95 1191.92C2264.83 1198.96 2192.05 1206.01 2173.27 1206.01C2155.74 1206.01 2074.13 1222.29 2064.02 1224.19C2063.56 1224.28 2068.2 1221.8 2068.4 1221.37C2107.53 1138.03 2107.46 1092.93 2091.09 999.404C2074.83 906.484 2038.97 847.704 2013.44 816.904C2013.12 816.524 2013.4 815.954 2013.9 815.974C2077.27 818.004 2152.04 797.434 2161.44 788.104C2170.91 778.714 2228.27 790.454 2282.94 762.274C2337.61 734.104 2441.4 691.844 2489.28 687.144C2537.17 682.444 2572.39 684.794 2616.99 658.974C2661.6 633.144 2678.03 651.934 2701.51 640.194C2724.83 628.534 2775.94 614.554 2806.54 609.764C2806.88 609.714 2807.18 609.964 2807.2 610.304C2809.29 646.944 2795.99 1057.08 2795.44 1074L2795.47 1073.98Z" fill="#F16125" stroke="#515254" stroke-width="6" stroke-miterlimit="10"/>
<path d="M2036.19 1177.52C2016.23 1142.3 2018.1 1127.04 2018.1 1127.04C2036.88 1124.69 2039.75 1104.74 2039.75 1104.74C2057.46 1107.39 2064.23 1090.96 2064.23 1090.96C2071.27 1103.87 2103.4 1081.26 2103.4 1081.26C2103.38 1078.62 2100.17 1175.18 2062.58 1222.39C2038.17 1188.78 2036.19 1177.52 2036.19 1177.52Z" fill="#D3551F" stroke="#515254" stroke-width="6" stroke-miterlimit="10"/>
<path d="M1860.75 806.096C1899.88 823.316 1938.23 835.056 1946.84 834.266C1959.36 835.832 1970.97 836.092 1981.67 835.046C1996.54 835.026 2019.29 826.916 2019.29 826.916C2074.02 902.346 2109.84 1022.39 2103.4 1079.27C2078.67 1091.01 2072.37 1092.95 2064.23 1090.97C2061.49 1100.75 2054.57 1096.88 2042.75 1098.75C2022.29 1104.23 2044.34 1105.01 2022.29 1104.23C2000.24 1103.45 1996.93 1105.84 1996.93 1105.84C1982.06 1116.8 1912.02 1126.19 1888.93 1121.88C1901.84 1097.23 1871.71 1049.88 1858.02 1035.4C1844.32 1020.92 1772.72 946.566 1772.72 946.566C1771.55 936.786 1748.46 910.956 1729.29 905.476C1710.12 899.996 1676.86 883.176 1676.86 871.436C1676.86 871.436 1636.16 874.566 1625.21 871.826C1624.04 889.436 1548.91 938.346 1530.51 937.956C1515.25 938.346 1518.38 936.586 1535.01 929.546C1551.64 922.506 1572.58 897.456 1570.62 890.216C1568.66 882.976 1565.92 863.016 1539.9 871.046C1542.64 853.636 1567.1 806.286 1596.44 797.286C1625.79 788.286 1636.16 792.006 1663.55 781.826C1676.85 777.656 1690.16 773.736 1701.64 766.176C1713.12 758.606 1731.12 752.086 1749.12 751.826C1767.12 751.566 1815.38 784.436 1860.77 806.086L1860.75 806.096Z" fill="#A26A48" stroke="#515254" stroke-width="6" stroke-miterlimit="10"/>
<path d="M1858.8 975.917C1897.93 975.917 1921.02 918.007 1921.41 908.617" stroke="#515254" stroke-width="6" stroke-miterlimit="10"/>
<path d="M1764.88 929.457C1775.84 935.227 1800.88 934.447 1800.88 934.447" stroke="#515254" stroke-width="6" stroke-miterlimit="10"/>
<path d="M1664.58 872.228C1680.37 862.448 1675.67 851.098 1675.67 851.098" stroke="#515254" stroke-width="6" stroke-miterlimit="10"/>
<path d="M1625.19 871.838C1639.67 860.488 1640.06 851.098 1640.06 851.098" stroke="#515254" stroke-width="6" stroke-miterlimit="10"/>
<path d="M1504.41 903.138C1526.32 880.708 1545.63 862.968 1559.71 875.488C1573.8 888.008 1566.49 906.268 1547.19 917.748C1527.89 929.228 1504.93 942.788 1486.67 939.658C1484.06 920.358 1504.41 903.138 1504.41 903.138Z" fill="#F26522" stroke="#515254" stroke-width="6" stroke-miterlimit="10"/>
<path d="M1520.61 1144.17C1521.1 1168.69 1520.61 1165.56 1520.61 1165.56C1528.4 1161.91 1541.97 1179.65 1535.71 1185.91C1529.45 1192.17 1482.49 1215.13 1462.67 1185.91C1459.02 1166.08 1465.28 1137.91 1479.37 1125.39C1493.46 1112.87 1511.79 1107.13 1520.62 1144.17H1520.61Z" fill="#A26A48" stroke="#515254" stroke-width="6" stroke-miterlimit="10"/>
<path d="M1405.8 1110.79C1419.37 1093.05 1439.71 1064.88 1457.97 1079.49C1476.23 1094.1 1473.1 1120.24 1467.88 1133.26C1462.66 1146.28 1466.7 1166.1 1438.86 1171.32C1411.54 1172.36 1393.28 1144.71 1393.28 1144.71C1387.54 1130.62 1405.8 1110.8 1405.8 1110.8V1110.79Z" fill="#A26A48" stroke="#515254" stroke-width="6" stroke-miterlimit="10"/>
<path d="M1349.97 1068C1370.69 1050.08 1393.27 1042.43 1401.1 1050.78C1408.93 1059.13 1412.06 1085.21 1403.71 1097.74C1395.36 1110.26 1385.97 1127.48 1367.19 1126.44C1348.41 1125.4 1311.36 1101.4 1349.97 1068.01V1068Z" fill="#A26A48" stroke="#515254" stroke-width="6" stroke-miterlimit="10"/>
<path d="M1295.19 1053.91C1268.32 1061.47 1245.11 1074.28 1250.99 1092.93C1256.32 1109.86 1282.94 1095.95 1305.5 1087.39C1318.44 1082.48 1333.08 1075.42 1333.08 1075.42L1295.2 1053.92L1295.19 1053.91Z" fill="#A26A48" stroke="#515254" stroke-width="6" stroke-miterlimit="10"/>
<path d="M1478.06 1164.53C1485.89 1165.31 1493.32 1165.06 1493.71 1158.14C1494.1 1151.22 1493.71 1146.53 1493.71 1146.53C1488.62 1146.14 1485.97 1146.53 1485.97 1146.53V1135.18C1482.36 1132.44 1478.5 1133.51 1474.54 1135.18C1470.57 1136.85 1465.93 1162.4 1467.89 1164.83C1471.8 1165.7 1478.06 1164.52 1478.06 1164.52V1164.53Z" fill="#F26522" stroke="#515254" stroke-width="6" stroke-miterlimit="10"/>
<path d="M1417.41 1126.49C1422.42 1116.32 1435.02 1110.41 1441.28 1123.39C1447.54 1136.36 1445.19 1144.19 1436.58 1146.14C1427.97 1148.1 1407.62 1146.36 1417.41 1126.49Z" fill="#F26522" stroke="#515254" stroke-width="6" stroke-miterlimit="10"/>
<path d="M1356.36 1086.94C1358.61 1074.2 1370.45 1073.74 1375.14 1082.74C1379.84 1091.74 1382.97 1089.39 1387.27 1090.96C1391.57 1092.53 1384.53 1107.79 1377.88 1108.96C1371.23 1110.13 1352.45 1109.15 1356.36 1086.95V1086.94Z" fill="#F26522" stroke="#515254" stroke-width="6" stroke-miterlimit="10"/>
<path d="M1980.75 848.356C1994.74 833.366 2022.5 860.226 2006.32 875.486C1990.13 890.746 1964.32 865.966 1980.75 848.356Z" fill="#F26522" stroke="#414042" stroke-width="6" stroke-miterlimit="10"/>
<path d="M1993.41 909.006C1991.69 887.546 2023.15 880.046 2025.11 904.306C2027.07 928.566 1994.98 928.566 1993.41 909.006Z" fill="#F26522" stroke="#414042" stroke-width="6" stroke-miterlimit="10"/>
<path d="M2009.26 945.006C2008.51 958.406 2037.23 958.306 2035.27 940.706C2033.31 923.096 2010.24 927.406 2009.26 945.006Z" fill="#F26522" stroke="#414042" stroke-width="6" stroke-miterlimit="10"/>
<path d="M2018.32 981.656C2019.25 998.916 2053.28 994.696 2050.15 976.956C2047.02 959.216 2017.28 962.346 2018.32 981.656Z" fill="#F26522" stroke="#414042" stroke-width="6" stroke-miterlimit="10"/>
<path d="M2029.54 1012.97C2025.05 1028.24 2058.24 1029.14 2057.45 1012.97C2056.66 996.795 2034.75 995.225 2029.54 1012.97Z" fill="#F26522" stroke="#414042" stroke-width="6" stroke-miterlimit="10"/>
<path d="M2031.62 1050.53C2030.57 1064.59 2063.71 1065.66 2064.75 1050.53C2065.79 1035.4 2033.18 1029.66 2031.62 1050.53Z" fill="#F26522" stroke="#414042" stroke-width="6" stroke-miterlimit="10"/>
<path d="M2031.34 1079.66C2021.34 1091.51 2044.93 1109.4 2054.58 1096.88C2064.23 1084.36 2049.84 1057.75 2031.34 1079.66Z" fill="#F26522" stroke="#414042" stroke-width="6" stroke-miterlimit="10"/>
<path d="M2013.36 1102.44C2004.95 1104.16 1984.93 1117.68 2000.32 1125.66C2015.7 1133.64 2022.54 1131.63 2029.12 1125.66C2035.7 1119.69 2043.89 1096.18 2013.36 1102.44Z" fill="#F26522" stroke="#414042" stroke-width="6" stroke-miterlimit="10"/>
<path d="M1960.93 838.966C1970.78 847.506 1996.59 835.876 1985.89 828.186C1972.93 818.886 1969.54 820.576 1960.93 824.756C1949.96 830.076 1957.02 835.586 1960.93 838.976V838.966Z" fill="#F26522" stroke="#414042" stroke-width="6" stroke-miterlimit="10"/>
<path d="M683.334 1411.11C681.854 1411.11 680.574 1412.14 680.244 1413.58L591.544 1805.84L497.184 2230.34C496.744 2232.32 498.254 2234.19 500.274 2234.19H624.824C626.314 2234.19 627.594 2233.15 627.914 2231.7L677.154 2007.41C677.464 2005.98 678.714 2004.95 680.174 2004.92L712.754 2004.2C714.534 2004.16 715.994 2005.59 715.994 2007.37V2108.14C715.994 2109.89 717.414 2111.31 719.164 2111.31H843.594C845.334 2111.31 846.744 2109.91 846.764 2108.17L852.994 1414.3C853.014 1412.54 851.584 1411.1 849.824 1411.1H683.324L683.334 1411.11ZM687.964 1945.41L708.254 1875.83C709.244 1872.44 714.194 1872.97 714.454 1876.49L719.524 1946.07C719.654 1947.9 718.204 1949.47 716.364 1949.47H691.004C688.894 1949.47 687.374 1947.44 687.964 1945.42V1945.41Z" fill="#0E1325"/>
<path d="M1494.16 2283.38C1492.68 2283.38 1491.4 2284.41 1491.07 2285.85L1402.37 2678.11L1308.01 3102.61C1307.57 3104.59 1309.08 3106.46 1311.1 3106.46H1435.65C1437.14 3106.46 1438.42 3105.42 1438.74 3103.97L1487.98 2879.68C1488.29 2878.25 1489.54 2877.22 1491 2877.19L1523.58 2876.47C1525.36 2876.43 1526.82 2877.86 1526.82 2879.64V2980.41C1526.82 2982.16 1528.24 2983.58 1529.99 2983.58H1654.42C1656.16 2983.58 1657.57 2982.18 1657.59 2980.44L1663.82 2286.57C1663.84 2284.81 1662.41 2283.37 1660.65 2283.37H1494.15L1494.16 2283.38ZM1498.78 2817.68L1519.07 2748.1C1520.06 2744.71 1525.01 2745.24 1525.27 2748.76L1530.34 2818.34C1530.47 2820.17 1529.02 2821.74 1527.18 2821.74H1501.82C1499.71 2821.74 1498.19 2819.71 1498.78 2817.69V2817.68Z" fill="#0E1325"/>
<path d="M874.394 2019.27L863.274 2092.23C862.514 2097.22 866.344 2101.73 871.344 2101.73H1137.12C1179.86 2101.73 1194.32 2078.89 1200.6 2020.54C1206.89 1962.18 1238.69 1759.25 1248.37 1683.08C1251.51 1658.34 1239.88 1646.29 1227 1645.66C1210.73 1644.86 1115.23 1645.71 1098.15 1646.06C1087.15 1646.29 1082.12 1647.56 1082.75 1636.14C1083.83 1616.52 1090.21 1579.63 1091.29 1563.51C1091.67 1557.8 1095.01 1554.92 1101.29 1554.86C1131.22 1554.58 1223.18 1553.89 1241.79 1554.95C1264.08 1556.22 1265.34 1529.58 1267.86 1501.67C1269.53 1483.18 1273.95 1449.08 1276.75 1428.19C1278.17 1417.55 1273.39 1410.37 1263.46 1410.42C1214.29 1410.69 1063.51 1410.36 1010.16 1410.33C951.714 1410.3 947.934 1443.95 942.284 1477.57C937.634 1505.2 924.634 1613.31 917.144 1680.55C911.174 1734.15 932.234 1753.5 982.514 1756.02C1006.66 1756.02 1030.76 1754.78 1046.2 1755.48C1058.35 1756.02 1062.12 1760.06 1059.54 1775.84C1053.32 1813.79 1039.27 1895.34 1035.31 1924.14C1031.12 1954.59 1026.2 1953.95 987.544 1953.32C960.944 1952.43 920.604 1951.53 899.124 1951.08C896.274 1951.02 893.754 1950.97 891.654 1950.93C887.544 1950.85 884.014 1953.86 883.414 1957.96L874.414 2019.29L874.394 2019.27Z" fill="#0E1325"/>
<path d="M1245.87 2019.27L1234.75 2092.23C1233.99 2097.22 1237.82 2101.73 1242.82 2101.73H1508.6C1551.34 2101.73 1565.8 2078.89 1572.08 2020.54C1578.37 1962.18 1610.17 1759.25 1619.85 1683.08C1622.99 1658.34 1611.36 1646.29 1598.48 1645.66C1582.21 1644.86 1486.71 1645.71 1469.63 1646.06C1458.63 1646.29 1453.6 1647.56 1454.23 1636.14C1455.31 1616.52 1461.69 1579.63 1462.77 1563.51C1463.15 1557.8 1466.49 1554.92 1472.77 1554.86C1502.7 1554.58 1594.66 1553.89 1613.27 1554.95C1635.56 1556.22 1636.82 1529.58 1639.34 1501.67C1641.01 1483.18 1645.43 1449.08 1648.23 1428.19C1649.65 1417.55 1644.87 1410.37 1634.94 1410.42C1585.77 1410.69 1434.99 1410.36 1381.64 1410.33C1323.19 1410.3 1319.41 1443.95 1313.76 1477.57C1309.11 1505.2 1296.11 1613.31 1288.62 1680.55C1282.65 1734.15 1303.71 1753.5 1353.99 1756.02C1378.14 1756.02 1402.24 1754.78 1417.68 1755.48C1429.83 1756.02 1433.6 1760.06 1431.02 1775.84C1424.8 1813.79 1410.75 1895.34 1406.79 1924.14C1402.6 1954.59 1397.68 1953.95 1359.02 1953.32C1332.42 1952.43 1292.08 1951.53 1270.6 1951.08C1267.75 1951.02 1265.23 1950.97 1263.13 1950.93C1259.02 1950.85 1255.49 1953.86 1254.89 1957.96L1245.89 2019.29L1245.87 2019.27Z" fill="#0E1325"/>
<path d="M1661.34 1761.08L1705.64 1418.51C1706.19 1414.28 1709.79 1411.11 1714.06 1411.11H1841.52C1846.63 1411.11 1850.59 1415.6 1849.95 1420.67L1747.76 2226.78C1747.22 2231.02 1743.61 2234.2 1739.33 2234.2H1599.55C1594.35 2234.2 1590.37 2229.58 1591.15 2224.44L1661.33 1761.08H1661.34Z" fill="#0E1325"/>
<path d="M1885.73 2098.56V1413.5C1885.73 1411.75 1887.16 1410.33 1888.93 1410.33H2028.02C2029.91 1410.33 2031.39 1411.95 2031.2 1413.81L2007.81 1646.69C2007.42 1650.57 2013.07 1651.59 2014.09 1647.82L2077.44 1412.67C2077.81 1411.28 2079.08 1410.32 2080.53 1410.32H2202.17C2204.26 1410.32 2205.79 1412.27 2205.27 1414.28L2028.4 2099.34C2028.04 2100.74 2026.76 2101.72 2025.3 2101.72H1888.93C1887.16 2101.72 1885.73 2100.3 1885.73 2098.55V2098.56Z" fill="#0E1325"/>
<path d="M2250.79 1410.33H2529.96C2531.96 1410.33 2533.48 1412.08 2533.17 1414.01L2513.45 1537.03C2513.2 1538.58 2511.84 1539.72 2510.24 1539.72H2375.26C2373.69 1539.72 2372.34 1540.83 2372.06 1542.34L2349.66 1664.44C2349.3 1666.4 2350.83 1668.19 2352.86 1668.19H2485.01C2487 1668.19 2488.52 1669.93 2488.22 1671.86L2462.42 1820.84C2462.18 1822.4 2460.81 1823.55 2459.21 1823.55L2322.46 1820.84C2320.89 1820.84 2319.54 1821.94 2319.26 1823.46L2296.87 1944.34C2296.51 1946.3 2298.04 1948.1 2300.07 1948.1H2434.76C2436.75 1948.1 2438.27 1949.84 2437.97 1951.77L2411.62 2099.01C2411.38 2100.54 2410.06 2101.69 2408.48 2101.72L2123.85 2100.36C2121.79 2100.4 2120.22 2098.58 2120.58 2096.6L2247.61 1412.91C2247.89 1411.41 2249.23 1410.32 2250.8 1410.32L2250.79 1410.33Z" fill="#0E1325"/>
<path d="M392.934 2951.61L496.744 2285.73C496.954 2284.39 498.314 2283.38 499.924 2283.38H671.974C673.694 2283.38 675.114 2284.53 675.174 2285.98L687.184 2557.11C687.314 2560.11 692.284 2560.72 693.424 2557.87L802.014 2285.22C802.454 2284.12 803.674 2283.38 805.054 2283.38H975.304C977.234 2283.38 978.724 2284.8 978.484 2286.42L856.194 3104.1C855.994 3105.45 854.634 3106.46 853.014 3106.46H678.694C676.764 3106.46 675.274 3105.04 675.514 3103.43L732.784 2713.66C733.284 2710.28 727.424 2709.38 726.494 2712.7L698.694 2811.12C698.354 2812.34 697.064 2813.2 695.574 2813.2H602.434C600.614 2813.2 599.164 2811.93 599.234 2810.4L610.384 2710.85C610.524 2707.65 604.154 2707.24 603.634 2710.41L558.564 2951.63" fill="#0E1325"/>
<path d="M1324.61 2283.38H1016.76C1015.15 2283.38 1013.79 2284.4 1013.59 2285.75L893.704 3103.45C893.464 3105.06 894.944 3106.47 896.864 3106.47H1052.56C1054.18 3106.47 1055.55 3105.44 1055.73 3104.08L1094.07 2811.85C1094.25 2810.49 1095.6 2809.47 1097.21 2809.46C1115.75 2809.31 1220.4 2808.52 1261.57 2809.48C1306.83 2810.54 1339.52 2779.79 1343.28 2738.41C1347.05 2697.05 1391.05 2385.21 1393.56 2351.27C1396.07 2317.33 1389.79 2283.38 1324.59 2283.38H1324.61ZM1250.26 2446.73C1248.38 2466.35 1232.66 2639.77 1230.03 2651.76C1228.09 2660.64 1218.21 2667.35 1207.53 2667.35H1121.33C1119.37 2667.35 1117.85 2665.91 1118.08 2664.27L1151.25 2426.37C1151.44 2424.97 1152.84 2423.93 1154.5 2423.93H1227.02C1235.19 2423.93 1252.16 2427.11 1250.27 2446.73H1250.26Z" fill="#0E1325"/>
<path d="M2189.09 3102.69L2258.05 2457.84C2258.27 2455.82 2256.72 2454.06 2254.74 2454.06H2135.8C2133.83 2454.06 2132.29 2452.31 2132.49 2450.31L2148.78 2286.45C2148.95 2284.71 2150.38 2283.39 2152.09 2283.39H2562.09C2564.08 2283.39 2565.62 2285.16 2565.4 2287.18L2547.3 2451.04C2547.11 2452.76 2545.69 2454.07 2543.99 2454.07H2433.03C2431.33 2454.07 2429.91 2455.38 2429.72 2457.11L2360.6 3103.44C2360.42 3105.17 2358.99 3106.48 2357.29 3106.48H2192.39C2190.41 3106.48 2188.87 3104.72 2189.08 3102.7L2189.09 3102.69Z" fill="#0E1325"/>
<path d="M1882.32 2478.45L1851.24 2768.86C1850.58 2776.5 1855.91 2783.17 1862.9 2783.44L2051.62 2783.84C2058.55 2784.1 2063.87 2790.67 2063.3 2798.25L2051.96 2962.56C2051.44 2969.47 2046.18 2974.78 2039.87 2974.78H1750.92C1717.45 2974.78 1691.62 2942.45 1695.99 2906.02L1764.36 2336.26C1767.99 2306 1791.49 2283.38 1819.29 2283.38H2097.02C2104.1 2283.38 2109.68 2290.02 2109.11 2297.77L2097.55 2455.96C2097.04 2462.92 2091.72 2468.27 2085.36 2468.21L1894.5 2466.4C1888.21 2466.34 1882.92 2471.58 1882.32 2478.45Z" fill="#0E1325"/>
<path d="M0.0339882 2227.04L96.344 1257.29C96.604 1255.31 98.284 1253.82 100.284 1253.82H277.604C279.804 1253.82 281.584 1255.6 281.584 1257.8L310.584 1545.15C310.584 1549.63 316.844 1550.69 318.314 1546.45L390.024 1256.49C390.584 1254.89 392.084 1253.82 393.784 1253.82H556.134C558.534 1253.82 560.394 1255.93 560.074 1258.31L350.644 3073.77C350.384 3075.75 348.694 3077.23 346.704 3077.23H201.984C199.584 3077.23 197.734 3075.12 198.044 3072.74L356.714 1853.84C357.344 1848.97 350.324 1847.5 348.954 1852.22L317.084 1961.84C316.594 1963.54 315.034 1964.71 313.264 1964.71H221.874C219.794 1964.71 218.074 1963.11 217.904 1961.04L216.304 1849.68C215.934 1844.9 208.984 1844.74 208.394 1849.5L156.394 2228.03C156.144 2230.02 154.454 2231.52 152.444 2231.52H3.97399C1.57399 2231.52 -0.276012 2229.41 0.0339882 2227.03V2227.04Z" fill="#0E1325"/>
<path d="M2713.26 1281.2C2714.97 1277.75 2719.84 1277.63 2721.72 1280.99C2748.61 1329.05 2841.05 1463.38 2855.8 1501.74C2871.45 1542.44 2949.71 1789.74 2957.54 1803.83C2965.37 1817.92 3017.02 1956.09 3018.58 1968.4C3020.14 1980.71 3043.62 2041.75 3048.32 2048.01C3053.02 2054.27 3060.84 2112.18 3085.89 2171.66C3110.93 2231.14 3107.8 2212.36 3109.37 2240.53C3110.94 2268.7 3112.5 2378.27 3115.63 2397.05C3118.76 2415.83 3081.2 2514.44 3078.06 2548.88C3074.92 2583.32 3079.63 2650.62 3071.8 2678.79C3063.97 2706.96 3055.37 2732.79 3055.37 2732.79L2970.07 2642.01C2970.07 2642.01 2966.94 2703.84 2967.72 2720.27C2968.5 2736.7 2963.81 2764.88 2966.15 2775.05C2968.49 2785.22 2967.72 2835.31 2966.15 2849.4C2964.58 2863.49 2954.41 2919.05 2953.63 2935.49C2952.85 2951.93 2944.24 3004.36 2940.33 3011.4C2933.29 3003.57 2914.5 3002.01 2905.11 3011.4C2900.41 3026.27 2907.46 3102.97 2908.24 3110.01C2886.33 3104.53 2877.72 3046.62 2873.02 3032.53C2868.32 3018.44 2863.63 2947.23 2863.63 2938.62C2863.63 2930.01 2826.85 2663.14 2827.63 2643.58L2828.41 2624.01C2814.32 2627.92 2790.06 2609.14 2793.19 2584.88C2790.06 2548.1 2743.89 2534.79 2736.06 2534.01C2728.23 2533.23 2707.1 2526.18 2688.32 2575.49C2669.54 2624.79 2652.32 2663.14 2635.89 2674.1C2641.37 2696.01 2621.75 2809.49 2565.43 2849.4C2578.76 2809.49 2585.02 2779.75 2580.33 2770.36C2575.63 2760.97 2558.42 2741.4 2537.29 2757.84C2526.33 2722.62 2544.33 2692.88 2547.46 2677.23C2550.59 2661.58 2558.42 2566.1 2570.16 2541.06C2581.9 2516.02 2631.2 2408.8 2646.07 2383.76C2660.94 2358.72 2700.85 2282.8 2710.24 2269.5C2719.63 2256.2 2783.81 2147.41 2773.63 2081.67C2764.09 2020.04 2612.17 1780.25 2557.1 1714.41C2550.96 1707.07 2549.13 1697.05 2552.35 1688.03C2582.23 1604.38 2688.3 1331.45 2713.26 1281.21V1281.2Z" fill="#EC9D63" stroke="#414042" stroke-width="6" stroke-miterlimit="10"/>
<path d="M2862.05 2048C2867.15 2018.7 2901.7 2021.91 2898.57 2050.61C2895.44 2079.31 2857.87 2072 2862.05 2048Z" fill="#4D999B" stroke="#414042" stroke-width="6" stroke-miterlimit="10"/>
<path d="M2907.45 2048.37C2897.01 2069.36 2929.36 2082.43 2938.23 2058.96C2947.1 2035.48 2921.01 2021.09 2907.45 2048.37Z" fill="#4D999B" stroke="#414042" stroke-width="6" stroke-miterlimit="10"/>
<path d="M2951.27 2057.39C2938.15 2075.56 2961.7 2091.79 2975.79 2071.46C2989.88 2051.13 2964.83 2038.61 2951.27 2057.39Z" fill="#4D999B" stroke="#414042" stroke-width="6" stroke-miterlimit="10"/>
<path d="M2985.71 2069.23C2971.31 2087.34 2999.8 2113.21 3016.49 2090.25C3033.19 2067.29 3004.49 2045.6 2985.71 2069.23Z" fill="#4D999B" stroke="#414042" stroke-width="6" stroke-miterlimit="10"/>
<path d="M3028.49 2087.13C3012.72 2107.14 3032.66 2133.56 3055.1 2111.13C3077.54 2088.7 3042.06 2069.91 3028.49 2087.13Z" fill="#4D999B" stroke="#414042" stroke-width="6" stroke-miterlimit="10"/>
<path d="M3072.84 2113.21C3050.49 2121.19 3054.58 2148.17 3080.14 2139.3C3105.71 2130.43 3094.75 2105.39 3072.84 2113.21Z" fill="#4D999B" stroke="#414042" stroke-width="6" stroke-miterlimit="10"/>
<path d="M3102.05 2153.39C3111.59 2165.32 3087.9 2177.81 3082.3 2162.86C3076.7 2147.91 3085.36 2132.52 3102.05 2153.39Z" fill="#4D999B" stroke="#414042" stroke-width="6" stroke-miterlimit="10"/>
<path d="M2854.23 2048.16C2852.4 2067.33 2822.48 2067 2824.79 2048.37C2827.1 2029.74 2857.36 2015.46 2854.23 2048.16Z" fill="#4D999B" stroke="#414042" stroke-width="6" stroke-miterlimit="10"/>
<path d="M2780.66 2052.49C2777.66 2079.75 2817.7 2077.43 2809.88 2048.37C2802.05 2019.3 2782.75 2033.51 2780.66 2052.49Z" fill="#4D999B" stroke="#414042" stroke-width="6" stroke-miterlimit="10"/>
<path d="M2773.36 2051.7C2770.46 2074.4 2743.62 2078.89 2746.75 2059.01C2749.88 2039.13 2775.76 2032.93 2773.36 2051.7Z" fill="#4D999B" stroke="#414042" stroke-width="6" stroke-miterlimit="10"/>
<path d="M2751.45 2095.47C2742.1 2111.83 2772.61 2120.9 2773.52 2104.86C2774.43 2088.82 2768.15 2066.25 2751.45 2095.47Z" fill="#4D999B" stroke="#414042" stroke-width="6" stroke-miterlimit="10"/>
<path d="M2516.92 2836.08C2522.35 2806.84 2528.47 2762.79 2537.27 2757.82C2546.07 2752.85 2560.75 2741.39 2580.31 2770.34C2580.31 2814.17 2567.79 2840.77 2552.92 2869.73C2538.05 2898.69 2504.93 2900.64 2516.92 2836.08Z" fill="#478BA8" stroke="#414042" stroke-width="6" stroke-miterlimit="10"/>
<path d="M2941.88 3060.17C2940.32 3085.77 2941.36 3120.69 2924.14 3124.87C2905.36 3119.65 2901.66 3024.16 2907.44 3015.3C2913.22 3006.45 2931.44 3006.95 2936.14 3012.69C2940.84 3018.43 2943.06 3040.81 2941.88 3060.17Z" fill="#488BA8" stroke="#414042" stroke-width="6" stroke-miterlimit="10"/>
<path d="M2595.97 2692.34C2609.01 2689.21 2635.88 2674.08 2635.88 2674.08Z" fill="#488BA8"/>
<path d="M2595.97 2692.34C2609.01 2689.21 2635.88 2674.08 2635.88 2674.08" stroke="#414042" stroke-width="6" stroke-miterlimit="10"/>
<path d="M2677.88 2505.56C2692.49 2495.65 2727.45 2500.86 2735.79 2502.95C2744.13 2505.04 2802.05 2546.25 2805.7 2557.73C2813.53 2569.21 2827.09 2586.43 2837 2594.25" stroke="#414042" stroke-width="6" stroke-miterlimit="10"/>
<path d="M2973.71 2590.08C2973.71 2616.17 2970.06 2641.99 2970.06 2641.99" stroke="#414042" stroke-width="6" stroke-miterlimit="10"/>
<path d="M3025.88 2628.17C3025.88 2651.65 3019.79 2694.92 3019.79 2694.92" stroke="#414042" stroke-width="6" stroke-miterlimit="10"/>
<path d="M3365.53 3192.17C3340.12 3163.86 3198.05 3040.34 3192.31 3030.43C3186.57 3020.52 3135.96 2978.78 3122.92 2969.39C3109.88 2960 3079.09 2930.26 3084.31 2877.04C3089.53 2823.82 3084.31 2760.17 3068.14 2741.39C3051.97 2722.61 3036.65 2652.69 3019.79 2645.39C3002.93 2638.09 2974.23 2645.39 2966.93 2642C2959.63 2638.61 2911.1 2639.13 2901.19 2650.61C2891.28 2662.09 2901.71 2698.61 2927.8 2709.04C2946.06 2717.39 2960.15 2713.74 2967.45 2723.65C2963.41 2757.04 2967.11 2783.71 2967.32 2841.95C2955.29 2919.99 2940.32 3011.38 2940.32 3011.38C2949.4 3023.33 2944.54 3075.63 2947.36 3093.55C2963.93 3120.81 2982.31 3133 2992.49 3145.72C3011.27 3169.2 3090.06 3281.89 3097.36 3289.2C3104.66 3296.5 3189.19 3386.24 3202.23 3390.94C3215.27 3395.64 3406.75 3238.07 3365.53 3192.16V3192.17Z" fill="#E6B584" stroke="#414042" stroke-width="6" stroke-miterlimit="10"/>
<path d="M3034.23 3015.61C3015.45 3034.86 2977.13 3048.94 2946.2 3051.29" stroke="#414042" stroke-width="6" stroke-miterlimit="10"/>
<path d="M3006.84 2814.95C2981.01 2799.3 2966.14 2775.04 2966.14 2775.04" stroke="#414042" stroke-width="6" stroke-miterlimit="10"/>
<path d="M3011.53 2786C2988.05 2775.04 2966.05 2741.17 2966.05 2741.17" stroke="#414042" stroke-width="6" stroke-miterlimit="10"/>
<path d="M2914.37 2654.35C2937.31 2672.44 2956.42 2693.79 2964.51 2677.3C2972.6 2660.81 2956.94 2635.71 2932.99 2635.59C2916.55 2635.51 2888.29 2633.79 2914.36 2654.35H2914.37Z" fill="#E8D4AC" stroke="#414042" stroke-width="6" stroke-miterlimit="10"/>
<path d="M2866.75 3051.3C2829.18 3041.91 2786.92 3021.57 2768.14 3001.22C2749.36 2980.87 2693.01 2910.64 2698.49 2889.02C2703.97 2867.4 2703.97 2865.83 2704.75 2857.22C2705.53 2848.61 2710.23 2836.09 2718.05 2828.26C2717.27 2807.91 2716.48 2782.09 2726.66 2775.04C2732.92 2750 2760.31 2688.95 2831.53 2717.91C2873.01 2735.13 2894.92 2748.8 2912.14 2751.36C2929.36 2753.92 2965.49 2778.19 2966.05 2789.91C2966.61 2801.63 2960.03 2825.13 2923.56 2828.26C2963.01 2844.69 2973.96 2861.91 2970.05 2874.43C2966.14 2886.95 2959.25 2906.52 2923.56 2901.82C2941.09 2915.91 2941.09 2928.43 2916.83 2939.39C2891 2949.56 2873 2935.48 2865.18 2934.69C2864.4 2960.52 2874.96 3040.26 2877.77 3051.29C2880.58 3062.32 2866.74 3051.29 2866.74 3051.29L2866.75 3051.3Z" fill="#E6B583" stroke="#414042" stroke-width="6" stroke-miterlimit="10"/>
<path d="M2766.58 2649.04C2780.43 2635.88 2786.93 2631.3 2816.67 2640.17C2846.41 2649.04 2905.89 2682.69 2891.8 2704.6C2877.71 2726.51 2864.4 2732.02 2847.97 2724.96C2831.54 2717.9 2794.83 2702.9 2775.86 2713.65C2755.63 2694.43 2754.12 2660.89 2766.59 2649.04H2766.58Z" fill="#E6B583" stroke="#414042" stroke-width="6" stroke-miterlimit="10"/>
<path d="M2834.46 2683.21C2837.23 2666.54 2849.22 2668.85 2864.41 2681.72C2876.93 2692.34 2878.5 2707.73 2853.45 2706.95C2828.4 2706.17 2831.91 2698.6 2834.46 2683.21Z" fill="#E8D4AC" stroke="#414042" stroke-width="6" stroke-miterlimit="10"/>
<path d="M2913.18 2795C2914.83 2781.05 2918.92 2771.13 2928.83 2781.57C2938.74 2792.01 2938.74 2793.57 2938.22 2799.83C2937.7 2806.09 2936.31 2808.7 2925.79 2809.22C2915.27 2809.74 2911.09 2812.61 2913.18 2795Z" fill="#E8D4AC" stroke="#414042" stroke-width="6" stroke-miterlimit="10"/>
<path d="M2928.32 2868.17C2928.32 2886.95 2938.23 2887.87 2949.19 2883.24C2960.15 2878.61 2954.82 2869.31 2946.2 2861.91C2941.84 2858.17 2928.32 2844.17 2928.32 2868.17Z" fill="#E8D4AC" stroke="#414042" stroke-width="6" stroke-miterlimit="10"/>
<path d="M2892.48 2923.63C2903.1 2928.49 2921.94 2921.6 2908.55 2914.38C2895.16 2907.16 2884 2919.75 2892.48 2923.63Z" fill="#E8D4AC" stroke="#414042" stroke-width="6" stroke-miterlimit="10"/>
<path d="M2797.88 2961.3C2811.97 2955.04 2811.18 2932.34 2811.18 2932.34C2827.61 2929.21 2851.7 2929.99 2865.18 2934.69" stroke="#414042" stroke-width="6" stroke-miterlimit="10"/>
<path d="M2777.53 2937.82C2784.57 2943.3 2811.18 2932.34 2811.18 2932.34C2798.66 2945.64 2790.05 2955.04 2777.53 2951.91" stroke="#414042" stroke-width="6" stroke-miterlimit="10"/>
<path d="M2758.62 2800.87C2778.32 2793.04 2828.49 2808.86 2846.41 2814.96C2885.54 2828.26 2904.95 2822.79 2923.57 2828.26" stroke="#414042" stroke-width="6" stroke-miterlimit="10"/>
<path d="M2763.45 2870.01C2779.88 2868.17 2811.79 2879.52 2824.79 2883.23C2837.79 2886.94 2864.4 2888.51 2879.27 2893.2C2894.14 2897.9 2914.67 2892.82 2923.56 2901.81" stroke="#414042" stroke-width="6" stroke-miterlimit="10"/>
<path d="M978.834 3413.3C971.004 3420.86 964.224 3428.69 944.664 3449.3C925.094 3469.91 909.054 3474.86 892.484 3474.34C879.874 3473.94 871.094 3462.6 875.004 3445.65C891.964 3445.65 913.354 3418.12 924.574 3402.6C934.084 3389.44 960.834 3358.78 946.744 3343.91C932.664 3329.04 899.944 3355.91 889.614 3370.52C880.564 3383.32 867.184 3398.7 861.134 3421.39C858.484 3431.32 856.314 3444.57 852.054 3456.6C847.804 3468.59 819.034 3481.21 809.004 3483.47C798.314 3485.89 778.744 3464.69 765.964 3439.91C757.304 3423.11 725.004 3366.6 704.134 3353.56C758.404 3352.03 785.914 3304.78 785.704 3282.86C785.404 3251.43 767.534 3228.08 744.314 3217.12C721.094 3206.17 704.404 3201.73 676.224 3201.99C648.774 3202.25 603.834 3211.52 576.834 3225.99C552.834 3238.86 513.964 3272.17 500.534 3288.34C487.094 3304.52 486.764 3310.33 500.534 3333.99C503.844 3339.7 509.094 3350.59 520.484 3361.91C530.864 3372.22 533.534 3362.17 530.924 3358.26C528.314 3354.34 526.224 3349.39 520.484 3332.43C514.744 3315.47 519.964 3295.65 540.834 3267.73C561.704 3239.82 583.484 3231.08 623.004 3218.43C662.224 3205.87 699.044 3209.34 715.614 3216.6C732.574 3224.04 760.654 3243.55 763.614 3267.47C767.004 3294.86 758.664 3305.3 741.134 3322.26C723.604 3339.21 700.224 3343.65 670.744 3344.43C655.744 3344.3 655.874 3354.34 669.964 3354.6C687.964 3354.6 723.964 3408.08 730.744 3419.04C737.534 3429.99 772.094 3480.73 785.264 3493.65C797.574 3505.71 810.834 3504.6 822.834 3495.21C834.834 3485.82 848.664 3476.17 855.964 3467.56C855.964 3481.12 871.104 3501.11 891.184 3497.82C911.234 3494.53 922.094 3489.6 931.224 3480.48C940.354 3471.35 961.494 3449.5 982.224 3427.39C997.874 3410.69 986.664 3405.73 978.834 3413.3ZM891.834 3386.82C907.324 3363.84 952.484 3345.34 906.704 3403.26C860.924 3461.17 868.354 3421.65 891.834 3386.82Z" fill="#0E1325"/>
<path d="M513.044 3513.6C521.054 3507.22 541.364 3497.07 554.134 3493.25C568.494 3488.96 591.164 3478.51 601.484 3440.82C605.784 3422.43 607.004 3403.51 608.914 3390.73C610.584 3379.59 617.524 3305.3 639.634 3267.66C654.014 3243.19 667.744 3236.25 677.334 3232.51C690.814 3227.25 691.104 3229.91 676.004 3245.92C652.744 3270.59 651.434 3283.38 646.834 3298.57C641.514 3316.1 638.824 3333.2 635.614 3349.37C629.654 3379.37 631.414 3454.89 603.184 3481.89C616.754 3482.93 648.654 3484.68 659.794 3490.5C668.404 3495 668.924 3502.5 657.444 3499.89C645.964 3497.28 558.574 3493.37 509.534 3531.98C499.884 3539.28 488.664 3533.02 513.054 3513.59L513.044 3513.6Z" fill="#0E1325"/>
<path d="M1147.74 3228.34C1163.16 3222.89 1186.87 3224.82 1164.96 3233.43C1143.05 3242.04 1118.39 3256 1103.53 3282.73C1087.62 3310.77 1071.44 3351.99 1064.01 3377.03C1056.58 3402.07 1046.79 3436.9 1047.18 3450.99C1047.57 3465.08 1045.22 3493.25 1082.01 3460.77C1091.01 3453.34 1118.4 3431.42 1130.53 3418.9C1137.7 3411.99 1139.65 3407.34 1140.05 3403.77C1140.31 3397.12 1146.53 3396.2 1147.09 3402.47C1147.83 3422.04 1138.35 3430.38 1132.09 3437.17C1125.83 3443.95 1080.24 3484.06 1066.94 3494.43C1053.64 3504.8 1023.31 3508.32 1024.29 3478.19C1025.27 3448.06 1040.92 3387.6 1047.38 3368.82C1053.84 3350.04 1081.81 3287.04 1094.53 3270.21C1107.25 3253.38 1128.38 3235.19 1147.75 3228.34H1147.74Z" fill="#0E1325"/>
<path d="M1358.66 3420.86C1351.87 3429.47 1306.22 3473.56 1295 3469.65C1283.79 3465.73 1293.96 3435.47 1297.09 3422.17C1300.22 3408.86 1322.66 3361.65 1328.4 3350.69C1334.13 3339.73 1323.18 3341.3 1319.26 3346.52C1315.35 3351.73 1306.48 3354.86 1298.92 3354.86C1291.36 3354.86 1290.05 3340.26 1275.7 3334.78C1261.35 3329.3 1240.52 3343.3 1222.48 3363.59C1215.64 3371.29 1188.44 3410.49 1180.22 3436.12C1172 3461.76 1173.37 3487.97 1177.68 3491.69C1181.98 3495.41 1198.81 3494.62 1212.31 3491.69C1225.8 3488.76 1261.83 3469.14 1271.25 3456.1C1270.98 3457.07 1261.93 3489.73 1283 3489.73C1319.26 3489.73 1358.13 3437.56 1365.96 3427.12C1373.79 3416.69 1365.44 3412.26 1358.66 3420.86ZM1271.68 3440.82C1264.35 3450.41 1217.2 3476.82 1206.83 3475.06C1196.46 3473.3 1195.48 3449.82 1201.94 3431.62C1208.4 3413.43 1222.39 3384.39 1233.24 3370.19C1244 3356.1 1252.15 3348.61 1262.4 3347.1C1271.68 3345.73 1299.69 3359.3 1300.55 3368.43C1301.53 3378.8 1279.01 3431.23 1271.68 3440.82Z" fill="#0E1325"/>
<path d="M1387.81 3304.45L1441.88 3306.34C1445.27 3290.69 1467.45 3234.86 1467.45 3234.86C1461.19 3237.73 1455.45 3232.51 1463.28 3228.6C1471.11 3224.69 1483.37 3217.64 1489.63 3213.73C1495.89 3209.82 1502.15 3214.77 1491.2 3224.95C1486.5 3230.17 1461.2 3305.04 1461.2 3305.04C1473.2 3305.3 1502.94 3306.34 1508.68 3306.34C1514.42 3306.34 1520.42 3315.21 1508.68 3315.73C1496.94 3316.25 1456.25 3317.56 1456.25 3317.56C1453.38 3327.21 1428.08 3419.3 1428.34 3437.3C1428.6 3455.3 1426.25 3474.08 1459.91 3452.43C1493.57 3430.78 1526.17 3403.39 1536.08 3389.82C1545.99 3376.25 1553.04 3378.86 1542.08 3404.17C1531.12 3429.48 1470.08 3474.34 1448.43 3485.56C1426.78 3496.78 1398.86 3497.56 1403.04 3461.82C1407.21 3426.08 1419.21 3361.65 1437.74 3317.82C1426.26 3317.82 1397.17 3315.73 1387.85 3315.73C1378.53 3315.73 1375.28 3304.01 1387.85 3304.45H1387.81Z" fill="#0E1325"/>
<path d="M1619.26 3251.82C1616.18 3236.4 1643.52 3238.52 1640.39 3251.82C1637.26 3265.12 1622.39 3267.47 1619.26 3251.82Z" fill="#0E1325"/>
<path d="M1591.48 3320.69C1603.59 3316.6 1623.96 3294.08 1616.52 3320.69C1609.09 3347.3 1584.82 3417.34 1583.65 3432.99C1582.48 3448.64 1584.04 3454.9 1603.61 3442.38C1623.18 3429.86 1629.44 3426.73 1636.48 3420.86C1643.52 3414.99 1656.15 3415.38 1640.64 3429.86C1625.13 3444.34 1604.2 3461.95 1583.36 3468.21C1562.52 3474.47 1554.7 3459.99 1559.39 3440.82C1564.09 3421.65 1588.5 3354.96 1593.04 3335.95C1585.61 3339.08 1560.17 3331.25 1591.47 3320.69H1591.48Z" fill="#0E1325"/>
<path d="M2388.17 3273.48C2385.09 3258.06 2412.43 3260.18 2409.3 3273.48C2406.17 3286.78 2391.3 3289.13 2388.17 3273.48Z" fill="#0E1325"/>
<path d="M2360.39 3342.35C2372.5 3338.26 2392.87 3315.74 2385.43 3342.35C2378 3368.96 2353.73 3439 2352.56 3454.65C2351.39 3470.3 2352.95 3476.56 2372.52 3464.04C2392.09 3451.52 2398.35 3448.39 2405.39 3442.52C2412.43 3436.65 2425.06 3437.04 2409.55 3451.52C2394.04 3466 2373.11 3483.61 2352.27 3489.87C2331.43 3496.13 2323.61 3481.65 2328.3 3462.48C2333 3443.31 2357.41 3376.62 2361.95 3357.61C2354.52 3360.74 2329.08 3352.91 2360.38 3342.35H2360.39Z" fill="#0E1325"/>
<path d="M1793 3302.43C1749.7 3298.26 1722.57 3348.86 1712.13 3368.69C1701.7 3388.52 1651.14 3461.53 1707.44 3475.14C1748.4 3485.04 1801.87 3404.69 1814.4 3374.95C1826.92 3345.21 1837 3306.67 1793 3302.43ZM1787.26 3390.6C1767.96 3428.17 1735.09 3461.56 1713.7 3451.65C1692.31 3441.73 1716.83 3386.43 1730.4 3366.6C1743.96 3346.78 1768.48 3305.04 1787.26 3313.91C1811.45 3325.33 1806.57 3353.03 1787.26 3390.6Z" fill="#0E1325"/>
<path d="M1886.52 3316.78C1899.17 3314.38 1929.56 3304.26 1917.82 3323.04C1906.08 3341.82 1905.44 3349.65 1920.43 3334.39C1935.43 3319.13 1953.43 3304.43 1974.56 3302.19C1995.69 3299.95 2000.39 3323.04 2001.17 3346.13C2001.95 3369.22 2001.27 3404.04 1989.82 3434.17C1982.53 3453.37 1978.65 3467.98 1951.9 3489.56C1913 3520.95 1904.29 3509.91 1941.08 3480.95C1957.12 3467.98 1970.54 3437.93 1976.08 3422.04C1980.78 3408.56 1987.05 3353.3 1978.86 3332.82C1974.16 3321.08 1964.38 3321.47 1948.34 3331.25C1927.76 3343.8 1898.86 3374.68 1890.25 3397.38C1881.8 3419.65 1882.21 3439.25 1866.95 3451.38C1851.69 3463.51 1825.08 3471.73 1849.73 3444.73C1861.47 3431.82 1888.86 3340.25 1896.3 3328.12C1874.48 3329.59 1847.39 3324.21 1886.52 3316.77V3316.78Z" fill="#0E1325"/>
<path d="M2097.7 3312.69C2119.63 3313.06 2142.93 3334.45 2135.13 3351.73C2129.13 3365.03 2114.23 3370.51 2117.18 3354.73C2118.3 3345.47 2113.35 3327.21 2085.43 3333.99C2067.82 3338.82 2063.39 3358.9 2080.6 3370.38C2097.81 3381.86 2134.34 3405.47 2133.82 3430.51C2133.3 3455.55 2122.6 3473.29 2086.34 3473.68C2050.08 3474.07 2031.82 3456.72 2016.3 3454.38C2011.6 3453.86 2005.73 3448.12 2034.17 3418.64C2041.08 3411.34 2052.04 3410.94 2043.56 3423.86C2040.04 3430.12 2036.39 3464.56 2079.56 3462.73C2118.69 3461.03 2115.56 3441.47 2115.43 3437.95C2114 3418.65 2052.17 3387.47 2049.04 3362.3C2045.91 3337.13 2071.87 3312.26 2097.69 3312.69H2097.7Z" fill="#0E1325"/>
<path d="M2667.44 3314.97C2689.37 3315.34 2712.67 3336.73 2704.87 3354.01C2698.87 3367.31 2683.97 3372.79 2686.92 3357.01C2688.04 3347.75 2683.09 3329.49 2655.17 3336.27C2637.56 3341.1 2633.13 3361.18 2650.34 3372.66C2667.55 3384.14 2704.08 3407.75 2703.56 3432.79C2703.04 3457.83 2692.34 3475.57 2656.08 3475.96C2619.82 3476.35 2601.56 3459 2586.04 3456.66C2581.34 3456.14 2575.47 3450.4 2603.91 3420.92C2610.82 3413.62 2621.78 3413.22 2613.3 3426.14C2609.78 3432.4 2606.13 3466.84 2649.3 3465.01C2688.43 3463.31 2685.3 3443.75 2685.17 3440.23C2683.74 3420.93 2621.91 3389.75 2618.78 3364.58C2615.65 3339.41 2641.61 3314.54 2667.43 3314.97H2667.44Z" fill="#0E1325"/>
<path d="M2187.44 3368.43C2196.08 3336.35 2215.61 3248.95 2297.01 3215.56C2320.23 3206.95 2333.27 3219.99 2311.62 3223.91C2301.19 3226.52 2239.1 3239.3 2217.97 3348.48C2242.23 3326.96 2255.54 3320.31 2271.97 3317.37C2288.4 3314.43 2299.95 3323.04 2300.34 3346.72C2300.73 3370.4 2293.69 3450.22 2268.25 3471.55C2255.14 3482.7 2245.16 3492.09 2233.03 3499.33C2220.9 3506.57 2211.7 3504.22 2230.1 3490.53C2248.5 3476.84 2270.6 3454.73 2273.34 3433.2C2276.08 3411.67 2282.31 3370.44 2275.88 3356.7C2271.58 3347.5 2267.12 3331.37 2255.05 3340.07C2245.55 3346.92 2224.62 3364.92 2217.97 3372.94C2211.32 3380.96 2196.64 3397.2 2187.45 3450.22C2186.67 3458.63 2188.23 3463.52 2179.04 3471.55C2169.85 3479.58 2171.8 3479.77 2161.24 3485.05C2150.68 3490.33 2143.63 3481.33 2155.57 3468.81C2167.5 3456.29 2182.53 3386.76 2187.46 3368.44L2187.44 3368.43Z" fill="#0E1325"/>
<path d="M2446.87 3332.82C2455.11 3333.3 2465.26 3332.43 2476.22 3326.17C2487.18 3319.91 2492.65 3321.47 2489.13 3337.91C2485.61 3354.35 2482.09 3368.69 2481.17 3371.95C2480.25 3375.21 2481.17 3379.38 2487.82 3370.25C2494.47 3361.12 2521.73 3331.38 2534.91 3327.34C2548.09 3323.3 2565.6 3320.95 2572.28 3342.31C2578.96 3363.67 2572.08 3390.34 2568.86 3398.95C2565.63 3407.56 2550.55 3443.07 2533.45 3457.84C2515.09 3473.69 2494.89 3470.42 2490.99 3469.68C2480.92 3467.76 2476.04 3463.15 2470.15 3459.33C2467.08 3457.34 2468.65 3446.43 2480.52 3454.03C2490.04 3460 2507.74 3457.78 2517.4 3454.62C2532.82 3449.57 2543.72 3429.48 2549.88 3408.74C2556.04 3388 2558.91 3378.09 2555.85 3357.77C2553.23 3340.42 2540.65 3338.43 2531 3345.64C2520.86 3353.21 2496.86 3376.85 2488.15 3387.12C2479.44 3397.39 2475.53 3401.21 2469.86 3417.35C2464.19 3433.49 2433.7 3520 2423 3540.09C2412.3 3560.18 2394.04 3595.92 2373.7 3609.74C2353.35 3623.57 2311.35 3636.87 2287.87 3623.83C2264.39 3610.79 2270.65 3611.57 2270.65 3598.53C2270.65 3585.49 2269.08 3568.61 2287.87 3598.79C2302.74 3618.88 2340.83 3617.57 2370.3 3588.88C2392.91 3566.87 2405.29 3547.78 2418.55 3512.14C2426.27 3491.37 2463.69 3375.77 2466.3 3358.02C2468.91 3340.27 2466.04 3343.14 2459.26 3345.49C2452.48 3347.84 2448.56 3347.32 2441 3344.97C2433.44 3342.62 2426.91 3331.67 2446.87 3332.84V3332.82Z" fill="#0E1325"/>
<path d="M2589.7 3262.7C2614.86 3251.49 2706.23 3228.71 2748.18 3228.35C2792.4 3227.97 2857.48 3241.1 2905.31 3291.92C2961.66 3351.79 2962.82 3398.86 2965.7 3434.96C2970.37 3493.48 2944.27 3558.92 2889.09 3607.05C2833.91 3655.18 2782.22 3671.53 2737.22 3682.09C2693.37 3692.39 2609 3694.79 2553.31 3690.48C2503.61 3689.57 1676.13 3584.63 1603.06 3575.7C1475.79 3560.13 1388.66 3557.05 1317.18 3556C1281.18 3555.47 1002.57 3560.7 968.664 3563.83C940.614 3566.42 761.014 3589.4 662.404 3612.79C611.294 3624.91 437.014 3672.88 434.924 3775.14C432.834 3877.4 550.964 3904.01 613.574 3892.53C676.184 3881.05 720.534 3858.62 736.184 3848.7C751.834 3838.79 760.704 3841.4 736.704 3856C712.704 3870.61 647.484 3919.65 547.834 3917.57C448.184 3915.48 403.094 3846.09 405.184 3784.53C407.274 3722.97 470.404 3669.23 546.574 3638.96C622.744 3608.7 725.964 3587.52 793.354 3575.83C895.614 3558.09 957.704 3552.35 1018.22 3550.79C1078.74 3549.23 1208.13 3546.66 1238.92 3545.62C1269.7 3544.58 1416.9 3545.76 1481.53 3550.88C1547.59 3556.11 1749.66 3580.34 1885.39 3598.24C2174.91 3636.43 2523.58 3674.17 2550.57 3676.36C2664.31 3688.01 2929.66 3648.32 2939.05 3456.06C2938.25 3280.73 2805.7 3242.45 2749.35 3242.45C2689.87 3242.45 2647.61 3252.62 2596.74 3268.28C2567.78 3282.37 2566.51 3273.05 2589.7 3262.72V3262.7Z" fill="#0E1325"/>
</svg>
