<svg width="3339" height="2772" viewBox="0 0 3339 2772" fill="none" xmlns="http://www.w3.org/2000/svg">
<path d="M1862.13 426.3L1979.52 83.4402L2053.08 0.490234L2402.13 261.88L2546.13 128.83L2923.34 396.49L2845.17 1007.86L2755.87 958.4L2399 1130.57L2505.43 425.96L1862.13 426.3Z" fill="#363436"/>
<path d="M1931 425.62L2053.54 0L2400.78 259.7L2547.69 138.22L2923.34 396.49L2851.03 1013.4L2755.87 958.4L2405.94 1127.22L2504.48 426.3L1931 425.62Z" fill="#758282"/>
<path d="M1945.48 425.89L2053.04 32.9395L2061.69 39.0895L1954.08 425.89H1945.48Z" fill="#231F20"/>
<path d="M2384.62 284.67L2383.09 293.7L2059.75 47.5498L2061.7 39.0898L2384.62 284.67Z" fill="#231F20"/>
<path d="M2383.44 292.219L2362.34 425.9H2354.13L2377.86 281.77L2383.44 288.38V292.219Z" fill="#231F20"/>
<path d="M2405.68 272.53L2379.99 432.49L2372.26 432.36L2398.99 269.06L2406.74 266.74L2405.68 272.53Z" fill="#231F20"/>
<path d="M2354.01 318.62L2334.44 427.1L2326.86 427.09L2355.67 272.83L2362.46 278L2354.01 318.62Z" fill="#231F20"/>
<path d="M2337.57 279.49L2307.05 426.069L2296.88 426.299L2333.82 256.189L2341.41 261.969L2337.57 279.49Z" fill="#231F20"/>
<path d="M2313.44 251.961L2275.88 426.031L2266.75 426.021L2308.12 236.631L2315.09 241.931L2313.44 251.961Z" fill="#231F20"/>
<path d="M2280.57 280.401L2248.49 426L2237.53 425.99L2283.96 218.23L2293.05 225.151L2280.57 280.401Z" fill="#231F20"/>
<path d="M2265.29 213.09L2215.35 426.3L2205.36 425.95L2260.34 200.25L2266.75 205.13L2265.29 213.09Z" fill="#231F20"/>
<path d="M2239.34 194.05L2182.74 426H2172.3L2233.18 179.58L2241.23 185.71L2239.34 194.05Z" fill="#231F20"/>
<path d="M2210.65 175.79L2154.5 426.31L2142.5 426.29L2205.35 158.4L2213.29 164.44L2210.65 175.79Z" fill="#231F20"/>
<path d="M2185.86 156.48L2123.53 425.9L2111.53 425.89L2180.57 139.09L2188.5 145.13L2185.86 156.48Z" fill="#231F20"/>
<path d="M2159.77 136.74L2088.83 426.31L2076.83 426.29L2154.47 119.35L2162.4 125.39L2159.77 136.74Z" fill="#231F20"/>
<path d="M2134.69 117.87L2056.7 425.911L2044.7 425.891L2129.39 100.48L2137.32 106.521L2134.69 117.87Z" fill="#231F20"/>
<path d="M2110.88 99.6498L2024.95 425.89L2012.95 425.88L2105.59 82.2598L2113.52 88.2997L2110.88 99.6498Z" fill="#231F20"/>
<path d="M2086.23 77.351L1990.29 426.591L1978.29 426.571L2080.93 59.9609L2088.86 65.991L2086.23 77.351Z" fill="#231F20"/>
<path d="M2186.13 171.091L2373.6 307.651L2372.08 316.871L2049.68 82.2606L2052.22 73.1406L2186.13 171.091Z" fill="#231F20"/>
<path d="M2180.79 202.13L2370.2 334.27L2368.78 343.5L2037.33 109.97L2039.79 100.83L2180.79 202.13Z" fill="#231F20"/>
<path d="M2175.83 231.159L2366.64 361.279L2365.31 370.529L2031.41 140.519L2033.77 131.359L2175.83 231.159Z" fill="#231F20"/>
<path d="M2167.83 258.17L2364.62 388.32L2363.23 397.58L2018.88 167.53L2021.31 158.35L2167.83 258.17Z" fill="#231F20"/>
<path d="M2160.67 285.96L2359.41 413.29L2358.32 422.78L2010.47 197.61L2012.61 188.18L2160.67 285.96Z" fill="#231F20"/>
<path d="M2153.01 313.76L2353.68 438.141L2352.56 447.43L2001.35 227.48L2003.52 218.23L2153.01 313.76Z" fill="#231F20"/>
<path d="M2149.87 343.589L2353.24 464.209L2352.1 473.26L1996.12 259.939L1998.35 250.939L2149.87 343.589Z" fill="#231F20"/>
<path d="M2138.29 369.05L2238.12 425.89H2221.78L1983.83 288.23L1986.08 279.51L2138.29 369.05Z" fill="#231F20"/>
<path d="M2197 443.03L1979.45 319.309L1981.92 311.02L2202.63 433.62" fill="#231F20"/>
<path d="M2187.32 468.871L1967.54 349.141L1969.86 340.801L2192.77 459.351" fill="#231F20"/>
<path d="M2056.69 425.909L1958.8 380.739L1960.99 372.369L2076.82 426.289" fill="#231F20"/>
<path d="M2018.89 440.701L1956.12 410.091L1958.31 401.721L2024.18 431.101" fill="#231F20"/>
<path d="M2549.65 136.27L2403.23 1128.57L2395.18 1132.57L2542.21 136.27H2549.65Z" fill="#231F20"/>
<path d="M2578.64 152.529L2440.22 1110.83L2432.18 1114.83L2571.21 152.529H2578.64Z" fill="#231F20"/>
<path d="M2606.43 177.279L2479.01 1091.59L2471.97 1094.59L2599 177.279H2606.43Z" fill="#231F20"/>
<path d="M2638.69 195.01L2518.27 1073.31L2511.22 1076.31L2631.25 195.01H2638.69Z" fill="#231F20"/>
<path d="M2670.17 217.779L2555.75 1055.09L2548.71 1058.09L2662.74 217.779H2670.17Z" fill="#231F20"/>
<path d="M2699.43 241.279L2591.92 1037.69L2584.88 1040.69L2692 241.279H2699.43Z" fill="#231F20"/>
<path d="M2731.71 259.73L2627.08 1021.01H2620.04L2724.28 259.73H2731.71Z" fill="#231F20"/>
<path d="M2762.26 292.359L2665.48 1001.98L2658.43 1004.98L2754.82 292.359H2762.26Z" fill="#231F20"/>
<path d="M2796.38 308.971L2703.83 983.511L2695.79 987.511L2788.94 308.971H2796.38Z" fill="#231F20"/>
<path d="M2830.66 331.33L2746.08 963.07L2739.04 966.07L2823.23 331.33H2830.66Z" fill="#231F20"/>
<path d="M2862.57 352.699L2784.04 967.259H2777L2855.14 352.699H2862.57Z" fill="#231F20"/>
<path d="M2893.13 378.721L2816.6 994.291L2809.96 991.131L2885.7 378.721H2893.13Z" fill="#231F20"/>
<path d="M2923.34 405.449L2851.81 1014.01L2844.17 1009.86L2915.91 405.449H2923.34Z" fill="#231F20"/>
<path d="M2515.45 166.199L2473.97 455.829H2466.93L2508.01 166.199H2515.45Z" fill="#231F20"/>
<path d="M2484.17 190.199L2442.69 479.829H2435.64L2476.73 190.199H2484.17Z" fill="#231F20"/>
<path d="M2456.97 217.289L2415.49 506.909H2408.45L2449.53 217.289H2456.97Z" fill="#231F20"/>
<path d="M2430.69 243.27L2405.75 425.89H2398.71L2423.26 243.27H2430.69Z" fill="#231F20"/>
<path d="M2451.17 252.359L2538.15 183.119L2536.14 197.299L2398.71 307.559L2400.44 293.269L2451.17 252.359Z" fill="#231F20"/>
<path d="M2466.93 200.219L2546.71 128.699L2544.87 146.749L2397.84 275.679L2400.57 260.379L2466.93 200.219Z" fill="#231F20"/>
<path d="M2546.72 128.699L2544.88 147.749L2922.84 413.099L2923.35 396.489" fill="#231F20"/>
<path d="M2539.67 181.461L2538.83 194.511L2915.8 455.831L2916.31 444.211" fill="#231F20"/>
<path d="M2523.62 307.48L2521.79 321.531L2902.49 572.34L2903 558.72" fill="#231F20"/>
<path d="M2517.3 346.09L2515.46 360.14L2899.17 610.2L2899.68 596.59" fill="#231F20"/>
<path d="M2509.59 386.029L2507.75 400.079L2893.13 648.299L2893.65 634.679" fill="#231F20"/>
<path d="M2506.07 430.689L2504.22 444.74L2889.44 688.709L2889.95 675.089" fill="#231F20"/>
<path d="M2494.98 473.26L2493.14 487.31L2883.74 727.63L2884.26 714.01" fill="#231F20"/>
<path d="M2489.04 517.17L2487.2 531.22L2878.49 769.61L2879.01 755.99" fill="#231F20"/>
<path d="M2484.01 563L2482.17 577.05L2873.79 807.67L2874.3 794.05" fill="#231F20"/>
<path d="M2476.62 606.131L2474.79 620.181L2870.67 849.131L2871.18 835.511" fill="#231F20"/>
<path d="M2471.26 650.68L2469.42 664.73L2862.32 888.54L2862.83 874.92" fill="#231F20"/>
<path d="M2463.77 695.51L2461.93 709.56L2858.52 929.31L2859.04 915.69" fill="#231F20"/>
<path d="M2456.57 743.27L2454.73 757.319L2855.53 972.88L2856.04 959.27" fill="#231F20"/>
<path d="M2451.57 791.689L2449.73 805.74L2851.03 1013.4L2851.54 999.779" fill="#231F20"/>
<path d="M2442.18 835.51L2440.34 849.56L2702.82 983.51L2718.28 976.49" fill="#231F20"/>
<path d="M2433.2 879.561L2431.36 893.621L2655.98 1006.59L2671.44 999.571" fill="#231F20"/>
<path d="M2431.46 924.17L2429.62 938.22L2611.64 1028.03L2627.09 1021.01" fill="#231F20"/>
<path d="M2424.88 966.07L2423.04 980.12L2564.32 1051.22L2579.78 1043.2" fill="#231F20"/>
<path d="M2410.67 1006.59L2408.83 1020.64L2515.25 1074.8L2529.7 1067.78" fill="#231F20"/>
<path d="M2413.32 1051.22L2411.48 1065.27L2467.28 1097.29L2482.74 1090.27" fill="#231F20"/>
<path d="M2403.01 1092.31L2401.17 1106.36L2423.62 1118.85L2438.09 1111.83" fill="#231F20"/>
<path d="M2434.17 370.641L2519.9 306.23L2517.84 320.61L2380.62 421.75L2382.39 409.25L2434.17 370.641Z" fill="#231F20"/>
<path d="M2427.57 405.971L2515.89 346.961L2513.77 359.231L2372.4 453.701L2374.22 441.341L2427.57 405.971Z" fill="#231F20"/>
<path d="M2417.24 442.53L2510.61 386.59L2507.64 399.28L2358.18 488.84L2360.86 476.04L2417.24 442.53Z" fill="#231F20"/>
<path d="M2446.52 290.25L2533.21 224.42L2525.4 278.63L2386.62 384.03L2394.14 329.71L2446.52 290.25Z" fill="#231F20"/>
<path d="M2533.2 226.76L2526.26 279.98L2905.82 533.56L2911.54 488.84" fill="#231F20"/>
<path d="M2755.87 958.402L3336.41 1344.76L3330.65 2048.92L2718.28 2107.14L2400.16 2066.83L2461.93 1388.03L2213.52 1485.49V1223.87L2755.87 958.402Z" fill="#231F20"/>
<path d="M3338.13 1346.57L2755.87 958.402L2213.79 1223.17L2213.52 1274.64L2726.13 1021.01L2672.91 2106.53L2754.3 2105.53L2796.37 1033.53L3337.13 1379.14L3338.13 1346.57Z" fill="#7E805F"/>
<path d="M2401.16 2066.62L2482.74 1153.27L2505.41 1143.88L2435.39 2071.62L2401.16 2066.62Z" fill="#64684C"/>
<path d="M3062.26 1217.83L3084.56 1234.27L3100.17 2069.96L3071.65 2072.18L3062.26 1217.83Z" fill="#7E805F"/>
<path d="M2672.91 2106.53L2726.13 1021.01L2213.52 1274.64L2213.79 1223.17L2755.87 958.402L2710.35 2107.14L2672.91 2106.53Z" fill="#63674B"/>
<path d="M2805.37 1286.44L2813.39 1071.25L3048.17 1220.83L3062.26 2074.4L3041.91 2076.4L3038.78 1418.01L2805.37 1286.44Z" fill="#9CABAB"/>
<path d="M3099.17 1465.53L3094.39 1256.17L3321.65 1400.09L3318.65 1592.75L3099.17 1465.53Z" fill="#9CABAB"/>
<path d="M2718.28 1056.09L2707.56 1299.36L2496.75 1381.4L2514.2 1153.88L2718.28 1056.09Z" fill="#818E8F"/>
<path d="M2472.78 1174.83L2453.29 1396.04L2213.52 1485.49L2219.91 1295.66L2472.78 1174.83Z" fill="#818E8F"/>
<path d="M2456.29 2073.62L2438.39 2071.62L2497.43 1370.4H2508.75L2456.29 2073.62Z" fill="#818E8F"/>
<path d="M3318.65 1592.75L3315.53 2050.36H3305.34L3312 1588.89L3318.65 1592.75Z" fill="#9CABAB"/>
<path d="M2703.04 1318.79L2666.65 2105.57L2465.91 2076.53L2520.3 1388.83L2703.04 1318.79Z" fill="#403224"/>
<path d="M2796.75 1308.22L3015.04 1431.89L3017.44 2081.92L2763.09 2105.01L2796.75 1308.22Z" fill="#47392A"/>
<path d="M3097.87 1490.83L3301.34 1608.96L3295.65 2050.09L3108.04 2067.44L3097.87 1490.83Z" fill="#47392A"/>
<path d="M2981.26 413.101L3142.08 322.121L3203.13 600.441L3275.74 1304.38L2981.26 1105.58V413.101Z" fill="#231F20"/>
<path d="M2981.26 1105.58L2985.95 413.102L3138.56 331.332L3208.02 1258.67L2981.26 1105.58Z" fill="#758282"/>
<path d="M2992.74 422.571L3128.5 352.701V366.221L2992.74 427.271V422.571Z" fill="#231F20"/>
<path d="M3188.59 1245.55L3128.5 366.221L3119.51 370.261L3180.08 1239.81L3188.59 1245.55Z" fill="#231F20"/>
<path d="M3161.5 1227.26L3154.05 1223.86L3097.51 380.162L3105.82 376.422L3161.5 1227.26Z" fill="#231F20"/>
<path d="M3130.91 1207.99L3124.8 1204.36L3070.09 392.492L3077.08 389.342L3130.91 1207.99Z" fill="#231F20"/>
<path d="M3097.51 1184.06L3090.52 1181.12L3046.6 403.052L3052.66 400.332L3097.51 1184.06Z" fill="#231F20"/>
<path d="M3068.21 1164.28L3062.26 1160.26L3028.2 411.322L3033.93 408.752L3068.21 1164.28Z" fill="#231F20"/>
<path d="M3035.63 1142.28L3029.21 1137.95L3009.56 419.701L3016.62 416.531L3035.63 1142.28Z" fill="#231F20"/>
<path d="M3003.78 1120.78L2997.07 1116.25L2992.74 427.271L2998.26 424.791L3003.78 1120.78Z" fill="#231F20"/>
<path d="M3121.34 396.592L2998.4 443.052L2998.26 435.622L3121.34 389.342V396.592Z" fill="#231F20"/>
<path d="M3122.73 416.531L2998.26 458.701L2998.59 466.141L3123.06 421.141L3122.73 416.531Z" fill="#231F20"/>
<path d="M3124.36 439.912L2998.68 478.142L2998.73 483.942L3124.64 443.842L3124.36 439.912Z" fill="#231F20"/>
<path d="M3125.83 461.021L2998.68 494.901L2998.86 500.381L3125.83 466.141V461.021Z" fill="#231F20"/>
<path d="M3127.43 483.941L2998.99 517.161L2999.03 522.681L3127.78 489.031L3127.43 483.941Z" fill="#231F20"/>
<path d="M3129.19 509.172L2999.18 540.492L2999.22 545.972L3129.19 513.492V509.172Z" fill="#231F20"/>
<path d="M3130.79 532.252L2999.36 563.612L2999.41 569.842L3131.07 536.232L3130.79 532.252Z" fill="#231F20"/>
<path d="M3132.43 555.762L2999.54 585.882V590.772L3132.43 559.702V555.762Z" fill="#231F20"/>
<path d="M3134.03 578.641L2999.73 610.201V615.421L3134.37 583.531L3134.03 578.641Z" fill="#231F20"/>
<path d="M3135.76 603.521L2999.9 632.441L2999.97 640.371L3136.22 610.201L3135.76 603.521Z" fill="#231F20"/>
<path d="M3137.45 627.742L3000.08 654.762L3000.15 663.362L3137.88 634.032L3137.45 627.742Z" fill="#231F20"/>
<path d="M3139.19 652.771L3000.08 679.791L3000.33 686.511L3139.69 659.981L3139.19 652.771Z" fill="#231F20"/>
<path d="M3141.08 679.832L3000.48 704.442L3000.54 712.282L3141.54 686.512L3141.08 679.832Z" fill="#231F20"/>
<path d="M3143.16 709.73L3000.69 731.44L3000.75 738.88L3143.16 717.36V709.73Z" fill="#231F20"/>
<path d="M3145.03 736.57L3000.48 760.4L3000.97 766.66L3145.49 743.27L3145.03 736.57Z" fill="#231F20"/>
<path d="M3147.12 766.662L3001.13 786.522L3001.19 795.002L3147.12 772.782V766.662Z" fill="#231F20"/>
<path d="M3149.1 795.002L3000.69 813.252L3001.4 821.052L3149.57 801.842L3149.1 795.002Z" fill="#231F20"/>
<path d="M3151.08 823.4L3001.55 839.45L3001.6 846.49L3151.49 829.35L3151.08 823.4Z" fill="#231F20"/>
<path d="M3153.09 852.32L3001.78 868.4L3001.83 875.44L3153.09 858.08V852.32Z" fill="#231F20"/>
<path d="M3155.36 884.861L3002.01 897.751L3002.05 902.541L3155.76 890.701L3155.36 884.861Z" fill="#231F20"/>
<path d="M3157.26 912.23L3002.01 925.141L3002.29 932.96L3157.26 918.49V912.23Z" fill="#231F20"/>
<path d="M3159.25 940.771L3002.47 955.271L3002.01 961.922L3159.69 947.051L3159.25 940.771Z" fill="#231F20"/>
<path d="M3161.5 972.881L3002.7 985.011V992.441L3161.9 978.781L3161.5 972.881Z" fill="#231F20"/>
<path d="M3163.83 1006.54L3003.78 1017.88V1024.14L3164.31 1013.4L3163.83 1006.54Z" fill="#231F20"/>
<path d="M3166.21 1040.69L3003.78 1050.75V1058.57L3166.62 1046.5L3166.21 1040.69Z" fill="#231F20"/>
<path d="M3168.34 1071.25L3003.78 1083.22V1091.44L3168.82 1078.13L3168.34 1071.25Z" fill="#231F20"/>
<path d="M3170.51 1102.38L3003.78 1112.57V1120.78L3170.97 1109.06L3170.51 1102.38Z" fill="#231F20"/>
<path d="M3172.36 1129L3024.86 1135.02L3035.63 1144.59L3172.91 1136.79L3172.36 1129Z" fill="#231F20"/>
<path d="M3174.14 1154.47L3058.72 1159.95L3070.09 1167.88L3174.6 1161.17L3174.14 1154.47Z" fill="#231F20"/>
<path d="M3175.77 1177.92L3092.78 1183.4L3103.25 1189.99L3176.2 1184.06L3175.77 1177.92Z" fill="#231F20"/>
<path d="M3177.61 1204.36L3130.91 1207.99L3139.74 1214.31L3178.12 1211.6L3177.61 1204.36Z" fill="#231F20"/>
<path d="M3179.53 1231.9H3168.37L3180.08 1239.81L3179.53 1231.9Z" fill="#231F20"/>
<path d="M1279.89 2360.83C1279.11 2326.4 1247.8 2299.01 1218.06 2297.44C1218.06 2297.44 1256.41 2288.05 1254.84 2245.01C1253.28 2201.96 1220.41 2182.4 1203.97 2176.14C1187.15 2168.31 1127.28 2170.66 1088.93 2183.18C1050.58 2195.7 1005.97 2225.44 1005.97 2225.44C1005.97 2225.44 1005.22 2242.02 1005.92 2261.87C1005.82 2260.23 1005.58 2259.31 1005.19 2279.44C1004.69 2306.06 1014.58 2307.61 1015.37 2278.66C1016.15 2249.7 1124.93 2188.66 1156.24 2186.31C1187.54 2183.96 1223.54 2201.96 1225.11 2245.79C1226.67 2289.61 1155.45 2301.35 1144.5 2302.14C1133.54 2302.92 1130.41 2302.92 1129.63 2293.53C1129.63 2293.53 1130.41 2237.18 1146.84 2219.18C1183.42 2182.66 1157.8 2194.92 1134.87 2210.57C1111.93 2226.22 1106.15 2263.01 1105.37 2313.09C1100.67 2414.83 1045.11 2416.4 1013.8 2417.18C982.495 2417.96 980.925 2428.14 1014.58 2428.14C1067.8 2425.79 1118.67 2446.92 1182.06 2444.57C1245.45 2442.22 1280.67 2395.27 1279.89 2360.83ZM1255.24 2372.18C1252.89 2433.22 1168.3 2431.68 1134.87 2429.7C1086.35 2426.84 1060.76 2430.37 1095.58 2409.75C1122.58 2396.83 1123.05 2343.94 1124.93 2326.4C1126.11 2315.44 1134.31 2312.17 1174.24 2308.19C1215.32 2304.09 1257.58 2311.14 1255.24 2372.18Z" fill="#0E1325"/>
<path d="M1329.57 2303.31C1346.26 2299.86 1367.14 2286.09 1348.74 2320.14C1330.34 2354.19 1329.17 2383.14 1329.57 2392.14C1329.96 2425.79 1333.48 2439.49 1368.31 2413.27C1403.14 2387.05 1432.48 2340.49 1439.53 2315.84C1444.62 2297.92 1445.79 2292.36 1461.83 2286.1C1477.87 2279.84 1492.35 2271.66 1471.61 2307.25C1450.87 2342.84 1442.65 2366.32 1439.13 2380.41C1435.61 2394.5 1437.17 2430.11 1463 2406.24C1488.83 2382.37 1502.13 2383.54 1480.22 2408.98C1458.31 2434.42 1410.96 2453.2 1414.48 2419.15C1418 2385.1 1427 2361.24 1406.26 2393.72C1385.52 2426.2 1358.91 2446.15 1331.91 2450.07C1304.91 2453.99 1306.48 2419.94 1307.26 2402.33C1308.04 2384.72 1326.43 2335.42 1330.35 2325.63C1334.27 2315.84 1335.83 2308.8 1320.18 2313.5C1304.53 2318.2 1282.22 2313.11 1329.57 2303.33V2303.31Z" fill="#0E1325"/>
<path d="M1527.57 2345.96C1529.98 2326.15 1540.18 2312.83 1551.83 2304.09C1561.22 2297.05 1598.2 2280.57 1604.66 2304.09C1608.77 2322.29 1602.7 2328.74 1596.44 2335.39C1590.18 2342.04 1578.05 2344.78 1582.74 2333.04C1585.38 2326.8 1589.39 2318.17 1588.22 2311.91C1586.26 2305.26 1574.92 2303.5 1563.96 2311.52C1551.83 2321.3 1547.53 2327.56 1547.53 2340.87C1547.53 2354.18 1561.38 2362.78 1576.37 2371.39C1591.36 2380 1612.1 2389 1610.14 2409.35C1608.18 2429.7 1594.88 2452.78 1562.01 2454.74C1529.14 2456.7 1520.92 2440.65 1520.92 2440.65C1514.66 2432.43 1510.75 2436.35 1510.75 2436.35C1507.62 2441.05 1502.53 2445.9 1504.49 2430.36C1506.45 2414.82 1506.84 2410.52 1510.36 2397.61C1513.88 2384.31 1522.49 2389.39 1521.32 2404.26C1520.15 2419.13 1526.41 2439.09 1552.23 2439.09C1578.05 2439.09 1591.75 2435.18 1594.88 2420.31C1598.01 2405.44 1572.97 2396.05 1560.45 2388.22C1547.93 2380.39 1524.06 2374.92 1527.58 2345.96H1527.57Z" fill="#0E1325"/>
<path d="M2080.44 2332.16C2082.85 2312.35 2093.05 2299.03 2104.7 2290.29C2114.09 2283.25 2151.07 2266.77 2157.53 2290.29C2161.64 2308.49 2155.57 2314.94 2149.31 2321.59C2143.05 2328.24 2130.92 2330.98 2135.61 2319.24C2138.25 2313 2142.26 2304.37 2141.09 2298.11C2139.13 2291.46 2127.79 2289.7 2116.83 2297.72C2104.7 2307.5 2100.4 2313.76 2100.4 2327.07C2100.4 2340.38 2114.25 2348.98 2129.24 2357.59C2144.23 2366.2 2164.97 2375.2 2163.01 2395.55C2161.05 2415.9 2147.75 2438.98 2114.88 2440.94C2082.01 2442.9 2073.79 2426.85 2073.79 2426.85C2067.53 2418.63 2063.62 2422.55 2063.62 2422.55C2060.49 2427.25 2055.4 2432.1 2057.36 2416.56C2059.32 2401.02 2059.71 2396.72 2063.23 2383.81C2066.75 2370.51 2075.36 2375.59 2074.19 2390.46C2073.02 2405.33 2079.28 2425.29 2105.1 2425.29C2130.92 2425.29 2144.62 2421.38 2147.75 2406.51C2150.88 2391.64 2125.84 2382.25 2113.32 2374.42C2100.8 2366.59 2076.93 2361.12 2080.45 2332.16H2080.44Z" fill="#0E1325"/>
<path d="M2204.88 2332.16C2207.29 2312.35 2217.49 2299.03 2229.14 2290.29C2238.53 2283.25 2275.51 2266.77 2281.97 2290.29C2286.08 2308.49 2280.01 2314.94 2273.75 2321.59C2267.49 2328.24 2255.37 2330.98 2260.06 2319.24C2262.7 2313 2266.7 2304.37 2265.53 2298.11C2263.57 2291.46 2252.23 2289.7 2241.27 2297.72C2229.14 2307.5 2224.85 2313.76 2224.85 2327.07C2224.85 2340.38 2238.69 2348.98 2253.68 2357.59C2268.67 2366.2 2289.41 2375.2 2287.45 2395.55C2285.49 2415.9 2272.2 2438.98 2239.33 2440.94C2206.46 2442.9 2198.23 2426.85 2198.23 2426.85C2191.97 2418.63 2188.07 2422.55 2188.07 2422.55C2184.94 2427.25 2179.84 2432.1 2181.8 2416.56C2183.76 2401.02 2184.15 2396.72 2187.67 2383.81C2191.19 2370.51 2199.8 2375.59 2198.63 2390.46C2197.46 2405.33 2203.72 2425.29 2229.54 2425.29C2255.36 2425.29 2269.06 2421.38 2272.19 2406.51C2275.32 2391.64 2250.28 2382.25 2237.76 2374.42C2225.24 2366.59 2201.37 2361.12 2204.89 2332.16H2204.88Z" fill="#0E1325"/>
<path d="M1691.53 2239.53C1691.24 2224.66 1718.14 2219.96 1718.53 2239.53C1718.92 2259.1 1691.92 2259.49 1691.53 2239.53Z" fill="#0E1325"/>
<path d="M1668.44 2304.49C1680.19 2303.91 1687.61 2303.32 1698.18 2295.1C1708.75 2286.88 1723.22 2279.84 1710.31 2298.23C1704.83 2305.66 1692.7 2331.88 1689.57 2360.06C1686.44 2388.24 1681.74 2435.97 1709.14 2403.1C1736.54 2370.23 1757.66 2355.75 1729.1 2400.36C1700.54 2444.97 1661.4 2461.4 1661.8 2417.97C1662.2 2374.54 1670.02 2347.14 1675.89 2331.49C1681.76 2315.84 1681.76 2315.06 1670.02 2313.88C1658.28 2312.7 1629.32 2306.41 1668.45 2304.49H1668.44Z" fill="#0E1325"/>
<path d="M1792.89 2357.31C1808.54 2316.22 1822.63 2294.7 1806.59 2304.09C1790.55 2313.48 1736.16 2316.55 1779.59 2301.91C1812.07 2289.61 1810.89 2289.22 1818.72 2282.57C1826.55 2275.92 1842.2 2263 1834.37 2288.44C1826.54 2313.88 1822.2 2317.79 1836.5 2302.53C1850.8 2287.27 1904.02 2271.23 1901.67 2322.88C1899.32 2374.53 1870.11 2408.81 1859.8 2426.58C1844.93 2452.99 1834.95 2450.84 1846.89 2428.93C1866.46 2392.15 1883.54 2357.45 1883.93 2331.76C1884.32 2306.07 1876.23 2284.41 1851.58 2304.37C1826.93 2324.33 1815.06 2342.2 1810.36 2360.33C1805.66 2378.46 1799.66 2394.11 1798.88 2401.03C1797.58 2414.46 1800.31 2413.81 1787.27 2423.33C1774.23 2432.85 1763.92 2434.81 1773.97 2419.16C1784.02 2403.51 1782.27 2383.4 1792.88 2357.33L1792.89 2357.31Z" fill="#0E1325"/>
<path d="M2040.18 2373.4C2030.4 2384.8 2015.92 2405.05 1983.44 2423.44C1950.96 2441.83 1945.1 2405.83 1949.79 2382.35C1955.86 2354.77 1965.52 2357.7 1995.57 2339.7C2015.14 2328.35 2032.75 2304.09 2017.88 2284.53C2003.01 2264.96 1972.88 2291.96 1956.05 2313.88C1943.01 2331.88 1938.18 2353.53 1919.53 2358.75C1900.88 2363.96 1906.75 2371.4 1919.53 2367.22C1932.31 2363.05 1933.36 2365.66 1931.53 2372.83C1929.7 2380.01 1928.24 2393.96 1928.27 2407.79C1927.1 2439.09 1964.66 2447.31 1988.53 2435.57C2012.4 2423.83 2036.27 2394.48 2048.01 2379.61C2063.79 2359.22 2057.01 2352.22 2040.18 2373.4ZM1971.31 2325.03C1983.44 2309.38 1986.38 2307.61 1986.38 2307.61C1995.38 2297.05 2013.18 2294.51 2005.16 2314.07C1999.36 2326.14 1982.27 2336.18 1974.64 2339.9C1967.01 2343.61 1959.18 2340.68 1971.31 2325.03Z" fill="#0E1325"/>
<path d="M768.055 2658.62C754.555 2557.36 899.535 2498.97 1022.79 2481.36C1146.05 2463.75 1327.09 2470.4 1464.83 2481.36C1602.57 2492.32 1945.62 2537.71 2007.18 2544.75C2068.74 2551.79 2220.31 2567.45 2293.35 2562.23C2366.39 2557.01 2427.96 2553.36 2489.78 2475.1C2551.6 2396.84 2523.43 2321.71 2461.61 2266.93C2399.79 2212.15 2280.04 2190.23 2213.52 2209.8C2167.35 2223.1 2154.82 2220.77 2208.04 2202.76C2261.26 2184.75 2309.78 2186.32 2352.04 2187.1C2394.3 2187.88 2478.04 2225.45 2521.08 2264.58C2564.12 2303.71 2594.65 2366.29 2572.73 2422.65C2550.81 2479.01 2496.03 2579.18 2306.64 2576.84C2117.25 2574.5 1925.51 2544.75 1811.25 2531.45C1696.99 2518.15 1502.12 2496.23 1460.64 2493.1C1419.16 2489.97 1267.34 2476.67 1213.34 2479.01C1159.34 2481.35 999.955 2482.4 928.475 2513.44C857.205 2544.39 817.775 2567.15 814.995 2638.66C812.125 2712.49 882.505 2741.12 904.215 2743.53C942.955 2747.83 995.515 2745.88 1036.21 2727.1C1042.99 2723.97 1053.17 2718.49 1062.82 2710.14C1083.57 2692.19 1088.91 2695.21 1048.21 2728.66C1000.67 2763.68 937.865 2776.4 891.695 2769.36C845.525 2762.32 779.785 2746.66 768.045 2658.62H768.055Z" fill="#0E1325"/>
<path d="M683.324 427.092C681.844 427.092 680.564 428.122 680.234 429.562L591.534 821.822L497.174 1246.32C496.734 1248.3 498.244 1250.17 500.264 1250.17H624.814C626.304 1250.17 627.584 1249.13 627.904 1247.68L677.144 1023.39C677.454 1021.96 678.704 1020.93 680.164 1020.9L712.744 1020.18C714.524 1020.14 715.984 1021.57 715.984 1023.35V1124.12C715.984 1125.87 717.404 1127.29 719.154 1127.29H843.584C845.324 1127.29 846.734 1125.89 846.754 1124.15L852.984 430.282C853.004 428.522 851.574 427.082 849.814 427.082H683.314L683.324 427.092ZM687.954 961.392L708.244 891.812C709.234 888.422 714.184 888.952 714.444 892.472L719.514 962.052C719.644 963.882 718.194 965.452 716.354 965.452H690.994C688.884 965.452 687.364 963.422 687.954 961.402V961.392Z" fill="#0E1325"/>
<path d="M1494.15 1299.36C1492.67 1299.36 1491.39 1300.39 1491.06 1301.83L1402.36 1694.09L1308 2118.59C1307.56 2120.57 1309.07 2122.44 1311.09 2122.44H1435.64C1437.13 2122.44 1438.41 2121.4 1438.73 2119.95L1487.97 1895.66C1488.28 1894.23 1489.53 1893.2 1490.99 1893.17L1523.57 1892.45C1525.35 1892.41 1526.81 1893.84 1526.81 1895.62V1996.39C1526.81 1998.14 1528.23 1999.56 1529.98 1999.56H1654.41C1656.15 1999.56 1657.56 1998.16 1657.58 1996.42L1663.81 1302.55C1663.83 1300.79 1662.4 1299.35 1660.64 1299.35H1494.14L1494.15 1299.36ZM1498.77 1833.66L1519.06 1764.08C1520.05 1760.69 1525 1761.22 1525.26 1764.74L1530.33 1834.32C1530.46 1836.15 1529.01 1837.72 1527.17 1837.72H1501.81C1499.7 1837.72 1498.18 1835.69 1498.77 1833.67V1833.66Z" fill="#0E1325"/>
<path d="M874.384 1035.24L863.264 1108.2C862.504 1113.19 866.334 1117.7 871.334 1117.7H1137.11C1179.85 1117.7 1194.31 1094.86 1200.59 1036.51C1206.88 978.153 1238.68 775.223 1248.36 699.053C1251.5 674.313 1239.87 662.263 1226.99 661.633C1210.72 660.833 1115.22 661.683 1098.14 662.033C1087.14 662.263 1082.11 663.533 1082.74 652.113C1083.82 632.493 1090.2 595.603 1091.28 579.483C1091.66 573.769 1095 570.886 1101.28 570.833C1131.21 570.553 1223.17 569.863 1241.78 570.923C1264.07 572.193 1265.33 545.553 1267.85 517.643C1269.52 499.153 1273.94 465.053 1276.74 444.163C1278.16 433.523 1273.38 426.343 1263.45 426.393C1214.28 426.663 1063.5 426.333 1010.15 426.303C951.704 426.273 947.924 459.923 942.274 493.543C937.624 521.173 924.624 629.283 917.134 696.523C911.164 750.123 932.224 769.473 982.504 771.993C1006.65 771.993 1030.75 770.753 1046.19 771.453C1058.34 771.993 1062.11 776.033 1059.53 791.813C1053.31 829.763 1039.26 911.313 1035.3 940.113C1031.11 970.563 1026.19 969.923 987.534 969.293C960.934 968.403 920.594 967.503 899.114 967.053C896.264 966.993 893.744 966.943 891.644 966.903C887.534 966.823 884.004 969.833 883.404 973.933L874.404 1035.26L874.384 1035.24Z" fill="#0E1325"/>
<path d="M1245.85 1035.24L1234.73 1108.2C1233.97 1113.19 1237.8 1117.7 1242.8 1117.7H1508.58C1551.32 1117.7 1565.78 1094.86 1572.06 1036.51C1578.35 978.153 1610.15 775.223 1619.83 699.053C1622.97 674.313 1611.34 662.263 1598.46 661.633C1582.19 660.833 1486.69 661.683 1469.61 662.033C1458.61 662.263 1453.58 663.533 1454.21 652.113C1455.29 632.493 1461.67 595.603 1462.75 579.483C1463.13 573.769 1466.47 570.886 1472.75 570.833C1502.68 570.553 1594.64 569.863 1613.25 570.923C1635.54 572.193 1636.8 545.553 1639.32 517.643C1640.99 499.153 1645.41 465.053 1648.21 444.163C1649.63 433.523 1644.85 426.343 1634.92 426.393C1585.75 426.663 1434.97 426.333 1381.62 426.303C1323.17 426.273 1319.39 459.923 1313.74 493.543C1309.09 521.173 1296.09 629.283 1288.6 696.523C1282.63 750.123 1303.69 769.473 1353.97 771.993C1378.12 771.993 1402.22 770.753 1417.66 771.453C1429.81 771.993 1433.58 776.033 1431 791.813C1424.78 829.763 1410.73 911.313 1406.77 940.113C1402.58 970.563 1397.66 969.923 1359 969.293C1332.4 968.403 1292.06 967.503 1270.58 967.053C1267.73 966.993 1265.21 966.943 1263.11 966.903C1259 966.823 1255.47 969.833 1254.87 973.933L1245.87 1035.26L1245.85 1035.24Z" fill="#0E1325"/>
<path d="M1661.32 777.064L1705.62 434.494C1706.17 430.264 1709.77 427.094 1714.04 427.094H1841.5C1846.61 427.094 1850.57 431.584 1849.93 436.654L1747.74 1242.76C1747.2 1247 1743.59 1250.18 1739.31 1250.18H1599.53C1594.33 1250.18 1590.35 1245.56 1591.13 1240.42L1661.31 777.064H1661.32Z" fill="#0E1325"/>
<path d="M1885.72 1114.53V429.473C1885.72 427.723 1887.15 426.303 1888.92 426.303H2028.01C2029.9 426.303 2031.38 427.923 2031.19 429.783L2007.8 662.663C2007.41 666.543 2013.06 667.563 2014.08 663.793L2077.43 428.643C2077.8 427.253 2079.07 426.293 2080.52 426.293H2202.16C2204.25 426.293 2205.78 428.243 2205.26 430.253L2028.39 1115.31C2028.03 1116.71 2026.75 1117.69 2025.29 1117.69H1888.92C1887.15 1117.69 1885.72 1116.27 1885.72 1114.52V1114.53Z" fill="#0E1325"/>
<path d="M2250.78 426.303H2529.95C2531.95 426.303 2533.47 428.053 2533.16 429.983L2513.44 553.003C2513.19 554.553 2511.83 555.693 2510.23 555.693H2375.25C2373.68 555.693 2372.33 556.803 2372.05 558.313L2349.65 680.413C2349.29 682.373 2350.82 684.163 2352.85 684.163H2485C2486.99 684.163 2488.51 685.903 2488.21 687.833L2462.41 836.813C2462.17 838.373 2460.8 839.523 2459.2 839.523L2322.45 836.813C2320.88 836.813 2319.53 837.913 2319.25 839.433L2296.86 960.313C2296.5 962.273 2298.03 964.073 2300.06 964.073H2434.75C2436.74 964.073 2438.26 965.813 2437.96 967.743L2411.61 1114.98C2411.37 1116.51 2410.05 1117.66 2408.47 1117.69L2123.84 1116.33C2121.78 1116.37 2120.21 1114.55 2120.57 1112.57L2247.6 428.883C2247.88 427.383 2249.22 426.293 2250.79 426.293L2250.78 426.303Z" fill="#0E1325"/>
<path d="M392.914 1967.58L496.724 1301.7C496.934 1300.36 498.294 1299.35 499.904 1299.35H671.954C673.674 1299.35 675.094 1300.5 675.154 1301.95L687.164 1573.08C687.294 1576.08 692.264 1576.69 693.404 1573.84L801.994 1301.19C802.434 1300.09 803.654 1299.35 805.034 1299.35H975.284C977.214 1299.35 978.704 1300.77 978.464 1302.39L856.174 2120.07C855.974 2121.42 854.614 2122.43 852.994 2122.43H678.674C676.744 2122.43 675.254 2121.01 675.494 2119.4L732.764 1729.63C733.264 1726.25 727.404 1725.35 726.474 1728.67L698.674 1827.09C698.334 1828.31 697.044 1829.17 695.554 1829.17H602.414C600.594 1829.17 599.144 1827.9 599.214 1826.37L610.364 1726.82C610.504 1723.62 604.134 1723.21 603.614 1726.38L558.544 1967.6" fill="#0E1325"/>
<path d="M1324.6 1299.36H1016.75C1015.14 1299.36 1013.78 1300.38 1013.58 1301.73L893.694 2119.43C893.454 2121.04 894.934 2122.45 896.854 2122.45H1052.55C1054.17 2122.45 1055.54 2121.42 1055.72 2120.06L1094.06 1827.83C1094.24 1826.47 1095.59 1825.45 1097.2 1825.44C1115.74 1825.29 1220.39 1824.5 1261.56 1825.46C1306.82 1826.52 1339.51 1795.77 1343.27 1754.39C1347.04 1713.03 1391.04 1401.19 1393.55 1367.25C1396.06 1333.31 1389.78 1299.36 1324.58 1299.36H1324.6ZM1250.25 1462.7C1248.37 1482.32 1232.65 1655.74 1230.02 1667.73C1228.08 1676.61 1218.2 1683.32 1207.52 1683.32H1121.32C1119.36 1683.32 1117.84 1681.88 1118.07 1680.24L1151.24 1442.34C1151.43 1440.94 1152.83 1439.9 1154.49 1439.9H1227.01C1235.18 1439.9 1252.15 1443.08 1250.26 1462.7H1250.25Z" fill="#0E1325"/>
<path d="M2189.08 2118.66L2258.04 1473.81C2258.26 1471.79 2256.71 1470.03 2254.73 1470.03H2135.79C2133.82 1470.03 2132.28 1468.28 2132.48 1466.28L2148.77 1302.42C2148.94 1300.68 2150.37 1299.36 2152.08 1299.36H2562.08C2564.07 1299.36 2565.61 1301.13 2565.39 1303.15L2547.29 1467.01C2547.1 1468.73 2545.68 1470.04 2543.98 1470.04H2433.02C2431.32 1470.04 2429.9 1471.35 2429.71 1473.08L2360.59 2119.41C2360.41 2121.14 2358.98 2122.45 2357.28 2122.45H2192.38C2190.4 2122.45 2188.86 2120.69 2189.07 2118.67L2189.08 2118.66Z" fill="#0E1325"/>
<path d="M1882.31 1494.42L1851.23 1784.83C1850.57 1792.47 1855.9 1799.14 1862.89 1799.41L2051.61 1799.81C2058.54 1800.07 2063.86 1806.64 2063.29 1814.22L2051.95 1978.53C2051.43 1985.44 2046.17 1990.75 2039.86 1990.75H1750.91C1717.44 1990.75 1691.61 1958.42 1695.98 1921.99L1764.35 1352.23C1767.98 1321.97 1791.48 1299.35 1819.28 1299.35H2097.01C2104.09 1299.35 2109.67 1305.99 2109.1 1313.74L2097.54 1471.93C2097.03 1478.89 2091.71 1484.24 2085.35 1484.18L1894.49 1482.37C1888.2 1482.31 1882.91 1487.55 1882.31 1494.42Z" fill="#0E1325"/>
<path d="M0.0239882 1243.01L125.334 273.263C125.594 271.283 127.274 269.793 129.274 269.793H306.594C308.794 269.793 310.574 271.573 310.574 273.773V561.123C310.574 565.603 316.834 566.663 318.304 562.423L419.014 272.463C419.574 270.863 421.074 269.793 422.774 269.793H585.124C587.524 269.793 589.384 271.903 589.064 274.283L350.634 2089.74C350.374 2091.72 348.684 2093.2 346.694 2093.2H201.974C199.574 2093.2 197.724 2091.09 198.034 2088.71L356.704 869.813C357.334 864.943 350.314 863.473 348.944 868.193L317.074 977.813C316.584 979.513 315.024 980.683 313.254 980.683H221.864C219.784 980.683 218.064 979.083 217.894 977.013L216.294 865.653C215.924 860.873 208.974 860.713 208.384 865.473L156.384 1244C156.134 1245.99 154.444 1247.49 152.434 1247.49H3.97399C1.57399 1247.49 -0.276012 1245.38 0.0339882 1243L0.0239882 1243.01Z" fill="#0E1325"/>
<mask id="mask0_503_822" style="mask-type:alpha" maskUnits="userSpaceOnUse" x="2213" y="958" width="1125" height="1149">
<rect x="2213" y="958" width="1125" height="1149" fill="url(#paint0_linear_503_822)"/>
</mask>
<g mask="url(#mask0_503_822)">
</g>
<defs>
<linearGradient id="paint0_linear_503_822" x1="2752" y1="958" x2="3266" y2="1927" gradientUnits="userSpaceOnUse">
<stop offset="0.353154" stop-color="#D9D9D9"/>
<stop offset="0.573154" stop-color="#D9D9D9"/>
<stop offset="0.768154" stop-color="#D9D9D9" stop-opacity="0.56"/>
<stop offset="0.883154" stop-color="#D9D9D9" stop-opacity="0.2"/>
<stop offset="1" stop-color="#D9D9D9" stop-opacity="0"/>
</linearGradient>
</defs>
</svg>
