<svg width="3195" height="2307" viewBox="0 0 3195 2307" fill="none" xmlns="http://www.w3.org/2000/svg">
<path d="M850.831 195.86C848.991 195.86 847.391 197.14 846.981 198.93L736.541 687.34L619.051 1215.89C618.501 1218.35 620.381 1220.69 622.901 1220.69H777.981C779.831 1220.69 781.431 1219.4 781.831 1217.59L843.141 938.33C843.531 936.55 845.091 935.27 846.901 935.23L887.471 934.34C889.681 934.29 891.501 936.07 891.501 938.28V1063.75C891.501 1065.93 893.271 1067.69 895.441 1067.69H1050.37C1052.53 1067.69 1054.29 1065.95 1054.31 1063.78L1062.07 199.84C1062.09 197.65 1060.32 195.86 1058.13 195.86H850.821H850.831ZM856.591 861.12L881.861 774.48C883.091 770.26 889.261 770.91 889.581 775.3L895.891 861.94C896.061 864.22 894.251 866.17 891.961 866.17H860.381C857.751 866.17 855.861 863.65 856.591 861.12Z" fill="white"/>
<path d="M1860.39 1281.92C1858.55 1281.92 1856.95 1283.2 1856.54 1284.99L1746.1 1773.4L1628.61 2301.95C1628.06 2304.41 1629.94 2306.75 1632.46 2306.75H1787.54C1789.39 2306.75 1790.99 2305.46 1791.39 2303.65L1852.7 2024.39C1853.09 2022.61 1854.65 2021.33 1856.46 2021.29L1897.03 2020.4C1899.24 2020.35 1901.06 2022.13 1901.06 2024.34V2149.81C1901.06 2151.99 1902.83 2153.75 1905 2153.75H2059.93C2062.09 2153.75 2063.85 2152.01 2063.87 2149.84L2071.63 1285.9C2071.65 1283.71 2069.88 1281.92 2067.69 1281.92H1860.38H1860.39ZM1866.15 1947.18L1891.42 1860.54C1892.65 1856.32 1898.82 1856.97 1899.14 1861.36L1905.45 1948C1905.62 1950.28 1903.81 1952.23 1901.52 1952.23H1869.94C1867.31 1952.23 1865.42 1949.71 1866.15 1947.18Z" fill="white"/>
<path d="M1088.72 953.08L1074.87 1043.93C1073.92 1050.15 1078.69 1055.75 1084.92 1055.75H1415.85C1469.07 1055.75 1487.07 1027.32 1494.89 954.66C1502.72 882 1542.32 629.33 1554.37 534.49C1558.28 503.69 1543.8 488.68 1527.76 487.89C1507.5 486.89 1388.6 487.95 1367.32 488.39C1353.63 488.68 1347.36 490.26 1348.15 476.04C1349.5 451.61 1357.44 405.68 1358.78 385.61C1359.25 378.497 1363.41 374.903 1371.24 374.83C1408.5 374.49 1523.01 373.62 1546.17 374.94C1573.93 376.52 1575.49 343.35 1578.62 308.6C1580.69 285.57 1586.21 243.13 1589.69 217.11C1591.46 203.86 1585.5 194.92 1573.14 194.99C1511.91 195.32 1324.18 194.91 1257.76 194.88C1184.98 194.84 1180.28 236.74 1173.24 278.6C1167.45 313 1151.26 447.61 1141.94 531.33C1134.51 598.07 1160.72 622.16 1223.33 625.3C1253.4 625.3 1283.41 623.76 1302.63 624.62C1317.76 625.3 1322.46 630.32 1319.24 649.97C1311.49 697.23 1294 798.76 1289.07 834.61C1283.85 872.52 1277.72 871.73 1229.59 870.94C1196.48 869.83 1146.24 868.71 1119.5 868.15C1115.95 868.08 1112.82 868.01 1110.19 867.96C1105.07 867.86 1100.68 871.61 1099.93 876.72L1088.72 953.08Z" fill="white"/>
<path d="M1551.24 953.08L1537.39 1043.93C1536.44 1050.15 1541.21 1055.75 1547.44 1055.75H1878.37C1931.59 1055.75 1949.59 1027.32 1957.41 954.66C1965.24 882 2004.84 629.33 2016.89 534.49C2020.8 503.69 2006.32 488.68 1990.28 487.89C1970.02 486.89 1851.12 487.95 1829.84 488.39C1816.15 488.68 1809.88 490.26 1810.67 476.04C1812.02 451.61 1819.96 405.68 1821.3 385.61C1821.77 378.497 1825.93 374.903 1833.76 374.83C1871.02 374.49 1985.53 373.62 2008.69 374.94C2036.45 376.52 2038.01 343.35 2041.14 308.6C2043.21 285.57 2048.73 243.13 2052.21 217.11C2053.98 203.86 2048.02 194.92 2035.66 194.99C1974.43 195.32 1786.7 194.91 1720.28 194.88C1647.5 194.84 1642.8 236.74 1635.76 278.6C1629.97 313 1613.78 447.61 1604.46 531.33C1597.03 598.07 1623.24 622.16 1685.85 625.3C1715.92 625.3 1745.93 623.76 1765.15 624.62C1780.28 625.3 1784.98 630.32 1781.76 649.97C1774.01 697.23 1756.52 798.76 1751.59 834.61C1746.37 872.52 1740.24 871.73 1692.11 870.94C1659 869.83 1608.76 868.71 1582.02 868.15C1578.47 868.08 1575.34 868.01 1572.71 867.96C1567.59 867.86 1563.2 871.61 1562.45 876.72L1551.24 953.08Z" fill="white"/>
<path d="M2068.55 631.6L2123.71 205.07C2124.39 199.8 2128.88 195.85 2134.2 195.85H2292.9C2299.27 195.85 2304.19 201.43 2303.39 207.75L2176.16 1211.44C2175.49 1216.72 2171 1220.68 2165.67 1220.68H1991.63C1985.16 1220.68 1980.21 1214.92 1981.17 1208.53L2068.55 631.6Z" fill="white"/>
<path d="M2347.94 1051.8V198.83C2347.94 196.65 2349.72 194.88 2351.92 194.88H2525.1C2527.46 194.88 2529.3 196.9 2529.06 199.22L2499.93 489.18C2499.44 494.01 2506.48 495.28 2507.74 490.59L2586.61 197.81C2587.08 196.08 2588.65 194.88 2590.46 194.88H2741.92C2744.52 194.88 2746.42 197.31 2745.78 199.81L2525.56 1052.78C2525.11 1054.53 2523.52 1055.75 2521.7 1055.75H2351.91C2349.71 1055.75 2347.93 1053.98 2347.93 1051.8H2347.94Z" fill="white"/>
<path d="M2802.49 194.88H3150.08C3152.57 194.88 3154.46 197.06 3154.08 199.47L3129.53 352.64C3129.22 354.57 3127.52 355.99 3125.53 355.99H2957.46C2955.5 355.99 2953.82 357.37 2953.48 359.26L2925.59 511.29C2925.14 513.73 2927.05 515.96 2929.57 515.96H3094.11C3096.59 515.96 3098.48 518.12 3098.11 520.53L3065.99 706.03C3065.69 707.97 3063.99 709.41 3061.99 709.41L2891.72 706.03C2889.76 706.03 2888.09 707.4 2887.74 709.29L2859.86 859.8C2859.41 862.24 2861.32 864.48 2863.84 864.48H3031.55C3034.03 864.48 3035.92 866.64 3035.55 869.05L3002.74 1052.38C3002.44 1054.29 3000.79 1055.71 2998.82 1055.75L2644.43 1054.06C2641.87 1054.11 2639.9 1051.85 2640.36 1049.38L2798.52 198.11C2798.87 196.24 2800.54 194.88 2802.49 194.88Z" fill="white"/>
<path d="M489.24 2113.94L618.5 1284.85C618.76 1283.18 620.45 1281.92 622.45 1281.92H836.67C838.81 1281.92 840.58 1283.35 840.66 1285.16L855.61 1622.74C855.78 1626.48 861.96 1627.23 863.38 1623.69L998.59 1284.22C999.14 1282.85 1000.66 1281.93 1002.37 1281.93H1214.35C1216.75 1281.93 1218.61 1283.7 1218.31 1285.71L1066.04 2303.81C1065.79 2305.49 1064.09 2306.75 1062.08 2306.75H845.03C842.63 2306.75 840.78 2304.98 841.07 2302.97L912.38 1817.66C913 1813.45 905.71 1812.34 904.54 1816.47L869.92 1939.01C869.49 1940.53 867.89 1941.59 866.04 1941.59H750.07C747.81 1941.59 746 1940 746.08 1938.1L759.97 1814.15C760.15 1810.17 752.21 1809.65 751.56 1813.6L695.45 2113.94" fill="white"/>
<path d="M1649.29 1281.92H1265.98C1263.97 1281.92 1262.28 1283.19 1262.03 1284.86L1112.76 2302.98C1112.46 2304.98 1114.31 2306.74 1116.7 2306.74H1310.56C1312.58 2306.74 1314.28 2305.46 1314.51 2303.76L1362.25 1939.91C1362.47 1938.22 1364.15 1936.95 1366.16 1936.93C1389.24 1936.74 1519.54 1935.76 1570.81 1936.96C1627.16 1938.28 1667.86 1899.99 1672.55 1848.48C1677.25 1796.98 1732.03 1408.71 1735.16 1366.44C1738.29 1324.18 1730.46 1281.91 1649.29 1281.91V1281.92ZM1556.72 1485.31C1554.38 1509.74 1534.81 1725.67 1531.53 1740.6C1529.11 1751.66 1516.81 1760.01 1503.51 1760.01H1396.18C1393.74 1760.01 1391.85 1758.21 1392.13 1756.17L1433.43 1459.96C1433.67 1458.22 1435.41 1456.92 1437.48 1456.92H1527.77C1537.94 1456.92 1559.07 1460.88 1556.72 1485.31Z" fill="white"/>
<path d="M2725.66 2302.05L2811.52 1499.15C2811.79 1496.64 2809.87 1494.44 2807.4 1494.44H2659.3C2656.85 1494.44 2654.93 1492.27 2655.18 1489.76L2675.47 1285.74C2675.69 1283.57 2677.47 1281.93 2679.59 1281.93H3190.08C3192.55 1281.93 3194.47 1284.13 3194.2 1286.65L3171.66 1490.67C3171.42 1492.82 3169.65 1494.44 3167.54 1494.44H3029.39C3027.28 1494.44 3025.5 1496.07 3025.27 1498.22L2939.21 2302.97C2938.98 2305.12 2937.21 2306.75 2935.09 2306.75H2729.77C2727.3 2306.75 2725.38 2304.56 2725.65 2302.04L2725.66 2302.05Z" fill="white"/>
<path d="M2343.7 1524.8L2305 1886.4C2304.17 1895.91 2310.82 1904.22 2319.52 1904.55L2554.49 1905.05C2563.11 1905.37 2569.74 1913.55 2569.03 1922.99L2554.91 2127.58C2554.26 2136.18 2547.72 2142.8 2539.86 2142.8H2180.09C2138.41 2142.8 2106.26 2102.54 2111.7 2057.18L2196.83 1347.76C2201.35 1310.09 2230.61 1281.92 2265.22 1281.92H2611.02C2619.84 1281.92 2626.78 1290.18 2626.08 1299.83L2611.69 1496.79C2611.06 1505.46 2604.43 1512.12 2596.51 1512.05L2358.87 1509.79C2351.04 1509.72 2344.45 1516.24 2343.71 1524.8H2343.7Z" fill="white"/>
<path d="M0.0511588 1211.77L156.071 4.33008C156.391 1.86008 158.491 0.0100098 160.981 0.0100098H381.761C384.491 0.0100098 386.711 2.23008 386.711 4.96008V362.74C386.711 368.32 394.511 369.64 396.341 364.36L521.731 3.33008C522.421 1.34008 524.301 0 526.411 0H728.551C731.541 0 733.851 2.6301 733.461 5.6001L461.781 2113.44C461.461 2115.9 459.361 2117.75 456.871 2117.75H276.681C273.691 2117.75 271.381 2115.12 271.771 2112.16L444.141 747.1C444.931 741.04 436.181 739.21 434.471 745.08L394.791 881.57C394.181 883.68 392.241 885.14 390.031 885.14H276.241C273.651 885.14 271.501 883.15 271.301 880.57L269.311 741.92C268.841 735.97 260.191 735.77 259.461 741.7L194.721 1213.01C194.411 1215.49 192.311 1217.35 189.811 1217.35H4.95115C1.96115 1217.35 -0.338851 1214.73 0.0411491 1211.76L0.0511588 1211.77Z" fill="white"/>
</svg>
