<svg width="4013" height="3862" viewBox="0 0 4013 3862" fill="none" xmlns="http://www.w3.org/2000/svg">
<path d="M2952.76 2237.26C2976.48 2207.27 2983.52 2174.4 2999.95 2247.19C3016.38 2319.98 3049.25 2442.06 3105.6 2489.02C3161.95 2535.98 3300.47 2601.72 3524.3 2593.89C3473.92 2582.83 3438.64 2570.34 3415.52 2551.63C3349.78 2498.41 3319.26 2419.86 3272.3 2368.74C3225.34 2317.62 3160.34 2284.34 3124.75 2270.46C3089.16 2256.58 3042.21 2258.93 3018.73 2221.36C2995.25 2183.79 3004.64 2158.38 3065.69 2165.22C3126.74 2172.06 3129.08 2150.93 3258.21 2209.62C3387.34 2268.31 3394.38 2287.1 3481.25 2291.79C3568.12 2296.48 3866.29 2204.92 3995.42 1981.88C3901.51 2068.75 3788.81 2099.27 3708.99 2099.27C3629.17 2099.27 3591.6 2068.75 3500.03 2068.75C3408.46 2068.75 3227.68 2129.79 3199.51 2139.18C3171.34 2148.57 3127.23 2152.7 3119.11 2118.05C3110.99 2083.4 3115.23 2043.11 3119.11 2006.3C3122.99 1969.49 3139.25 1970.92 3172.12 1972.48C3204.99 1974.05 3291.08 1985 3340.38 1975.61C3389.68 1966.22 3454.25 1941.96 3539.95 1893.83C3625.65 1845.7 3811.12 1643.79 3814.65 1552.22C3760.65 1647.31 3697.14 1674.39 3671.43 1682.52C3618.6 1696.61 3542.3 1709.52 3442.52 1715.39C3342.74 1721.26 3260.56 1858.61 3210.09 1892.65C3159.62 1926.69 3136.13 1948.43 3084.48 1948.43C3032.83 1948.43 3048.09 1948.43 3024.61 1948.43C3001.13 1948.43 2989.39 1945.47 3021.09 1923.17C3052.79 1900.87 3238.26 1760 3265.26 1713.04C3292.26 1666.08 3454.26 1358.52 3441.35 1146.04C3406.13 1303.34 3350.96 1339.74 3350.96 1339.74C3350.96 1339.74 3112.66 1522.87 3085.66 1568.65C3058.66 1614.43 3031.43 1651.39 3032.83 1799.91C3032.83 1837.48 2999.48 1940.83 2952.77 1948.43C2906.06 1956.03 2952.77 2237.24 2952.77 2237.24L2952.76 2237.26Z" fill="#64BC46" stroke="#16AA4B" stroke-width="8" stroke-miterlimit="10"/>
<path d="M3014.86 2248.75C3026.02 2264.34 3046.75 2290.38 3068.73 2322.05C3061.36 2358.05 3057.12 2383.94 3057.32 2404.68C3057.56 2430.52 3059.97 2434.63 3061.43 2411.01C3062.49 2393.94 3069.65 2354.99 3076.01 2333.29C3082.65 2343.11 3098.85 2362.43 3123.53 2387.64C3119.73 2432.07 3126.75 2495.66 3130.03 2503.22C3131.06 2494.85 3131.27 2409.57 3135.87 2400.08C3154.9 2418.93 3177.05 2439.36 3200.57 2458.62C3201.11 2468.26 3206.4 2538.89 3216.38 2547.69C3218.74 2549.77 3210.9 2486.06 3215.11 2470.23C3234.71 2485.48 3254.99 2499.59 3274.99 2511.07C3277.23 2520.7 3314.6 2578.49 3315.19 2578.8C3307.81 2563.42 3288.97 2532.04 3288.78 2519.13C3305.9 2527.53 3358.46 2554.32 3374.08 2557.09C3349.04 2545.16 3310.13 2520.44 3298.38 2510.44C3312.86 2505.16 3353.51 2509.27 3371.54 2506.81C3356.87 2506.2 3298.97 2501.63 3285.66 2503.37C3264.59 2489.89 3251.2 2480.27 3229.85 2464.01C3245.6 2458.49 3337.58 2458.25 3334.55 2455.88C3331.52 2453.51 3224.98 2446.23 3211.66 2449.78C3191.08 2433.24 3170.65 2415.3 3150.7 2395.81C3167.85 2386.09 3270.77 2387.46 3288.18 2385.15C3256.09 2378.65 3157.09 2381 3137.78 2382.9C3120.28 2365.01 3103.23 2345.89 3086.85 2325.44C3123.86 2310.61 3166.85 2300.97 3181.55 2297.85C3171.38 2296.68 3115.41 2304.49 3079.55 2315.39C3064.25 2294.12 3022.68 2248.35 3013.41 2207.66C3007.03 2191.22 3007.15 2175.16 3019.61 2170.18C3032.07 2165.2 3034.44 2165.2 3034.44 2165.2L2961.24 2163.43L2953.02 2237.39C2953.02 2237.39 2962.5 2223.22 2973.5 2210.39C2986.8 2194.87 2999.29 2227.01 3014.85 2248.74L3014.86 2248.75Z" fill="#19AB4B"/>
<path d="M3020.6 3268.94C3007.49 3275 3004.17 3261.31 2986.95 3264.67C2942.99 3273.17 2925.39 3285.33 2899.3 3328.68C2885.42 3351.74 2877.19 3389.85 2873.08 3421.74C2868.97 3453.63 2900.27 3446.79 2907.71 3440.72C2915.14 3434.65 2937.64 3427.22 2906.75 3469.27C2882.32 3506.42 2910.25 3529.15 2926.3 3544.02C2942.34 3558.89 2955.64 3563.2 2959.36 3600.37C2963.08 3637.55 2900.67 3658.09 2857.04 3662.2C2813.4 3666.31 2779.95 3641.26 2773.49 3613.48C2767.04 3585.7 2802.84 3539.92 2838.84 3521.92C2923.56 3479.85 2855.47 3500.79 2837.86 3508.22C2820.25 3515.65 2752.56 3555.57 2747.27 3610.55C2741.99 3665.52 2787.77 3674.52 2854.88 3674.13C2921.99 3673.74 2985.58 3635.2 2986.36 3591.18C2987.14 3547.15 2925.71 3518.59 2925.71 3485.13C2925.71 3451.67 2970.9 3395.72 2991.45 3369.5C3011.99 3343.29 3019.04 3311.79 3017.67 3296.52C3016.3 3281.26 3020.01 3280.09 3024.9 3279.11C3035.86 3275.98 3044.86 3272.46 3054.64 3260.52C3091.23 3216.11 3033.71 3262.87 3020.6 3268.94ZM2973.26 3368.59C2919.1 3464.15 2867.73 3414.17 2925.71 3321.63C2961.61 3264.33 3028.43 3271.22 2973.26 3368.59Z" fill="#0E1325"/>
<path d="M355.301 3238.35C379.851 3238.35 426.781 3237.71 454.471 3244.55C456.911 3245.15 457.011 3248.57 454.621 3249.34C418.491 3261.05 398.591 3279.52 386.701 3304.16C386.641 3304.28 386.591 3304.41 386.551 3304.55L368.011 3366.09C367.531 3367.69 368.741 3369.3 370.411 3369.3C421.451 3369.29 412.841 3369.04 431.481 3369.3C450.521 3369.56 519.331 3364.96 535.051 3337.21C571.051 3282.17 589.311 3223.7 650.881 3223.73C670.191 3223.94 676.711 3234.03 678.521 3241.12C679.021 3243.08 677.131 3244.79 675.231 3244.09C637.381 3230.17 626.401 3242.28 610.801 3260.14C610.741 3260.21 610.681 3260.28 610.631 3260.36C565.811 3324.74 528.531 3382.1 526.711 3422.51C526.711 3437.42 526.881 3449.41 527.681 3457.48C528.291 3463.6 534.831 3466.77 540.341 3464.03C565.581 3451.47 578.751 3439.47 599.061 3416.15C600.861 3414.08 604.311 3416.37 603.151 3418.85C593.041 3440.33 590.371 3443.63 562.191 3468.95C541.521 3487.52 489.411 3508.35 489.931 3468.95C490.351 3437.1 506.581 3394.79 512.791 3379.73C513.631 3377.7 511.631 3375.68 509.581 3376.47C491.631 3383.36 470.621 3385.39 443.501 3387.03C418.041 3388.58 374.411 3386.83 363.741 3386.36C362.431 3386.3 361.311 3387.26 361.161 3388.56C358.151 3414.79 315.711 3501.56 236.571 3501.49C181.331 3503.06 147.421 3498.69 147.681 3451.47C147.661 3441.92 149.161 3435.58 150.601 3431.7C151.381 3429.58 154.351 3429.5 155.231 3431.59C161.991 3447.55 178.781 3482.82 228.411 3485.9C228.501 3485.9 228.591 3485.9 228.691 3485.9C250.981 3485.09 316.661 3475.28 336.101 3387.04C336.471 3385.37 335.091 3383.82 333.401 3384.01C312.031 3386.45 294.011 3391.08 275.021 3398.14C272.331 3399.14 270.341 3395.54 272.641 3393.82C284.951 3384.59 305.441 3373.36 337.911 3372.22C339.091 3372.18 340.081 3371.33 340.291 3370.17C343.661 3351.77 362.941 3277.13 405.801 3255.06C408.131 3253.86 407.291 3250.36 404.681 3250.35C335.781 3250.18 248.101 3247.63 228.561 3315.29C225.491 3328.24 225.211 3339.86 225.381 3346.36C225.441 3348.49 222.941 3349.71 221.301 3348.34C209.781 3338.65 204.641 3328.97 205.341 3312.42C206.121 3293.9 219.431 3238.33 355.341 3238.33L355.301 3238.35Z" fill="#0E1325"/>
<path d="M745.82 3375.83C777.65 3359.39 814.95 3335.65 797.47 3316.61C780 3297.58 751.84 3309.03 713.51 3348.13C713.48 3348.16 713.46 3348.18 713.44 3348.21C712.79 3349 701.94 3362.06 687.65 3380.26C672.91 3399.04 664.3 3397.09 651.78 3399.57C602.99 3410.13 641.34 3409.35 649.82 3408.17C657.25 3407.15 659.97 3407.22 669.28 3405.42C670.49 3405.19 671.28 3406.65 670.42 3407.53C664.09 3414 650.76 3431.02 650.86 3459.57C651 3498.95 698.32 3501.04 743.96 3460.64C743.98 3460.62 744 3460.6 744.02 3460.58C799.43 3407 773.72 3423.05 739.04 3452.78C704.34 3482.52 682.95 3475.48 681.39 3439.74C679.82 3404 713.99 3392.26 745.82 3375.83ZM734.08 3350.65C780.44 3309.48 791.21 3335 745.23 3365.33C699.26 3395.65 683.41 3395.65 734.08 3350.65Z" fill="#0E1325"/>
<path d="M2582.41 3352.62C2614.24 3336.18 2651.54 3312.44 2634.06 3293.4C2616.59 3274.37 2588.43 3285.82 2550.1 3324.92C2550.07 3324.95 2550.05 3324.97 2550.03 3325C2549.38 3325.79 2538.53 3338.85 2524.24 3357.05C2509.5 3375.83 2500.89 3373.88 2488.37 3376.36C2439.58 3386.92 2477.93 3386.14 2486.41 3384.96C2493.84 3383.94 2496.56 3384.01 2505.87 3382.21C2507.08 3381.98 2507.87 3383.44 2507.01 3384.32C2500.68 3390.79 2487.35 3407.81 2487.45 3436.36C2487.59 3475.74 2534.91 3477.83 2580.55 3437.43C2580.57 3437.41 2580.59 3437.39 2580.61 3437.37C2667.12 3356.52 2640.12 3378.83 2575.63 3429.57C2539.71 3457.83 2519.54 3452.27 2517.98 3416.53C2516.41 3380.79 2550.58 3369.05 2582.41 3352.62ZM2570.67 3327.44C2617.03 3286.27 2627.8 3311.79 2581.82 3342.12C2535.85 3372.44 2520 3372.44 2570.67 3327.44Z" fill="#0E1325"/>
<path d="M990.001 3459.67C929.541 3501.54 959.281 3425.43 976.891 3384.34C976.891 3384.34 993.721 3351.28 1003.5 3338.36C1038.13 3296.69 1018.37 3296.3 998.021 3313.32C980.411 3327.21 973.371 3324.86 966.721 3320.95C960.061 3317.04 951.261 3311.95 932.281 3315.08C894.331 3321.93 861.461 3342.28 817.831 3445.19C774.201 3548.1 884.931 3476.69 907.831 3449.3C930.721 3421.91 938.141 3424.63 930.721 3439.71C922.041 3457.35 924.471 3467.35 927.201 3474.54C942.851 3503.3 967.301 3491.17 991.961 3474.54C1016.61 3457.91 1050.46 3417.8 990.001 3459.67ZM888.461 3443.04C853.761 3472.51 839.151 3468.34 849.521 3437.17C857.341 3413.67 885.071 3364.78 902.321 3347.36C919.561 3329.95 929.351 3318.01 948.911 3332.1C957.911 3339.34 965.931 3336.01 969.651 3335.04C975.911 3332.69 982.961 3333.47 974.151 3346.38C965.351 3359.3 956.541 3372.8 956.541 3372.8C943.441 3390.35 911.411 3423.54 888.461 3443.04Z" fill="#0E1325"/>
<path d="M1110.85 3338.3C1139.42 3267.87 1166.81 3241.65 1229.81 3221.69C1268.94 3209.17 1269.72 3222.28 1229.81 3238.12C1186.89 3255.16 1174.64 3266.69 1145.68 3338.29C1109.68 3431.03 1098.33 3500.68 1171.51 3440.42C1244.69 3380.16 1207.12 3427.51 1174.25 3453.33C1141.38 3479.15 1078.38 3515.55 1083.08 3451.37C1087.78 3387.19 1110.86 3338.28 1110.86 3338.28L1110.85 3338.3Z" fill="#0E1325"/>
<path d="M1275.65 3322.61C1291.3 3322.87 1300.95 3322.61 1300.95 3322.61C1332.25 3239.13 1331.47 3230.52 1355.73 3221.39C1379.99 3212.26 1394.86 3213.82 1373.73 3226.35C1364.34 3232.35 1336.43 3271.19 1324.43 3322.73C1324.69 3323.14 1380.26 3322.73 1380.26 3322.73L1379.74 3336.18H1321.83C1312.18 3366.18 1303.57 3401.66 1304.87 3422.79C1306.17 3443.92 1311.91 3464.27 1344.26 3430.36C1386.78 3387.58 1409.74 3384.19 1352.87 3437.4C1319.74 3466.1 1279.57 3493.23 1273.57 3437.4C1271.22 3406.62 1297.31 3334.88 1297.31 3334.88L1251.4 3334.1V3322.36L1275.66 3322.62L1275.65 3322.61Z" fill="#0E1325"/>
<path d="M3074.09 3309.1C3089.74 3309.36 3099.39 3309.1 3099.39 3309.1C3130.69 3225.62 3129.91 3217.01 3154.17 3207.88C3178.43 3198.75 3193.3 3200.31 3172.17 3212.84C3162.78 3218.84 3134.87 3257.68 3122.87 3309.22C3123.13 3309.63 3178.7 3309.22 3178.7 3309.22L3178.18 3322.67H3120.27C3110.62 3352.67 3102.01 3388.15 3103.31 3409.28C3104.61 3430.41 3110.35 3450.76 3142.7 3416.85C3185.22 3374.07 3208.18 3370.68 3151.31 3423.89C3118.18 3452.59 3078.01 3479.72 3072.01 3423.89C3069.66 3393.11 3095.75 3321.37 3095.75 3321.37L3049.84 3320.59V3308.85L3074.1 3309.11L3074.09 3309.1Z" fill="#0E1325"/>
<path d="M2164.69 3309.1C2180.34 3309.36 2189.99 3309.1 2189.99 3309.1C2221.29 3225.62 2220.51 3217.01 2244.77 3207.88C2269.03 3198.75 2283.9 3200.31 2262.77 3212.84C2253.38 3218.84 2225.47 3257.68 2213.47 3309.22C2213.73 3309.63 2269.3 3309.22 2269.3 3309.22L2268.78 3322.67H2210.87C2201.22 3352.67 2192.61 3388.15 2193.91 3409.28C2195.21 3430.41 2200.95 3450.76 2233.3 3416.85C2275.82 3374.07 2298.78 3370.68 2241.91 3423.89C2208.78 3452.59 2168.61 3479.72 2162.61 3423.89C2160.26 3393.11 2186.35 3321.37 2186.35 3321.37L2140.44 3320.59V3308.85L2164.7 3309.11L2164.69 3309.1Z" fill="#0E1325"/>
<path d="M1465.04 3370.07C1468.17 3340.27 1470.78 3330.42 1476.52 3308.5C1482.26 3286.58 1499.56 3249.77 1535.48 3227.11C1564.83 3208.59 1586.61 3207.54 1602.78 3227.11C1624.17 3254.24 1615.36 3261.82 1594.43 3238.07C1581.39 3224.5 1559.69 3228.64 1540.07 3245.9C1520.45 3263.16 1513.04 3271.2 1498.43 3316.86C1494 3331.21 1484.41 3355.21 1510.04 3329.32C1533.13 3304.67 1605.32 3300.17 1598.61 3377.91C1590.26 3444.69 1581.39 3456.17 1567.31 3477.56C1553.23 3498.95 1540.7 3503.65 1556.35 3466.08C1564.7 3444.69 1586.61 3377.95 1565.74 3342.71C1555.31 3325.73 1529.74 3318.28 1503.13 3354.09C1490.61 3372.69 1467.26 3415.73 1468.7 3437.9C1470.79 3466.6 1467.79 3468.16 1450.44 3476.25C1438.18 3481.73 1411.57 3495.82 1439.22 3456.95C1451.74 3438.82 1450.21 3430.58 1457.74 3405.56C1462.17 3390.82 1465.04 3370.08 1465.04 3370.08V3370.07Z" fill="#0E1325"/>
<path d="M2738.22 3292.93C2730.98 3308.78 2726.68 3325.8 2747.35 3305.1C2787.52 3268.87 2850.13 3252.63 2835.92 3353.69C2827.57 3420.47 2818.7 3431.95 2804.62 3453.34C2790.54 3474.73 2778.01 3479.43 2793.66 3441.86C2802.01 3420.47 2826.79 3346.95 2805.92 3311.71C2795.49 3294.73 2767.05 3294.06 2740.44 3329.87C2727.92 3348.47 2704.57 3391.51 2706.01 3413.68C2708.1 3442.38 2705.1 3443.94 2687.75 3452.03C2675.49 3457.51 2638.05 3478.8 2676.53 3432.73C2689.05 3414.6 2687.52 3406.36 2695.05 3381.34C2699.48 3366.6 2702.35 3345.86 2702.35 3345.86C2707.87 3315.29 2718.59 3284.4 2707.76 3285.73C2682.37 3288.86 2646.39 3288.43 2709 3271.6C2755.17 3257.9 2752.04 3266.62 2738.22 3292.93Z" fill="#0E1325"/>
<path d="M3247.82 3345.86C3250.95 3316.06 3253.56 3306.21 3259.3 3284.29C3265.04 3262.37 3282.34 3225.56 3318.26 3202.9C3347.61 3184.38 3369.39 3183.33 3385.56 3202.9C3406.95 3230.03 3398.14 3237.61 3377.21 3213.86C3364.17 3200.29 3342.47 3204.43 3322.85 3221.69C3303.87 3238.39 3295.82 3246.99 3281.21 3292.65C3276.78 3307 3267.19 3331 3292.82 3305.11C3315.91 3280.46 3388.1 3275.96 3381.39 3353.7C3373.04 3420.48 3364.17 3431.96 3350.09 3453.35C3336.01 3474.74 3323.48 3479.44 3339.13 3441.87C3347.48 3420.48 3369.39 3353.74 3348.52 3318.5C3338.09 3301.52 3312.52 3294.07 3285.91 3329.88C3273.39 3348.48 3250.04 3391.52 3251.48 3413.69C3253.57 3442.39 3250.57 3443.95 3233.22 3452.04C3220.96 3457.52 3194.35 3471.61 3222 3432.74C3234.52 3414.61 3232.99 3406.37 3240.52 3381.35C3244.95 3366.61 3247.82 3345.87 3247.82 3345.87V3345.86Z" fill="#0E1325"/>
<path d="M1817.61 3351.98C1842.28 3352.47 1874.05 3348.76 1870.96 3330.17C1867.87 3311.58 1875.39 3308.26 1880.09 3325.21C1884.79 3342.16 1882.18 3355.73 1857.13 3361.21C1843.83 3364.08 1825.3 3366.17 1825.3 3366.17C1825.82 3394.08 1802.34 3432.43 1753.3 3432.17C1722.26 3431.65 1693.56 3419.39 1693.3 3390.43C1694.34 3365.13 1700.34 3345.04 1731.39 3334.86C1724.09 3316.34 1725.65 3295.99 1755.91 3291.82C1772.34 3289.99 1779.52 3294.04 1783.3 3301.21C1787.08 3308.38 1781.47 3328.08 1774.17 3308.78C1770.78 3298.08 1752.78 3299.13 1746.52 3306.17C1740.26 3313.21 1738.69 3327.04 1748.35 3332.52C1756.44 3338 1759.83 3352.09 1742.09 3347.13C1731.13 3342.43 1707.92 3354.7 1707.66 3385.22C1707.4 3415.74 1744.96 3415.48 1752.01 3415.22C1759.06 3414.96 1810.18 3414.44 1812.27 3367.22C1801.05 3367.74 1770.79 3365.13 1763.75 3384.96C1756.71 3404.79 1721.23 3350.06 1817.62 3351.99L1817.61 3351.98Z" fill="#0E1325"/>
<path d="M2015.48 3359.65C1982.69 3337.87 1958.61 3321.04 1961.22 3276.69C1963.83 3232.34 1990.96 3204.17 2031.13 3204.17C2071.3 3204.17 2107.76 3228.17 2107.37 3247.54C2107.55 3256.14 2107.56 3279.03 2093.43 3299.8C2092.29 3301.47 2089.69 3300.6 2089.78 3298.59C2091.06 3271.32 2081.46 3219.25 2031.84 3220.15C1977.64 3221.13 1983.32 3268.28 1983.32 3271.41C1985.47 3310.54 2093.08 3344.78 2093.08 3404.65C2093.08 3464.52 2006.6 3468.82 1990.95 3468.82C1938.52 3468.04 1911.52 3454.34 1910.34 3405.04C1909.16 3355.74 1914.64 3361.78 1927.56 3413.26C1934.55 3441.11 1982.73 3460.22 2052.69 3432.21C2052.75 3432.18 2052.81 3432.15 2052.87 3432.12C2069.68 3422.6 2089.56 3408.86 2015.48 3359.65Z" fill="#0E1325"/>
<path d="M2363.87 3380C2368.08 3360.41 2370.13 3338.33 2369.74 3321.3C2369.35 3304.27 2369.94 3292.54 2356.44 3304.67C2344.31 3316.02 2335.31 3308.39 2348.42 3297.82C2361.53 3287.25 2400.07 3263.19 2396.94 3299.78C2393.81 3336.37 2387.94 3351.63 2417.48 3308C2448.39 3265.15 2482.83 3269.26 2492.61 3296.46C2495.35 3304.09 2501.02 3319.16 2497.5 3333.24C2492.41 3346.54 2485.17 3332.07 2484.2 3325.22C2481.07 3304.68 2452.9 3289.42 2431.57 3314.85C2410.24 3340.28 2386.37 3356.33 2377.37 3414.24C2373.26 3435.57 2373.26 3440.36 2354.09 3456.35C2346.85 3461.78 2323.76 3468.24 2343.33 3444.76C2357.22 3426.96 2363.5 3381.72 2363.87 3380Z" fill="#0E1325"/>
<path d="M1925.22 3642.95C2132.01 3666.47 2991.52 3750.17 3106.57 3739.6C3221.62 3729.03 3570.27 3731.38 3671.22 3446.12C3701.74 3329.9 3675.92 3227.77 3539.74 3147.95C3445.83 3095.12 3265.04 3073.99 3177 3115.08C3186.39 3092.78 3333.39 3067.21 3386.87 3068.51C3440.35 3069.81 3550.7 3090.42 3619.57 3150.68C3688.44 3210.94 3749.48 3275.9 3747.14 3369.03C3744.8 3462.16 3670.44 3558.42 3623.49 3594.42C3576.54 3630.42 3460.71 3706.33 3333.92 3728.25C3207.13 3750.17 3011.49 3760.34 2912.09 3752.51C2912.09 3752.51 2022.26 3679.73 1925.22 3659.77C1828.18 3639.81 1255.31 3577.6 1110.92 3582.29C1001.75 3586.99 671.88 3558.81 534.53 3571.72C439.44 3578.76 66.1405 3582.29 99.0105 3738.42C123.66 3801.81 216.401 3894.55 430.051 3812.38C403.051 3844.08 346.7 3859.34 243.4 3861.68C140.1 3864.02 47.3605 3791.25 48.5305 3737.25C49.7005 3683.25 87.2705 3606.95 278.621 3582.29C469.971 3557.63 690.201 3552.94 801.951 3556.46C913.701 3559.98 1259.94 3570.55 1386.76 3581.11C1513.58 3591.67 1852.93 3634.71 1925.23 3642.94L1925.22 3642.95Z" fill="#0E1325"/>
<path d="M0 496.22H98.61L124.43 577.04L159.65 442.22L169.04 509.13L244.17 498.56V588.78L389.74 29L439.04 821.22L558.78 364.74L572.87 557.26L596.35 498.56L736.32 493.87L802.96 275.52L831.13 590.13L875.29 402.3L894.52 484.48L2831.48 498.56L2863.18 424.61L2869.24 517.35L2892.52 444.56V486.82L2974.69 489.17L2998.17 390.56L3024 630.04L3125.75 254.39L3155.48 566.65L3186 463.35L3242.35 999.65L3418.43 303.69L3464.71 651.17L3521.74 437.52L3538.17 503.26L3777.65 500.91" stroke="#00A79D" stroke-width="9" stroke-miterlimit="10"/>
<path d="M1620 432.788L2414.74 424.078V569.748L1620 585.118V432.788Z" fill="#726658" stroke="#58595B" stroke-width="9" stroke-miterlimit="10"/>
<path d="M1584.67 1948.44H1211.25C1209.29 1948.44 1207.65 1949.67 1207.4 1951.31L1061.98 2943.16C1061.69 2945.11 1063.49 2946.83 1065.82 2946.83H1254.68C1256.65 2946.83 1258.3 2945.58 1258.53 2943.93L1305.04 2589.47C1305.25 2587.83 1306.89 2586.59 1308.85 2586.57C1331.33 2586.39 1458.27 2585.43 1508.22 2586.59C1563.12 2587.88 1602.77 2550.57 1607.34 2500.39C1611.92 2450.22 1665.29 2071.96 1668.33 2030.79C1671.38 1989.62 1663.75 1948.44 1584.68 1948.44H1584.67ZM1494.49 2155.35C1492.21 2179.15 1465.35 2380.74 1462.16 2395.28C1459.8 2406.06 1447.82 2414.19 1434.86 2414.19H1338.09C1335.71 2414.19 1333.87 2412.44 1334.14 2410.45L1372.43 2129.68C1372.66 2127.99 1374.36 2126.72 1376.38 2126.72L1466.29 2127.69C1476.2 2127.69 1496.78 2131.55 1494.49 2155.35Z" fill="#0E1325"/>
<path d="M3113.54 2066.66L3102.84 2163.44C3102.84 2163.44 3176.29 2165.53 3217.77 2173.87C3240.23 2178.39 3263.68 2180.39 3303.34 2185.61C3310.09 2186.5 3317.4 2187.43 3325.14 2188.37C3329.24 2200.81 3359.76 2254.03 3373.06 2264.84C3361.71 2244.44 3340.79 2207.69 3341.69 2190.04C3365.9 2192.68 3395.02 2195.44 3422.31 2196.78C3434.35 2212.21 3506.3 2285.26 3523.09 2289.06C3498.47 2269.87 3440.04 2209.09 3445.24 2197.55C3447.81 2197.59 3450.34 2197.61 3452.82 2197.61C3485.69 2197.61 3514.54 2197.25 3541.47 2195.87C3557.95 2213.78 3625.26 2253.44 3645.7 2255.78C3621.86 2244.83 3562.13 2207.52 3561.61 2194.62C3595.12 2192.14 3626.34 2187.73 3659.74 2180.02C3666.47 2189 3724.38 2213.26 3736.64 2213.52C3713.68 2204.13 3682.64 2188.48 3674.05 2176.55C3701.96 2169.46 3731.75 2160.03 3765.86 2147.52C3735.22 2155.21 3708.74 2161.45 3684.82 2166.49C3687.86 2146.99 3708.46 2113.34 3715.25 2101.08C3700.38 2118.04 3671.68 2158.99 3665.76 2170.36C3629.48 2177.42 3598.69 2181.57 3566.83 2183.82C3574.11 2164.73 3609.85 2121.95 3634.11 2093.25C3618.46 2104.47 3554.81 2172.82 3548.09 2184.92C3519.59 2186.28 3489.3 2186.33 3452.8 2185.75C3452.24 2185.75 3451.67 2185.73 3451.11 2185.72C3455.94 2157.68 3507.33 2086.2 3520.37 2070.55C3505.24 2080.46 3441.59 2163.42 3430.55 2184.51C3406.63 2182.57 3372.01 2178.69 3343.5 2175.68C3352.92 2147.73 3375.33 2109.94 3398.57 2082.65C3367.24 2108.63 3335.32 2159.09 3329.22 2175.35C3322.69 2174.62 3309.04 2172.82 3304.63 2172.28C3287.21 2170.18 3259.76 2168.11 3227.28 2163.41C3202.11 2159.77 3159.32 2150.63 3145.5 2145.41C3127.48 2136.39 3107.2 2128.71 3113.53 2066.63L3113.54 2066.66Z" fill="#16AB4B"/>
<path d="M3125.56 2003.09C3134.54 1969.7 3144.34 1964.22 3180.34 1950.92C3200.11 1943.61 3247.91 1928.37 3289.98 1918.97C3303.71 1935.61 3344.95 1969.97 3356.1 1972.43C3345.22 1965.79 3303.71 1924.65 3302.62 1916.1C3324.52 1911.03 3342.33 1905.75 3356.82 1900.84C3361.14 1899.38 3366.05 1897.57 3371.43 1895.47C3381.61 1905.92 3431.82 1929.66 3459.46 1937.49C3441.74 1929.15 3391.78 1908.02 3384.43 1890.24C3405.91 1881.34 3432.22 1869.32 3457.92 1856.76C3472.26 1864.59 3534.87 1886.24 3556.52 1887.85C3538.27 1881.54 3479.83 1861.45 3470.58 1850.5C3502.07 1834.75 3531.24 1818.8 3547.64 1807.53C3550.09 1805.85 3556.36 1801.93 3558.88 1800.15C3566.3 1803.71 3628.01 1814.5 3646.58 1813.78C3629.58 1810.85 3589.92 1805.89 3569.49 1791.95C3607.88 1763.71 3648.46 1730 3657.2 1723.01C3638.41 1736.6 3595.21 1765.76 3566.46 1784.41C3567.74 1768.06 3585.22 1712.76 3589.66 1699.98C3583.92 1708.07 3557.05 1780.85 3556.5 1790.82C3550.18 1794.84 3545.13 1797.96 3542.03 1799.71C3535.38 1803.47 3504.65 1820.25 3467.81 1838.7C3468.36 1820.76 3498.98 1709.34 3497.3 1710.18C3486.89 1729.2 3457.15 1832.51 3456.21 1844.46C3431.51 1856.62 3405 1868.99 3381.65 1878.43C3377.19 1859.77 3395.97 1750.2 3400.66 1730.25C3389.7 1754.9 3368.57 1873.08 3368.11 1883.7C3362.82 1885.67 3357.77 1887.43 3353.03 1888.94C3344.56 1891.64 3323.12 1898 3301.86 1903.79C3295.5 1885.94 3302.71 1825.2 3305.55 1803.83C3295.4 1825.2 3290.16 1885.8 3289.82 1906.76C3232.15 1922.12 3151.68 1944.33 3127.14 1944.68C3090.41 1945.2 3125.57 2003.11 3125.57 2003.11L3125.56 2003.09Z" fill="#19AB4B"/>
<path d="M2956.56 1943.35C2956.56 1943.35 3031.51 1950.57 3021.78 1945.44C3003 1935.53 3004.26 1932.57 3033.78 1900.05C3068.06 1862.28 3112.78 1792.99 3134.74 1763.62C3155.22 1764.14 3215.35 1760.23 3227.79 1755.64C3213.78 1757.88 3158.34 1756.52 3143.29 1751.68C3155.74 1733.97 3175.83 1703.89 3194.93 1674.04C3225.45 1672.96 3276.58 1672.76 3296.56 1663.06C3278.93 1666.7 3227.8 1667.88 3203.86 1660C3218.09 1637.43 3230.96 1616.17 3238.57 1601.87C3271.5 1591.96 3334.7 1564.17 3348.13 1553.95C3331.57 1561.63 3266.41 1586.68 3246.48 1587.19C3259.19 1563.75 3279.97 1525.85 3300.31 1488.5C3321.52 1482.14 3381.79 1453.45 3391.23 1445.57C3372.13 1454.23 3318.91 1477.97 3306.56 1477C3332.39 1429.47 3356.05 1385.37 3359.6 1376.23C3348.07 1397.54 3325.69 1435.08 3302.59 1473.19C3298.82 1462.32 3292.04 1406.76 3290.22 1386.28C3288.39 1397.1 3294.39 1470.93 3296.88 1482.59C3273.02 1521.85 3249.28 1560.33 3236.76 1580.9C3230.01 1557.14 3220.43 1463.61 3218.4 1444.51C3216.9 1464.59 3224.93 1570.63 3229.17 1593.53C3224.05 1602.3 3209.29 1624.8 3192.23 1650.3C3178.04 1633.71 3144.91 1526.75 3139.76 1512.43C3142.04 1530.66 3173.08 1647.01 3183.08 1663.94C3163.4 1693.18 3142.45 1723.81 3130.4 1740.95C3088.56 1704.15 3073.61 1625.41 3067.64 1609.73C3069.52 1630.07 3097.17 1732.59 3121.17 1753.72C3106.35 1772.29 3044.63 1856.7 3021.26 1885.46C2997.89 1914.22 2996.22 1927.2 2956.56 1943.37V1943.35Z" fill="#19AB4B"/>
<path d="M2726.6 2949.94C2735.47 2964.03 2747.67 2953.53 2728.88 2985.22C2710.09 3016.91 2724.77 3003.22 2725.75 3011.63C2726.73 3020.04 2734.95 3011.04 2722.62 3040.98C2710.29 3070.92 2717.53 3039.61 2720.47 3030.41C2723.41 3021.21 2720.08 3014.17 2716.56 3014.76C2713.04 3015.35 2707.56 3001.65 2705.21 3015.15C2702.86 3028.65 2707.36 3020.24 2705.21 3034.32C2703.06 3048.4 2697.58 3045.67 2701.88 3056.04C2706.18 3066.41 2701.88 3079.52 2699.34 3072.28C2696.8 3065.04 2696.99 3059.95 2693.08 3049.19C2689.17 3038.43 2690.54 3031.97 2686.23 3035.69C2681.92 3039.41 2679.19 3036.28 2679.58 3050.76C2679.97 3065.24 2683.1 3061.59 2677.43 3074.37C2671.76 3087.15 2673.52 3077.57 2677.43 3097.33C2681.34 3117.09 2689.17 3110.44 2683.1 3124.13C2677.03 3137.82 2679.97 3132.35 2685.45 3146.63C2690.93 3160.91 2701.3 3169.91 2692.69 3177.35C2684.08 3184.79 2685.84 3185.18 2685.06 3192.42C2684.28 3199.66 2673.26 3202.01 2676.61 3192.42C2679.96 3182.83 2682.51 3178.72 2681.92 3173.25C2681.33 3167.78 2683.29 3163.66 2677.42 3156.23C2671.55 3148.8 2675.46 3139.8 2670.38 3141.16C2665.3 3142.52 2668.81 3145.86 2665.1 3153.68C2661.39 3161.5 2657.47 3169.72 2656.1 3160.92C2654.73 3152.12 2657.08 3148.59 2660.6 3138.42C2664.12 3128.25 2674.1 3124.92 2669.99 3116.7C2665.88 3108.48 2660.01 3103.98 2658.84 3091.27C2657.67 3078.56 2660.01 3076.2 2653.36 3062.7C2646.71 3049.2 2648.86 3045.09 2653.36 3034.33C2657.86 3023.57 2665.69 3014.37 2670.77 2999.11C2675.85 2983.85 2688.97 2990.89 2689.16 2977.39C2689.35 2963.89 2697.18 2968 2692.49 2954.3C2687.8 2940.6 2675.47 2918.69 2684.27 2924.17C2693.07 2929.65 2707.55 2921.24 2715.38 2930.43C2723.21 2939.62 2726.6 2949.93 2726.6 2949.93V2949.94Z" fill="#9B8579" stroke="#726658" stroke-width="5" stroke-miterlimit="10"/>
<path d="M2885.58 2833.14C2885.58 2833.14 2886.69 2855.7 2899.74 2863C2912.79 2870.3 2912.78 2875 2911.74 2894.83C2910.7 2914.66 2907.04 2937.09 2915.39 2946.48C2923.74 2955.87 2932.2 2961.09 2932.92 2981.44C2933.64 3001.79 2923.32 3022.14 2932.92 3033.61C2942.52 3045.08 2950.86 3068.04 2958.69 3076.39C2966.52 3084.74 2952.95 3083.17 2961.82 3092.56C2970.69 3101.95 2979.56 3102.47 2975.91 3117.08C2972.26 3131.69 2975.39 3137.95 2967.56 3117.08C2959.73 3096.21 2953.47 3085.78 2950.86 3100.38C2948.25 3114.98 2943.56 3116.76 2948.77 3127.61C2953.98 3138.46 2956.6 3143.16 2962.34 3155.68C2968.08 3168.2 2961.82 3163.25 2964.17 3172.64C2966.52 3182.03 2957.91 3177.07 2956.34 3164.81C2954.77 3152.55 2951.12 3137.68 2947.47 3148.38C2943.82 3159.08 2939.12 3186.73 2936.51 3186.21C2933.9 3178.64 2936.51 3167.43 2934.68 3158.04C2932.85 3148.65 2936.8 3158.3 2939.52 3146.3C2942.24 3134.3 2944.1 3136.39 2939.52 3122.3C2934.94 3108.21 2941.2 3117.6 2943.55 3106.91C2945.9 3096.22 2954.51 3090.74 2949.29 3081.08C2944.07 3071.42 2946.42 3068.04 2940.94 3063.6C2935.46 3059.16 2934.94 3072.47 2937.29 3076.38C2939.64 3080.29 2934 3087.34 2935.66 3090.27C2937.32 3093.2 2934.88 3097.8 2930.38 3089.29C2925.88 3080.78 2932.83 3083.81 2930.67 3080.09C2928.51 3076.37 2921.08 3081.26 2923.72 3086.06C2926.36 3090.86 2921.27 3096.43 2923.43 3103.08C2925.59 3109.73 2919.03 3124.01 2919.03 3113.74C2919.03 3103.47 2915.9 3102.98 2916.19 3094.96C2916.48 3086.94 2918.15 3078.53 2918.54 3072.66C2918.93 3066.79 2923.24 3067.08 2920.79 3056.13C2918.34 3045.18 2920.89 3048.4 2916.88 3037.25C2912.87 3026.1 2918.64 3026.1 2910.91 3020.13C2903.18 3014.16 2906.7 3012.99 2901.71 3006.92C2896.72 3000.85 2900.34 2995.38 2895.35 2993.81C2890.36 2992.24 2893.2 2989.41 2886.84 3000.85C2880.48 3012.29 2880.29 3008.09 2877.35 3015.13C2874.41 3022.17 2866.98 3029.9 2868.64 3034.99C2870.3 3040.08 2871.38 3053.48 2874.71 3057.1C2878.04 3060.72 2866.1 3064.14 2867.37 3071.19C2868.64 3078.24 2862.09 3079.9 2875.49 3085.08C2888.89 3090.26 2885.08 3089.97 2890.56 3098.68C2896.04 3107.39 2881.46 3102.01 2888.8 3113.06C2896.14 3124.11 2893.1 3123.82 2896.72 3129.4C2900.34 3134.98 2895.25 3139.08 2897.4 3142.41C2899.55 3145.74 2893 3142.21 2890.65 3140.26C2888.3 3138.31 2892.7 3137.03 2892.02 3135.08C2891.34 3133.13 2888.4 3132.83 2888.2 3127.06C2888 3121.29 2887.71 3121.29 2886.24 3125.2C2884.77 3129.11 2881.35 3128.92 2885.07 3137.23C2888.79 3145.54 2883.99 3145.15 2881.84 3147.4C2879.69 3149.65 2881.25 3143.29 2877.54 3137.32C2873.83 3131.35 2876.95 3132.92 2875.19 3123.43C2873.43 3113.94 2881.84 3116.58 2879.3 3109.25C2876.76 3101.92 2881.75 3100.74 2871.28 3095.55C2860.81 3090.36 2862.87 3085.96 2861.69 3093.98C2860.51 3102 2866.39 3103.08 2862.86 3108.95C2859.33 3114.82 2860.02 3121.57 2854.15 3111.98C2848.28 3102.39 2857.57 3099.46 2854.64 3092.9C2851.71 3086.34 2856.69 3081.85 2855.72 3075.29C2854.75 3068.73 2861.98 3066.78 2859.54 3059.83C2857.1 3052.88 2865.61 3057.87 2861.5 3051.22C2857.39 3044.57 2857 3049.56 2856.22 3037.33C2855.44 3025.1 2862.19 3033.91 2860.92 3024.42C2859.65 3014.93 2864.15 3012 2860.53 3004.46C2856.91 2996.92 2864.15 3004.17 2857.01 2986.66C2849.87 2969.15 2867.58 2986.86 2860.14 2971.3C2852.7 2955.74 2850.55 2963.47 2852.9 2954.77C2855.25 2946.07 2851.43 2948.34 2855.05 2945.57C2858.67 2942.8 2862.78 2949.09 2869.33 2943.52C2875.88 2937.95 2877.44 2936.85 2877.06 2926.01C2876.68 2915.17 2881.27 2912.12 2879.7 2901.46C2878.13 2890.8 2881.85 2899.41 2881.07 2879.45C2880.29 2859.49 2877.25 2875.05 2878.43 2865.36C2879.61 2855.67 2883.41 2821.04 2885.57 2833.12L2885.58 2833.14Z" fill="#9B8579" stroke="#726658" stroke-width="5" stroke-miterlimit="10"/>
<path d="M852.388 891.448C850.588 891.448 849.038 892.688 848.638 894.438L741.048 1370.25L626.588 1885.16C626.058 1887.56 627.878 1889.84 630.338 1889.84H781.418C783.218 1889.84 784.788 1888.58 785.168 1886.82L844.888 1614.76C845.268 1613.03 846.788 1611.78 848.558 1611.74L888.078 1610.87C890.228 1610.82 892.008 1612.56 892.008 1614.71V1736.94C892.008 1739.06 893.728 1740.78 895.848 1740.78H1046.78C1048.89 1740.78 1050.6 1739.08 1050.62 1736.97L1058.18 895.318C1058.2 893.178 1056.47 891.438 1054.34 891.438H852.378L852.388 891.448ZM857.998 1539.55L882.618 1455.14C883.818 1451.03 889.828 1451.67 890.138 1455.94L896.288 1540.35C896.448 1542.58 894.688 1544.47 892.458 1544.47H861.688C859.128 1544.47 857.278 1542.01 857.998 1539.55Z" fill="#0E1325"/>
<path d="M1828.12 1948.45C1826.32 1948.45 1824.77 1949.69 1824.37 1951.44L1716.78 2427.25L1602.32 2942.16C1601.79 2944.56 1603.61 2946.84 1606.07 2946.84H1757.15C1758.95 2946.84 1760.52 2945.58 1760.9 2943.82L1820.62 2671.76C1821 2670.03 1822.52 2668.78 1824.29 2668.74L1863.81 2667.87C1865.96 2667.82 1867.74 2669.56 1867.74 2671.71V2793.94C1867.74 2796.06 1869.46 2797.78 1871.58 2797.78H2022.51C2024.62 2797.78 2026.33 2796.08 2026.35 2793.97L2033.91 1952.32C2033.93 1950.18 2032.2 1948.44 2030.07 1948.44H1828.11L1828.12 1948.45ZM1833.73 2596.55L1858.35 2512.14C1859.55 2508.03 1865.56 2508.67 1865.87 2512.94L1872.02 2597.35C1872.18 2599.58 1870.42 2601.47 1868.19 2601.47H1837.42C1834.86 2601.47 1833.01 2599.01 1833.73 2596.55Z" fill="#0E1325"/>
<path d="M1105.58 1638.98L1092.09 1728.63C1091.17 1734.76 1095.81 1740.3 1101.88 1740.3H1424.27C1476.11 1740.3 1493.65 1712.24 1501.27 1640.54C1508.89 1568.84 1547.48 1319.51 1559.21 1225.92C1563.02 1195.52 1548.92 1180.72 1533.29 1179.94C1513.55 1178.96 1397.72 1180 1376.99 1180.44C1363.65 1180.72 1357.55 1182.28 1358.31 1168.25C1359.62 1144.14 1367.36 1098.82 1368.67 1079.02C1369.14 1072 1373.18 1068.46 1380.8 1068.39C1417.1 1068.05 1528.65 1067.2 1551.22 1068.5C1578.26 1070.06 1579.79 1037.33 1582.84 1003.03C1584.86 980.315 1590.23 938.425 1593.62 912.745C1595.35 899.675 1589.54 890.845 1577.49 890.915C1517.84 891.245 1334.95 890.835 1270.24 890.805C1199.34 890.765 1194.76 932.115 1187.9 973.415C1182.26 1007.36 1166.49 1140.19 1157.4 1222.81C1150.16 1288.67 1175.7 1312.44 1236.69 1315.54C1265.98 1315.54 1295.22 1314.02 1313.95 1314.87C1328.69 1315.54 1333.27 1320.49 1330.13 1339.88C1322.58 1386.51 1305.55 1486.7 1300.74 1522.09C1295.66 1559.5 1289.68 1558.72 1242.8 1557.94C1210.54 1556.84 1161.6 1555.74 1135.55 1555.19C1132.09 1555.12 1129.04 1555.05 1126.48 1555C1121.49 1554.9 1117.22 1558.6 1116.49 1563.64L1105.57 1638.99L1105.58 1638.98Z" fill="#0E1325"/>
<path d="M1556.17 1638.88L1542.68 1728.53C1541.76 1734.66 1546.4 1740.2 1552.47 1740.2H1874.86C1926.7 1740.2 1944.24 1712.14 1951.86 1640.44C1959.48 1568.74 1998.07 1319.41 2009.8 1225.82C2013.61 1195.42 1999.51 1180.62 1983.88 1179.84C1964.14 1178.86 1848.31 1179.9 1827.58 1180.34C1814.24 1180.62 1808.14 1182.18 1808.9 1168.15C1810.21 1144.04 1817.95 1098.72 1819.26 1078.92C1819.73 1071.9 1823.77 1068.35 1831.39 1068.29C1867.69 1067.95 1979.24 1067.1 2001.81 1068.4C2028.85 1069.96 2030.38 1037.23 2033.43 1002.93C2035.45 980.206 2040.82 938.316 2044.21 912.636C2045.94 899.566 2040.13 890.735 2028.08 890.805C1968.43 891.135 1785.54 890.725 1720.83 890.695C1649.93 890.655 1645.35 932.005 1638.49 973.305C1632.85 1007.26 1617.08 1140.09 1607.99 1222.71C1600.75 1288.57 1626.29 1312.34 1687.28 1315.44C1716.57 1315.44 1745.81 1313.92 1764.54 1314.77C1779.28 1315.44 1783.86 1320.39 1780.72 1339.78C1773.17 1386.41 1756.14 1486.6 1751.33 1521.99C1746.25 1559.4 1740.27 1558.62 1693.39 1557.84C1661.13 1556.74 1612.19 1555.64 1586.14 1555.09C1582.68 1555.02 1579.63 1554.95 1577.07 1554.9C1572.08 1554.8 1567.81 1558.5 1567.08 1563.54L1556.16 1638.89L1556.17 1638.88Z" fill="#0E1325"/>
<path d="M2063.05 1315.95L2116.78 900.418C2117.44 895.288 2121.82 891.438 2127 891.438H2281.61C2287.81 891.438 2292.61 896.878 2291.83 903.028L2167.88 1880.82C2167.23 1885.97 2162.85 1889.82 2157.66 1889.82H1988.11C1981.81 1889.82 1976.98 1884.21 1977.92 1877.98L2063.04 1315.94L2063.05 1315.95Z" fill="#0E1325"/>
<path d="M2344.97 1736.3V894.588C2344.97 892.438 2346.71 890.688 2348.85 890.688H2517.56C2519.86 890.688 2521.65 892.678 2521.42 894.968L2493.04 1181.1C2492.57 1185.87 2499.42 1187.12 2500.65 1182.49L2577.49 893.578C2577.94 891.878 2579.48 890.688 2581.24 890.688H2728.79C2731.32 890.688 2733.18 893.088 2732.55 895.548L2518.01 1737.26C2517.57 1738.98 2516.02 1740.19 2514.25 1740.19H2348.84C2346.7 1740.19 2344.96 1738.45 2344.96 1736.29L2344.97 1736.3Z" fill="#0E1325"/>
<path d="M500.129 2789.05L626.049 1951.3C626.299 1949.67 627.949 1948.45 629.899 1948.45H838.599C840.689 1948.45 842.399 1949.84 842.479 1951.61L857.049 2280.48C857.209 2284.12 863.239 2284.86 864.619 2281.4L996.339 1950.68C996.869 1949.35 998.349 1948.45 1000.02 1948.45H1187.05C1189.39 1948.45 1191.2 1950.18 1190.9 1952.14L1042.56 2943.97C1042.31 2945.61 1040.66 2946.84 1038.71 2946.84H846.749C844.409 2946.84 842.609 2945.12 842.889 2943.16L912.359 2470.37C912.959 2466.27 905.859 2465.18 904.729 2469.21L871.009 2588.59C870.589 2590.07 869.029 2591.11 867.229 2591.11H754.249C752.049 2591.11 750.279 2589.57 750.369 2587.71L763.899 2466.96C764.069 2463.08 756.339 2462.58 755.709 2466.42L701.049 2789.07" fill="#0E1325"/>
<path d="M2671.06 2942.26L2754.71 2169.81C2754.97 2167.36 2753.1 2165.22 2750.7 2165.22H2606.42C2604.03 2165.22 2602.16 2163.1 2602.4 2160.67L2622.16 1952.17C2622.37 1950.06 2624.1 1948.45 2626.18 1948.45H3123.5C3125.91 1948.45 3127.78 1950.59 3127.51 1953.05L3105.55 2161.55C3105.32 2163.64 3103.59 2165.22 3101.54 2165.22H2966.95C2964.89 2165.22 2963.16 2166.81 2962.94 2168.91L2879.1 2943.16C2878.88 2945.26 2877.15 2946.85 2875.09 2946.85H2675.07C2672.67 2946.85 2670.8 2944.71 2671.06 2942.26Z" fill="#0E1325"/>
<path d="M2298.95 2183.65L2261.25 2540.47C2260.44 2549.86 2266.92 2558.06 2275.4 2558.38L2504.31 2558.87C2512.71 2559.19 2519.16 2567.26 2518.47 2576.57L2504.72 2778.45C2504.09 2786.94 2497.71 2793.47 2490.05 2793.47H2139.56C2098.96 2793.47 2067.63 2753.74 2072.93 2708.98L2155.86 2008.93C2160.26 1971.75 2188.76 1943.96 2222.49 1943.96H2559.37C2567.96 1943.96 2574.73 1952.11 2574.04 1961.64L2560.02 2156C2559.4 2164.55 2552.95 2171.13 2545.23 2171.06L2313.72 2168.83C2306.09 2168.76 2299.67 2175.19 2298.95 2183.64V2183.65Z" fill="#0E1325"/>
<path d="M23.5593 1881.6L175.559 705.314C175.869 702.904 177.919 701.104 180.339 701.104H395.429C398.089 701.104 400.249 703.264 400.249 705.924V1054.47C400.249 1059.91 407.849 1061.19 409.629 1056.05L531.779 704.334C532.449 702.394 534.279 701.094 536.339 701.094H733.259C736.169 701.094 738.419 703.654 738.039 706.544L451.939 2787.11C451.619 2789.51 449.579 2791.31 447.159 2791.31H271.619C268.709 2791.31 266.459 2788.75 266.839 2785.86L456.199 1428.9C456.969 1422.99 448.449 1421.21 446.779 1426.93L408.129 1559.9C407.529 1561.96 405.639 1563.38 403.499 1563.38H292.649C290.129 1563.38 288.039 1561.44 287.839 1558.93L285.899 1423.86C285.449 1418.06 277.019 1417.87 276.299 1423.64L213.229 1882.79C212.929 1885.21 210.879 1887.02 208.439 1887.02H28.3493C25.4393 1887.02 23.1893 1884.46 23.5693 1881.58L23.5593 1881.6Z" fill="#0E1325"/>
<path d="M3121.78 902.581L3100.97 1040.87C3100.21 1045.93 3095.86 1049.67 3090.75 1049.67H2944.45C2939.5 1049.67 2935.24 1053.19 2934.3 1058.05L2907.17 1198.87C2905.96 1205.13 2910.66 1210.98 2917.03 1211.16L3057.05 1215.09C3063.37 1215.27 3068.05 1221.02 3066.93 1227.24L3039.3 1381.83C3038.41 1386.84 3034 1390.45 3028.92 1390.35L2880.56 1387.37C2875.53 1387.27 2871.17 1390.8 2870.21 1395.73L2843.15 1534.92C2841.94 1541.17 2846.6 1547.02 2852.96 1547.22L2998.94 1551.94C3005.13 1552.14 3009.75 1557.69 3008.83 1563.81L2983.54 1731.39C2982.78 1736.45 2978.43 1740.18 2973.32 1740.18H2661.52C2658.69 1740 2641.66 1738.61 2629.75 1723.87C2616.19 1707.08 2620.8 1687.23 2621.36 1684.99C2699.57 1276.73 2759.56 977.521 2770.43 941.031C2772.44 934.291 2777.75 916.511 2793.66 904.281C2811.71 890.401 2831.15 891.021 2836.04 891.311C2927.87 891.111 3019.71 890.911 3111.54 890.711C3117.87 890.701 3122.73 896.321 3121.78 902.581Z" fill="#0E1325"/>
<path d="M2959.46 2464.88C2954.57 2459.01 2955.35 2433.18 2943.02 2428.1C2930.7 2423.01 2930.5 2420.66 2930.89 2447.65C2931.28 2474.64 2939.11 2474.47 2936.96 2482.49C2934.81 2490.51 2940.68 2501.08 2913.48 2513.4C2886.28 2525.73 2905.07 2531.99 2871.61 2550.77C2838.15 2569.55 2850.09 2576.21 2839.91 2593.42C2829.74 2610.64 2823.28 2602.62 2814.48 2601.84C2805.68 2601.05 2793.15 2585.6 2784.35 2584.82C2775.55 2584.03 2769.09 2566.42 2761.85 2560.95C2754.62 2555.47 2764.39 2542.36 2762.83 2523.77C2761.26 2505.18 2750.7 2491.29 2751.68 2480.53C2752.65 2469.77 2734.85 2461.55 2723.7 2442.18C2712.55 2422.82 2726.63 2413.82 2729.92 2398.68C2733.22 2383.55 2727.81 2391.9 2722.72 2401.1C2717.63 2410.29 2706.48 2423.6 2703.55 2436.12C2700.61 2448.64 2747.18 2492.27 2750.31 2509.1C2753.44 2525.92 2735.05 2511.45 2731.13 2515.75C2727.22 2520.05 2709.02 2516.73 2709.41 2530.54C2709.81 2544.35 2702.96 2561.73 2709.02 2556.05C2710.2 2551.95 2724.28 2545.88 2722.72 2538.25C2721.15 2530.62 2744.24 2529.05 2746.98 2531.79C2749.72 2534.53 2754.61 2525.92 2752.85 2550.38C2751.09 2574.84 2753.24 2565.45 2769.09 2588.14C2784.94 2610.84 2797.46 2593.42 2797.07 2608.49C2796.68 2623.55 2810.31 2630.14 2798.31 2648.92C2786.31 2667.71 2786.83 2659.88 2796.22 2670.84C2805.61 2681.79 2799.87 2682.32 2812.39 2696.92C2824.91 2711.53 2809.78 2715.71 2799.87 2723.53C2789.96 2731.36 2775.87 2727.18 2761.85 2737.1C2747.83 2747.01 2748.22 2739.71 2745.61 2732.4C2743 2725.1 2735.7 2719.36 2722.65 2720.4C2709.61 2721.45 2708.57 2712.58 2694.48 2699.53C2680.39 2686.49 2693.44 2682.32 2700.49 2670.46C2707.55 2658.6 2698.65 2654.14 2690.83 2663.21C2683 2672.28 2659 2673.45 2671 2704.23C2683 2735.01 2691.87 2724.58 2702.83 2733.97C2713.78 2743.36 2705.96 2745.45 2719 2745.45C2732.04 2745.45 2722.13 2755.36 2714.83 2767.36C2707.52 2779.36 2665.2 2799.35 2650.23 2809.13C2635.26 2818.91 2639.66 2822.92 2635.46 2835.35C2631.25 2847.77 2642.21 2852.86 2650.52 2858.63C2658.84 2864.4 2657.66 2862.25 2658.74 2881.91C2659.82 2901.58 2651.89 2896.68 2654.44 2911.85C2656.98 2927.01 2648.76 2923.2 2651.4 2936.99C2654.05 2950.78 2640.06 2947.95 2632.23 2959.98C2624.4 2972.01 2633.01 2964.58 2632.52 2986.2C2632.03 3007.82 2620.39 2998.72 2622.35 3012.71C2624.31 3026.7 2616.58 3026.79 2610.22 3031.2C2603.86 3035.6 2600.34 3037.26 2601.51 3049C2602.69 3060.74 2593.98 3069.74 2593.69 3082.16C2593.39 3094.59 2585.08 3090.28 2583.12 3106.03C2581.16 3121.78 2585.27 3127.85 2589.87 3139.2C2594.47 3150.54 2600.24 3150.35 2602.2 3157.68C2604.15 3165.02 2592.61 3160.62 2591.44 3182.14C2590.26 3203.66 2594.57 3199.26 2597.31 3209.53C2600.05 3219.8 2603.18 3199.95 2601.41 3188.3C2599.65 3176.66 2605.82 3171.58 2611.39 3164.53C2616.97 3157.49 2613.94 3155.92 2609.73 3145.65C2605.52 3135.38 2615.99 3143.4 2619.61 3150.93C2623.23 3158.47 2616.68 3154.85 2623.33 3173.63C2629.98 3192.41 2631.74 3185.17 2632.91 3183.71C2634.09 3182.24 2639.18 3178.91 2636.73 3175.1C2634.28 3171.28 2635.07 3167.57 2630.76 3161.6C2626.46 3155.63 2629.78 3150.64 2628.9 3144.28C2628.02 3137.92 2624.4 3135.67 2618.44 3131.66C2612.47 3127.65 2609.44 3115.72 2609.63 3109.26C2609.83 3102.8 2604.74 3098.7 2607.58 3092.92C2610.41 3087.15 2605.91 3080.11 2608.31 3075.51C2608.69 3074.79 2608.9 3074.3 2609.01 3074C2608.84 3074.91 2608.84 3077.27 2611.78 3079.23C2617.07 3082.75 2614.62 3086.47 2620 3092.63C2625.38 3098.79 2619.81 3107.79 2622.06 3114.15C2624.31 3120.51 2621.27 3124.52 2625.77 3122.47C2630.27 3120.41 2629 3115.42 2630.86 3108.38C2632.72 3101.34 2633.8 3100.75 2630.76 3096.93C2627.73 3093.12 2621.96 3077.66 2612.37 3058.39C2602.78 3039.12 2611.39 3042.15 2625.48 3040C2639.57 3037.85 2634.68 3035.99 2633.7 3032.17C2632.72 3028.36 2637.12 3010.36 2639.72 3006.35C2640.41 3005.27 2640.66 3004.77 2640.7 3004.73C2640.62 3005 2639.48 3007.97 2641.26 3011.48C2643.87 3016.65 2642.57 3019.36 2643.09 3025.88C2643.61 3032.4 2636.05 3040.75 2642.05 3037.36C2648.05 3033.97 2647 3029.01 2650.65 3019.1C2654.31 3009.18 2652.22 2991.97 2648.05 2978.4C2643.87 2964.84 2656.65 2964.05 2659.52 2959.88C2662.39 2955.71 2664.22 2956.23 2663.1 2974.23C2661.98 2992.23 2666.83 2989.88 2666.05 2984.92C2665.26 2979.97 2669.7 2972.92 2669.18 2957.27C2668.65 2941.62 2656.65 2948.66 2667.87 2928.32C2679.09 2907.97 2678.09 2877.38 2679.55 2863.87C2681.01 2850.35 2676.74 2849.92 2672.63 2837.21C2668.52 2824.49 2671.65 2819.79 2684.73 2816.01C2697.81 2812.23 2711.57 2798.08 2722.33 2785.16C2733.09 2772.25 2737.78 2773.42 2740.91 2779.1C2744.05 2784.77 2742.68 2790.25 2740.91 2802.77C2739.15 2815.29 2744.83 2830.36 2756.18 2837.6C2767.52 2844.84 2767.13 2850.71 2777.31 2871.64C2787.48 2892.58 2780.63 2895.71 2778.87 2909.6C2777.11 2923.49 2770.46 2932.1 2771.24 2940.32C2774.18 2963.21 2764.98 2974.55 2764.39 2987.47C2763.81 3000.38 2761.26 3011.53 2749.52 3022.88C2737.78 3034.23 2741.11 3043.23 2739.15 3053.79C2737.2 3064.36 2728 3069.64 2728 3077.47C2728 3085.3 2726.83 3093.32 2724.48 3102.71C2722.13 3112.1 2728.78 3120.12 2731.33 3127.95C2733.87 3135.77 2733.87 3133.23 2733.68 3123.64C2733.48 3114.05 2731.72 3110.53 2732.89 3103.29C2734.07 3096.05 2734.85 3097.03 2739.74 3098.79C2744.63 3100.55 2743.85 3105.05 2743.07 3114.45C2742.28 3123.84 2737.2 3121.1 2738.37 3124.82C2741.5 3133.03 2745.22 3133.03 2745.02 3129.71C2744.83 3126.38 2748.74 3116.4 2751.87 3108.38C2755 3100.36 2749.33 3090.58 2745.02 3085.49C2740.72 3080.4 2741.7 3075.71 2747.96 3066.32C2754.22 3056.92 2759.11 3060.05 2765.17 3065.92C2771.23 3071.79 2767.33 3077.66 2772.22 3081.77C2777.11 3085.88 2780.24 3080.99 2782 3088.62C2783.76 3096.25 2781.02 3094.49 2775.74 3096.45C2770.46 3098.4 2781.81 3100.36 2782.98 3106.62C2784.15 3112.88 2775.15 3119.53 2779.85 3125.21C2784.55 3130.88 2777.11 3139.88 2783.76 3145.36C2790.41 3150.84 2786.7 3153.18 2790.02 3153.77C2793.35 3154.36 2791.39 3144.97 2789.44 3139.68C2787.48 3134.4 2789.83 3127.55 2793.15 3131.08C2796.48 3134.6 2800 3133.23 2803.52 3138.12C2807.05 3143.01 2812.33 3148.1 2809.78 3154.36C2807.24 3160.62 2809.98 3164.92 2807.63 3174.51C2805.28 3184.1 2814.87 3174.12 2813.89 3167.66C2812.91 3161.21 2813.11 3154.75 2818.98 3158.08C2824.85 3161.4 2821.72 3168.64 2824.85 3175.68C2827.98 3182.73 2828.96 3164.14 2827 3156.9C2825.05 3149.66 2820.35 3154.75 2817.61 3143.21C2814.87 3131.66 2800.59 3121.88 2791.78 3120.12C2782.98 3118.36 2788.26 3111.9 2797.65 3101.71C2807.05 3091.52 2782.78 3071.21 2770.26 3057.51C2757.74 3043.82 2771.44 3014.86 2778.09 3007.42C2788.26 3000.77 2790.41 2988.45 2794.33 2992.36C2798.24 2996.27 2801.96 2997.25 2806.65 3009.77C2811.35 3022.29 2823.09 3020.92 2831.5 3032.86C2839.91 3044.79 2829.74 3047.34 2822.31 3055.55C2814.87 3063.77 2817.41 3073.36 2813.7 3083.34C2809.98 3093.32 2813.89 3090.77 2817.61 3086.27C2821.33 3081.77 2817.81 3092.73 2818.78 3096.84C2823.87 3106.82 2826.02 3099.77 2824.85 3090.97C2823.68 3082.16 2826.22 3070.82 2830.52 3062.6C2834.83 3054.38 2837.37 3058.29 2836.78 3069.64C2836.2 3080.99 2844.81 3081.77 2844.02 3075.71C2843.24 3069.64 2842.46 3065.73 2845 3046.16C2847.55 3026.6 2824.07 2994.9 2819.37 2976.32C2814.68 2957.73 2820.55 2941.68 2806.26 2920.16C2791.98 2898.64 2793.35 2886.12 2821.52 2862.45C2849.7 2838.77 2843.83 2824.49 2843.24 2809.42C2842.65 2794.36 2868.48 2795.73 2875.72 2772.25C2882.96 2748.77 2900.54 2745.2 2903.31 2740.75C2906.07 2736.3 2917.78 2742.9 2918.76 2749.55C2919.74 2756.21 2915.83 2766.77 2911.72 2771.47C2907.61 2776.16 2904.87 2784.97 2904.68 2790.84C2904.48 2796.71 2904.09 2798.27 2901.74 2801.4C2899.39 2804.53 2902.33 2820.58 2903.5 2815.29C2904.68 2810.01 2903.31 2812.55 2906.63 2807.47C2909.96 2802.38 2912.31 2803.75 2910.74 2799.25C2909.18 2794.75 2908.2 2792.99 2912.7 2787.32C2917.2 2781.64 2924.44 2781.84 2929.13 2786.53C2933.83 2791.23 2932.07 2799.25 2926.98 2805.12C2921.89 2810.99 2916.22 2817.84 2915.05 2829.58C2913.87 2841.32 2917.59 2844.84 2919.35 2840.92C2921.11 2837.01 2922.35 2833.75 2923.52 2822.79C2924.7 2811.84 2929.52 2819.27 2928.22 2822.27C2926.91 2825.27 2926.52 2827.1 2928.74 2830.36C2936.96 2841.71 2936.96 2835.45 2934.78 2830.36C2932.6 2825.27 2930.7 2822.92 2934.78 2813.53C2938.86 2804.14 2945.57 2785.36 2936.75 2777.14C2927.93 2768.92 2918.57 2757.18 2930.31 2725.88C2942.05 2694.58 2936.18 2689.88 2925.22 2674.23C2914.26 2658.58 2911.52 2660.53 2904.87 2674.23C2900.63 2682.45 2894.7 2713.36 2900.96 2703.18C2907.22 2693.01 2922.48 2684.79 2923.26 2693.01C2924.05 2701.23 2918.96 2710.62 2909.18 2713.36C2899.39 2716.1 2870.05 2732.53 2861.83 2738.79C2859.09 2730.58 2851.26 2725.88 2827.78 2696.14C2827.78 2696.14 2825.05 2692.23 2818.59 2679.9C2812.13 2667.58 2817.02 2657.79 2814.87 2651.14C2812.72 2644.49 2820.55 2631.77 2846.18 2618.08C2871.81 2604.38 2856.35 2591.08 2883.74 2594.53C2911.13 2597.98 2902.33 2592.45 2909.37 2584.82C2916.41 2577.18 2930.11 2581.29 2934.78 2567.21C2939.45 2553.12 2949.09 2554.29 2941.85 2533.36C2934.61 2512.42 2948.11 2519.08 2947.13 2511.25C2946.15 2503.42 2964.35 2470.75 2959.46 2464.88ZM2827.78 2747.01L2834.83 2756.4C2839.52 2762.66 2850.48 2799.45 2834.83 2804.92C2819.18 2810.4 2829.35 2822.14 2816.83 2835.45C2804.31 2848.75 2809.78 2862.05 2801.18 2860.49C2792.57 2858.92 2785.52 2862.05 2786.31 2848.75C2787.09 2835.45 2771.48 2841.71 2771.46 2836.23C2771.44 2830.75 2769.09 2806.42 2758.91 2801.37C2748.74 2796.32 2756.57 2781.45 2758.91 2772.05C2761.26 2762.66 2750.35 2760.32 2771.46 2750.14C2792.57 2739.97 2792.47 2747.79 2798.39 2741.53C2804.31 2735.27 2800.39 2718.05 2809.78 2727.45C2819.18 2736.84 2820.74 2737.62 2827.78 2747.01ZM2918.57 2563.88C2905.26 2563.1 2891.96 2580.46 2886.48 2578.82C2881 2577.18 2873.18 2574.84 2873.18 2574.84C2873.18 2574.84 2876.31 2563.1 2891.96 2550.58C2907.61 2538.05 2904.48 2522.4 2913.87 2531.79C2923.26 2541.18 2931.87 2564.66 2918.57 2563.88Z" fill="#9B8579" stroke="#726658" stroke-width="4" stroke-miterlimit="10"/>
<path d="M1389.44 390.562H1329.19C1321.48 390.562 1315.22 396.817 1315.22 404.532V583.202C1315.22 590.918 1321.48 597.173 1329.19 597.173H1389.44C1397.16 597.173 1403.41 590.918 1403.41 583.202V404.532C1403.41 396.817 1397.16 390.562 1389.44 390.562Z" fill="#6D6E71" stroke="#58595B" stroke-width="9" stroke-miterlimit="10"/>
<path d="M2698.7 391.742H2638.45C2630.74 391.742 2624.48 397.997 2624.48 405.712V584.382C2624.48 592.098 2630.74 598.352 2638.45 598.352H2698.7C2706.42 598.352 2712.67 592.098 2712.67 584.382V405.712C2712.67 397.997 2706.42 391.742 2698.7 391.742Z" fill="#6D6E71" stroke="#58595B" stroke-width="9" stroke-miterlimit="10"/>
<path d="M1408.89 669.238L1413.21 318.488C1413.31 310.288 1419.99 303.688 1428.19 303.688H1514.07C1522.41 303.688 1529.14 310.488 1529.06 318.828L1525.45 667.248C1525.37 675.308 1518.92 681.858 1510.87 682.078L1424.27 684.398C1415.77 684.628 1408.78 677.738 1408.88 669.228L1408.89 669.238Z" fill="#6D6E71" stroke="#58595B" stroke-width="9" stroke-miterlimit="10"/>
<path d="M2498.07 689.918L2500.42 336.998C2500.51 329.378 2506.72 323.258 2514.33 323.258H2604.35C2612.09 323.258 2618.34 329.578 2618.26 337.318L2614.63 687.858C2614.55 695.338 2608.57 701.418 2601.09 701.618L2512.35 703.998C2504.45 704.208 2497.97 697.818 2498.06 689.918H2498.07Z" fill="#6D6E71" stroke="#58595B" stroke-width="9" stroke-miterlimit="10"/>
<path d="M1529.45 749.57L1537.6 241.05C1537.73 233.25 1544.08 227 1551.88 227H1638.59C1646.48 227 1652.87 233.39 1652.87 241.28V749.8C1652.87 757.69 1646.48 764.08 1638.59 764.08H1543.73C1535.75 764.08 1529.32 757.54 1529.45 749.57Z" fill="#6D6E71" stroke="#58595B" stroke-width="9" stroke-miterlimit="10"/>
<path d="M2368.4 748.77L2376.56 240.86C2376.68 233.17 2382.95 227 2390.65 227H2477.74C2485.52 227 2491.83 233.31 2491.83 241.09V749C2491.83 756.78 2485.52 763.09 2477.74 763.09L2382.49 764.09C2374.62 764.09 2368.28 756.64 2368.4 748.78V748.77Z" fill="#6D6E71" stroke="#58595B" stroke-width="9" stroke-miterlimit="10"/>
<path d="M1979.77 835.24C1981.49 790.41 1975.21 749.79 1935.42 710.18C1935.37 710.13 1935.32 710.08 1935.27 710.02C1921.81 693.51 1905.93 669.51 1903.39 665.64C1903.16 665.29 1903.04 664.88 1903.04 664.46V582.75C1903.04 581.56 1904.01 580.59 1905.2 580.59C1906.82 580.59 1905.95 582.03 1905.2 580.59C1885.49 542.76 1882.96 515.78 1878.39 481.5C1873.69 446.28 1883.09 422.8 1913.61 422.8C1944.13 422.8 1959.39 425.15 1968.78 413.41C1978.17 401.67 2018.08 402.84 2039.21 405.19C2060.34 407.54 2053.33 388.16 2130.28 397.39C2130.6 397.43 2130.93 396.4 2131.24 396.3C2149.72 390.09 2167.41 359.65 2225.8 417.35C2226.51 418.05 2226.65 419.15 2226.13 420.01C2214.56 438.93 2199.26 492.62 2205.77 524.73C2205.86 525.18 2206.09 525.57 2206.42 525.88C2221.64 539.97 2242.32 560.98 2243.48 592.32C2244.64 623.66 2248.18 666.28 2237.61 682.71C2227.04 699.14 2194.18 710.71 2188.31 762.36C2183.45 805.12 2182.61 828.58 2182.47 835.38" fill="#D1C3A7"/>
<path d="M1979.77 835.24C1981.49 790.41 1975.21 749.79 1935.42 710.18C1935.37 710.13 1935.32 710.08 1935.27 710.02C1921.81 693.51 1905.93 669.51 1903.39 665.64C1903.16 665.29 1903.04 664.88 1903.04 664.46V582.75C1903.04 581.56 1904.01 580.59 1905.2 580.59M1905.2 580.59C1905.95 582.03 1906.82 580.59 1905.2 580.59ZM1905.2 580.59C1885.49 542.76 1882.96 515.78 1878.39 481.5C1873.69 446.28 1883.09 422.8 1913.61 422.8C1944.13 422.8 1959.39 425.15 1968.78 413.41C1978.17 401.67 2018.08 402.84 2039.21 405.19C2060.34 407.54 2053.33 388.16 2130.28 397.39C2130.6 397.43 2130.93 396.4 2131.24 396.3C2149.72 390.09 2167.41 359.65 2225.8 417.35C2226.51 418.05 2226.65 419.15 2226.13 420.01C2214.56 438.93 2199.26 492.62 2205.77 524.73C2205.86 525.18 2206.09 525.57 2206.42 525.88C2221.64 539.97 2242.32 560.98 2243.48 592.32C2244.64 623.66 2248.18 666.28 2237.61 682.71C2227.04 699.14 2194.18 710.71 2188.31 762.36C2183.45 805.12 2182.61 828.58 2182.47 835.38" stroke="#414042" stroke-width="9" stroke-miterlimit="10"/>
<path d="M1905.2 580.577C1915.36 589.627 1954.43 588.277 1964.34 583.577C1971.01 580.417 1989.67 577.168 1995.12 578.358C2011.82 582.008 2034.25 574.707 2040.51 571.577C2046.77 568.447 2049.9 568.447 2063.99 568.967C2078.08 569.487 2089.56 563.747 2089.56 563.747C2081.73 544.447 2079.13 524.617 2089.56 508.447C2099.47 493.837 2114.08 468.797 2136.52 487.577C2158.96 506.357 2178.78 528.798 2205.91 525.408" fill="#D1C3A7"/>
<path d="M1905.2 580.577C1915.36 589.627 1954.43 588.277 1964.34 583.577C1971.01 580.417 1989.67 577.168 1995.12 578.358C2011.82 582.008 2034.25 574.707 2040.51 571.577C2046.77 568.447 2049.9 568.447 2063.99 568.967C2078.08 569.487 2089.56 563.747 2089.56 563.747C2081.73 544.447 2079.13 524.617 2089.56 508.447C2099.47 493.837 2114.08 468.797 2136.52 487.577C2158.96 506.357 2178.78 528.798 2205.91 525.408" stroke="#414042" stroke-width="9" stroke-miterlimit="10"/>
<path d="M1957.92 420.797C1956.88 445.577 1961.21 505.837 1965.91 522.537C1970.61 539.237 1981.52 579.127 1981.52 579.127" fill="#D1C3A7"/>
<path d="M1957.92 420.797C1956.88 445.577 1961.21 505.837 1965.91 522.537C1970.61 539.237 1981.52 579.127 1981.52 579.127" stroke="#414042" stroke-width="9" stroke-miterlimit="10"/>
<path d="M2044.14 405.328C2039.97 428.808 2032.7 486.398 2035.31 503.678C2037.92 520.958 2038.03 552.218 2048.93 568.938" fill="#D1C3A7"/>
<path d="M2044.14 405.328C2039.97 428.808 2032.7 486.398 2035.31 503.678C2037.92 520.958 2038.03 552.218 2048.93 568.938" stroke="#414042" stroke-width="9" stroke-miterlimit="10"/>
<path d="M2130.29 397.391C2128.2 421.911 2130.26 456.28 2128.17 466.19C2126.08 476.1 2123.47 480.8 2123.47 484.45" fill="#C2B59B"/>
<path d="M2130.29 397.391C2128.2 421.911 2130.26 456.28 2128.17 466.19C2126.08 476.1 2123.47 480.8 2123.47 484.45" stroke="#414042" stroke-width="9" stroke-miterlimit="10"/>
<path d="M2140.17 761.438C2171.47 752.568 2198.6 726.398 2198.6 726.398Z" fill="#C2B59B"/>
<path d="M2140.17 761.438C2171.47 752.568 2198.6 726.398 2198.6 726.398" stroke="#414042" stroke-width="9" stroke-miterlimit="10"/>
<path d="M2005.56 773.437C1987.82 765.087 1955.81 734.477 1955.81 734.477Z" fill="#C2B59B"/>
<path d="M2005.56 773.437C1987.82 765.087 1955.81 734.477 1955.81 734.477" stroke="#414042" stroke-width="9" stroke-miterlimit="10"/>
<path d="M2058.26 767.184C2022.78 735.884 2019.65 712.964 2017.04 694.184C2014.43 675.404 2014.17 631.054 2014.56 621.664C2014.95 612.274 2030.59 601.834 2036.33 595.574C2042.07 589.314 2053.03 581.484 2051.99 572.094" fill="#D1C3A7"/>
<path d="M2058.26 767.184C2022.78 735.884 2019.65 712.964 2017.04 694.184C2014.43 675.404 2014.17 631.054 2014.56 621.664C2014.95 612.274 2030.59 601.834 2036.33 595.574C2042.07 589.314 2053.03 581.484 2051.99 572.094" stroke="#414042" stroke-width="9" stroke-miterlimit="10"/>
<path d="M2158.96 618.53C2118.79 619.05 2094.9 580.75 2089.57 563.75Z" fill="#D1C3A7"/>
<path d="M2158.96 618.53C2118.79 619.05 2094.9 580.75 2089.57 563.75" stroke="#414042" stroke-width="9" stroke-miterlimit="10"/>
<path d="M2158.96 512.102C2158.96 512.102 2149.22 528.101 2140.18 540.271C2126.61 558.531 2127.66 555.401 2114.09 544.971C2100.52 534.541 2091.07 525.882 2086.38 514.402" fill="#C2B59B"/>
<path d="M2158.96 512.102C2158.96 512.102 2149.22 528.101 2140.18 540.271C2126.61 558.531 2127.66 555.401 2114.09 544.971C2100.52 534.541 2091.07 525.882 2086.38 514.402" stroke="#414042" stroke-width="9" stroke-miterlimit="10"/>
<path d="M2141.21 497.869C2127.21 486.369 2121.21 477.369 2101.71 497.869C2100.21 499.369 2095.81 504.867 2090.21 514.867C2097.21 526.867 2114.71 541.367 2127.21 549.367C2130.41 546.967 2147.54 521.701 2155.71 509.367C2154.54 508.534 2150.01 505.068 2141.21 497.869Z" fill="#F2E2C2" stroke="black"/>
</svg>
