<svg width="3195" height="2497" viewBox="0 0 3195 2497" fill="none" xmlns="http://www.w3.org/2000/svg">
<path d="M850.821 195.86C848.981 195.86 847.381 197.14 846.971 198.93L736.531 687.34L619.041 1215.89C618.491 1218.35 620.371 1220.69 622.891 1220.69H777.971C779.821 1220.69 781.421 1219.4 781.821 1217.59L843.131 938.33C843.521 936.55 845.081 935.27 846.891 935.23L887.461 934.34C889.671 934.29 891.492 936.07 891.492 938.28V1063.75C891.492 1065.93 893.261 1067.69 895.431 1067.69H1050.36C1052.52 1067.69 1054.28 1065.95 1054.3 1063.78L1062.06 199.84C1062.08 197.65 1060.31 195.86 1058.12 195.86H850.811H850.821ZM856.581 861.12L881.852 774.48C883.082 770.26 889.251 770.91 889.571 775.3L895.881 861.94C896.051 864.22 894.241 866.17 891.951 866.17H860.372C857.742 866.17 855.851 863.65 856.581 861.12Z" fill="#0E1325"/>
<path d="M1860.38 1281.92C1858.54 1281.92 1856.94 1283.2 1856.53 1284.99L1746.09 1773.4L1628.6 2301.95C1628.05 2304.41 1629.93 2306.75 1632.45 2306.75H1787.53C1789.38 2306.75 1790.98 2305.46 1791.38 2303.65L1852.69 2024.39C1853.08 2022.61 1854.64 2021.33 1856.45 2021.29L1897.02 2020.4C1899.23 2020.35 1901.05 2022.13 1901.05 2024.34V2149.81C1901.05 2151.99 1902.82 2153.75 1904.99 2153.75H2059.92C2062.08 2153.75 2063.84 2152.01 2063.86 2149.84L2071.62 1285.9C2071.64 1283.71 2069.87 1281.92 2067.68 1281.92H1860.37H1860.38ZM1866.14 1947.18L1891.41 1860.54C1892.64 1856.32 1898.81 1856.97 1899.13 1861.36L1905.44 1948C1905.61 1950.28 1903.8 1952.23 1901.51 1952.23H1869.93C1867.3 1952.23 1865.41 1949.71 1866.14 1947.18Z" fill="#0E1325"/>
<path d="M1088.71 953.08L1074.86 1043.93C1073.91 1050.15 1078.68 1055.75 1084.91 1055.75H1415.84C1469.06 1055.75 1487.06 1027.32 1494.88 954.66C1502.71 882 1542.31 629.33 1554.36 534.49C1558.27 503.69 1543.79 488.68 1527.75 487.89C1507.49 486.89 1388.59 487.95 1367.31 488.39C1353.62 488.68 1347.35 490.26 1348.14 476.04C1349.49 451.61 1357.43 405.68 1358.77 385.61C1359.24 378.497 1363.4 374.903 1371.23 374.83C1408.49 374.49 1523 373.62 1546.16 374.94C1573.92 376.52 1575.48 343.35 1578.61 308.6C1580.68 285.57 1586.2 243.13 1589.68 217.11C1591.45 203.86 1585.49 194.92 1573.13 194.99C1511.9 195.32 1324.17 194.91 1257.75 194.88C1184.97 194.84 1180.27 236.74 1173.23 278.6C1167.44 313 1151.25 447.61 1141.93 531.33C1134.5 598.07 1160.71 622.16 1223.32 625.3C1253.39 625.3 1283.4 623.76 1302.62 624.62C1317.75 625.3 1322.45 630.32 1319.23 649.97C1311.48 697.23 1293.99 798.76 1289.06 834.61C1283.84 872.52 1277.71 871.73 1229.58 870.94C1196.47 869.83 1146.23 868.71 1119.49 868.15C1115.94 868.08 1112.81 868.01 1110.18 867.96C1105.06 867.86 1100.67 871.61 1099.92 876.72L1088.71 953.08Z" fill="#0E1325"/>
<path d="M1551.23 953.08L1537.38 1043.93C1536.43 1050.15 1541.2 1055.75 1547.43 1055.75H1878.36C1931.58 1055.75 1949.58 1027.32 1957.4 954.66C1965.23 882 2004.83 629.33 2016.88 534.49C2020.79 503.69 2006.31 488.68 1990.27 487.89C1970.01 486.89 1851.11 487.95 1829.83 488.39C1816.14 488.68 1809.87 490.26 1810.66 476.04C1812.01 451.61 1819.95 405.68 1821.29 385.61C1821.76 378.497 1825.92 374.903 1833.75 374.83C1871.01 374.49 1985.52 373.62 2008.68 374.94C2036.44 376.52 2038 343.35 2041.13 308.6C2043.2 285.57 2048.72 243.13 2052.2 217.11C2053.97 203.86 2048.01 194.92 2035.65 194.99C1974.42 195.32 1786.69 194.91 1720.27 194.88C1647.49 194.84 1642.79 236.74 1635.75 278.6C1629.96 313 1613.77 447.61 1604.45 531.33C1597.02 598.07 1623.23 622.16 1685.84 625.3C1715.91 625.3 1745.92 623.76 1765.14 624.62C1780.27 625.3 1784.97 630.32 1781.75 649.97C1774 697.23 1756.51 798.76 1751.58 834.61C1746.36 872.52 1740.23 871.73 1692.1 870.94C1658.99 869.83 1608.75 868.71 1582.01 868.15C1578.46 868.08 1575.33 868.01 1572.7 867.96C1567.58 867.86 1563.19 871.61 1562.44 876.72L1551.23 953.08Z" fill="#0E1325"/>
<path d="M2068.54 631.6L2123.7 205.07C2124.38 199.8 2128.87 195.85 2134.19 195.85H2292.89C2299.26 195.85 2304.18 201.43 2303.38 207.75L2176.15 1211.44C2175.48 1216.72 2170.99 1220.68 2165.66 1220.68H1991.62C1985.15 1220.68 1980.2 1214.92 1981.16 1208.53L2068.54 631.6Z" fill="#0E1325"/>
<path d="M2347.93 1051.8V198.83C2347.93 196.65 2349.71 194.88 2351.91 194.88H2525.09C2527.45 194.88 2529.29 196.9 2529.05 199.22L2499.92 489.18C2499.43 494.01 2506.47 495.28 2507.73 490.59L2586.6 197.81C2587.07 196.08 2588.64 194.88 2590.45 194.88H2741.91C2744.51 194.88 2746.41 197.31 2745.77 199.81L2525.55 1052.78C2525.1 1054.53 2523.51 1055.75 2521.69 1055.75H2351.9C2349.7 1055.75 2347.92 1053.98 2347.92 1051.8H2347.93Z" fill="#0E1325"/>
<path d="M2802.48 194.88H3150.07C3152.56 194.88 3154.45 197.06 3154.07 199.47L3129.52 352.64C3129.21 354.57 3127.51 355.99 3125.52 355.99H2957.45C2955.49 355.99 2953.81 357.37 2953.47 359.26L2925.58 511.29C2925.13 513.73 2927.04 515.96 2929.56 515.96H3094.1C3096.58 515.96 3098.47 518.12 3098.1 520.53L3065.98 706.03C3065.68 707.97 3063.98 709.41 3061.98 709.41L2891.71 706.03C2889.75 706.03 2888.08 707.4 2887.73 709.29L2859.85 859.8C2859.4 862.24 2861.31 864.48 2863.83 864.48H3031.54C3034.02 864.48 3035.91 866.64 3035.54 869.05L3002.73 1052.38C3002.43 1054.29 3000.78 1055.71 2998.81 1055.75L2644.42 1054.06C2641.86 1054.11 2639.89 1051.85 2640.35 1049.38L2798.51 198.11C2798.86 196.24 2800.53 194.88 2802.48 194.88Z" fill="#0E1325"/>
<path d="M489.23 2268.01L618.49 1285.39C618.75 1283.41 620.44 1281.92 622.44 1281.92H836.66C838.8 1281.92 840.57 1283.62 840.65 1285.76L855.601 1685.86C855.771 1690.29 861.951 1691.18 863.371 1686.98L998.581 1284.64C999.131 1283.02 1000.65 1281.92 1002.36 1281.92H1214.34C1216.74 1281.92 1218.6 1284.02 1218.3 1286.4L1066.03 2493.03C1065.78 2495.02 1064.08 2496.52 1062.07 2496.52H845.02C842.62 2496.52 840.77 2494.42 841.06 2492.05L912.371 1916.87C912.991 1911.88 905.7 1910.56 904.53 1915.45L869.91 2060.68C869.48 2062.48 867.88 2063.74 866.03 2063.74H750.06C747.8 2063.74 745.99 2061.86 746.07 2059.6L759.961 1912.7C760.141 1907.98 752.2 1907.37 751.55 1912.05L695.44 2268.01" fill="#0E1325"/>
<path d="M1649.28 1281.92H1265.97C1263.96 1281.92 1262.27 1283.42 1262.02 1285.41L1112.75 2492.07C1112.45 2494.44 1114.3 2496.53 1116.69 2496.53H1310.55C1312.57 2496.53 1314.27 2495.01 1314.5 2493L1362.24 2061.77C1362.46 2059.77 1364.14 2058.26 1366.15 2058.24C1389.23 2058.02 1519.53 2056.85 1570.8 2058.27C1627.15 2059.84 1667.85 2014.45 1672.54 1953.4C1677.24 1892.36 1732.02 1432.19 1735.15 1382.1C1738.28 1332.01 1730.45 1281.92 1649.28 1281.92ZM1556.71 1522.97C1554.37 1551.92 1534.8 1807.84 1531.52 1825.53C1529.1 1838.64 1516.8 1848.53 1503.5 1848.53H1396.17C1393.73 1848.53 1391.84 1846.4 1392.12 1843.98L1433.42 1492.92C1433.66 1490.86 1435.4 1489.32 1437.47 1489.32H1527.76C1537.93 1489.32 1559.06 1494.01 1556.71 1522.97Z" fill="#0E1325"/>
<path d="M2725.65 2302.05L2811.51 1499.15C2811.78 1496.64 2809.86 1494.44 2807.39 1494.44H2659.29C2656.84 1494.44 2654.92 1492.27 2655.17 1489.76L2675.46 1285.74C2675.68 1283.57 2677.46 1281.93 2679.58 1281.93H3190.07C3192.54 1281.93 3194.46 1284.13 3194.19 1286.65L3171.65 1490.67C3171.41 1492.82 3169.64 1494.44 3167.53 1494.44H3029.38C3027.27 1494.44 3025.49 1496.07 3025.26 1498.22L2939.2 2302.97C2938.97 2305.12 2937.2 2306.75 2935.08 2306.75H2729.76C2727.29 2306.75 2725.37 2304.56 2725.64 2302.04L2725.65 2302.05Z" fill="#0E1325"/>
<path d="M2343.69 1503.16L2304.99 1832.54C2304.16 1841.21 2310.81 1848.77 2319.51 1849.07L2554.48 1849.52C2563.1 1849.82 2569.73 1857.26 2569.02 1865.86L2554.9 2052.22C2554.25 2060.05 2547.71 2066.08 2539.85 2066.08H2180.08C2138.4 2066.08 2106.25 2029.41 2111.69 1988.09L2196.82 1341.87C2201.34 1307.55 2230.6 1281.9 2265.21 1281.9H2611.01C2619.83 1281.9 2626.77 1289.43 2626.07 1298.22L2611.68 1477.63C2611.05 1485.53 2604.42 1491.59 2596.5 1491.53L2358.86 1489.48C2351.03 1489.42 2344.44 1495.35 2343.7 1503.15L2343.69 1503.16Z" fill="#0E1325"/>
<path d="M0.0411491 1211.77L156.061 4.33008C156.381 1.86008 158.481 0.0100098 160.971 0.0100098H381.751C384.481 0.0100098 386.701 2.23008 386.701 4.96008V362.74C386.701 368.32 394.501 369.64 396.331 364.36L521.721 3.33008C522.411 1.34008 524.291 0 526.401 0H728.541C731.531 0 733.841 2.6301 733.451 5.6001L436.581 2266.04C436.261 2268.5 434.161 2270.35 431.671 2270.35H251.481C248.491 2270.35 246.181 2267.72 246.571 2264.76L444.141 747.1C444.931 741.04 436.181 739.21 434.471 745.08L394.791 881.57C394.181 883.68 392.241 885.14 390.031 885.14H276.241C273.651 885.14 271.501 883.15 271.301 880.57L269.311 741.92C268.841 735.97 260.191 735.77 259.461 741.7L194.721 1213.01C194.411 1215.49 192.311 1217.35 189.811 1217.35H4.95115C1.96115 1217.35 -0.338851 1214.73 0.0411491 1211.76V1211.77Z" fill="#0E1325"/>
</svg>
