<svg width="3187" height="2306" viewBox="0 0 3187 2306" fill="none" xmlns="http://www.w3.org/2000/svg">
<path d="M850.829 195.379C848.989 195.379 847.389 196.659 846.979 198.449L736.539 686.859L619.049 1215.41C618.499 1217.87 620.379 1220.21 622.899 1220.21H777.979C779.829 1220.21 781.429 1218.92 781.829 1217.11L843.139 937.849C843.529 936.069 845.089 934.789 846.899 934.749L887.469 933.859C889.679 933.809 891.499 935.589 891.499 937.799V1063.27C891.499 1065.45 893.269 1067.21 895.439 1067.21H1050.37C1052.53 1067.21 1054.29 1065.47 1054.31 1063.3L1062.07 199.359C1062.09 197.169 1060.32 195.379 1058.13 195.379H850.819H850.829ZM856.589 860.639L881.859 773.999C883.089 769.779 889.259 770.429 889.579 774.819L895.889 861.459C896.059 863.739 894.249 865.689 891.959 865.689H860.379C857.749 865.689 855.859 863.169 856.589 860.639Z" fill="#0E1325"/>
<path d="M3180.32 206.819L3158.96 348.769C3158.18 353.959 3153.72 357.799 3148.47 357.799H2998.29C2993.2 357.799 2988.83 361.409 2987.87 366.399L2960.02 510.949C2958.78 517.379 2963.6 523.379 2970.14 523.559L3113.87 527.599C3120.35 527.779 3125.16 533.689 3124.02 540.069L3095.66 698.749C3094.74 703.889 3090.22 707.599 3085 707.489L2932.71 704.429C2927.55 704.329 2923.07 707.949 2922.08 713.009L2894.3 855.88C2893.05 862.29 2897.84 868.299 2904.37 868.509L3054.21 873.349C3060.56 873.559 3065.31 879.259 3064.36 885.539L3038.4 1057.56C3037.62 1062.75 3033.16 1066.59 3027.91 1066.59H2707.85C2704.94 1066.4 2687.46 1064.98 2675.24 1049.85C2661.32 1032.62 2666.05 1012.24 2666.63 1009.94C2746.91 590.869 2808.49 283.729 2819.65 246.269C2821.71 239.349 2827.17 221.099 2843.5 208.539C2862.03 194.289 2881.98 194.919 2887 195.229C2981.27 195.019 3075.53 194.819 3169.8 194.609C3176.3 194.599 3181.28 200.369 3180.31 206.799L3180.32 206.819Z" fill="#0E1325"/>
<path d="M1852.39 1280.38C1850.55 1280.38 1848.95 1281.66 1848.54 1283.45L1738.1 1771.86L1620.61 2300.41C1620.06 2302.87 1621.94 2305.21 1624.46 2305.21H1779.54C1781.39 2305.21 1782.99 2303.92 1783.39 2302.11L1844.7 2022.85C1845.09 2021.07 1846.65 2019.79 1848.46 2019.75L1889.03 2018.86C1891.24 2018.81 1893.06 2020.59 1893.06 2022.8V2148.27C1893.06 2150.45 1894.83 2152.21 1897 2152.21H2051.93C2054.09 2152.21 2055.85 2150.47 2055.87 2148.3L2063.63 1284.36C2063.65 1282.17 2061.88 1280.38 2059.69 1280.38H1852.38H1852.39ZM1858.15 1945.64L1883.42 1859C1884.65 1854.78 1890.82 1855.43 1891.14 1859.82L1897.45 1946.46C1897.62 1948.74 1895.81 1950.69 1893.52 1950.69H1861.94C1859.31 1950.69 1857.42 1948.17 1858.15 1945.64Z" fill="#0E1325"/>
<path d="M1110.72 962.719L1096.87 1054.74C1095.92 1061.04 1100.69 1066.72 1106.92 1066.72H1437.85C1491.07 1066.72 1509.07 1037.92 1516.89 964.319C1524.72 890.719 1564.32 634.779 1576.37 538.719C1580.28 507.519 1565.8 492.319 1549.76 491.519C1529.5 490.509 1410.6 491.579 1389.32 492.029C1375.63 492.319 1369.36 493.919 1370.15 479.519C1371.5 454.769 1379.44 408.249 1380.78 387.919C1381.25 380.719 1385.41 377.082 1393.24 377.009C1430.5 376.659 1545.01 375.779 1568.17 377.119C1595.93 378.719 1597.49 345.119 1600.62 309.919C1602.69 286.599 1608.21 243.599 1611.69 217.239C1613.46 203.819 1607.5 194.759 1595.14 194.829C1533.91 195.159 1346.18 194.749 1279.76 194.719C1206.98 194.679 1202.28 237.119 1195.24 279.519C1189.45 314.369 1173.26 450.709 1163.94 535.519C1156.51 603.119 1182.72 627.519 1245.33 630.699C1275.4 630.699 1305.41 629.139 1324.63 630.009C1339.76 630.699 1344.46 635.779 1341.24 655.679C1333.49 703.549 1316 806.389 1311.07 842.709C1305.85 881.109 1299.72 880.309 1251.59 879.509C1218.48 878.379 1168.24 877.249 1141.5 876.689C1137.95 876.609 1134.82 876.549 1132.19 876.499C1127.07 876.389 1122.68 880.189 1121.93 885.369L1110.72 962.719Z" fill="#0E1325"/>
<path d="M1573.24 962.609L1559.39 1054.63C1558.44 1060.93 1563.21 1066.61 1569.44 1066.61H1900.37C1953.59 1066.61 1971.59 1037.81 1979.41 964.209C1987.24 890.609 2026.84 634.67 2038.89 538.61C2042.8 507.41 2028.32 492.209 2012.28 491.409C1992.02 490.399 1873.12 491.469 1851.84 491.919C1838.15 492.209 1831.88 493.809 1832.67 479.409C1834.02 454.659 1841.96 408.139 1843.3 387.809C1843.77 380.609 1847.93 376.973 1855.76 376.899C1893.02 376.549 2007.53 375.669 2030.69 377.009C2058.45 378.609 2060.01 345.009 2063.14 309.809C2065.21 286.489 2070.73 243.489 2074.21 217.129C2075.98 203.709 2070.02 194.65 2057.66 194.72C1996.43 195.05 1808.7 194.639 1742.28 194.609C1669.5 194.569 1664.8 237.009 1657.76 279.409C1651.97 314.259 1635.78 450.6 1626.46 535.41C1619.03 603.01 1645.24 627.41 1707.85 630.59C1737.92 630.59 1767.93 629.03 1787.15 629.9C1802.28 630.59 1806.98 635.669 1803.76 655.569C1796.01 703.439 1778.52 806.279 1773.59 842.599C1768.37 880.999 1762.24 880.2 1714.11 879.4C1681 878.27 1630.76 877.139 1604.02 876.579C1600.47 876.499 1597.34 876.44 1594.71 876.39C1589.59 876.28 1585.2 880.079 1584.45 885.259L1573.24 962.609Z" fill="#0E1325"/>
<path d="M2093.55 631.129L2148.71 204.599C2149.39 199.329 2153.88 195.379 2159.2 195.379H2317.9C2324.27 195.379 2329.19 200.959 2328.39 207.279L2201.16 1210.97C2200.49 1216.25 2196 1220.21 2190.67 1220.21H2016.63C2010.16 1220.21 2005.21 1214.45 2006.17 1208.06L2093.55 631.129Z" fill="#0E1325"/>
<path d="M2382.94 1062.61V198.609C2382.94 196.399 2384.72 194.609 2386.92 194.609H2560.1C2562.46 194.609 2564.3 196.649 2564.06 199.009L2534.93 492.719C2534.44 497.609 2541.48 498.899 2542.74 494.149L2621.61 197.579C2622.08 195.829 2623.65 194.609 2625.46 194.609H2776.92C2779.52 194.609 2781.42 197.069 2780.78 199.599L2560.56 1063.6C2560.11 1065.37 2558.52 1066.61 2556.7 1066.61H2386.91C2384.71 1066.61 2382.93 1064.82 2382.93 1062.61H2382.94Z" fill="#0E1325"/>
<path d="M489.242 2143.25L618.502 1283.31C618.762 1281.64 620.452 1280.38 622.452 1280.38H836.672C838.812 1280.38 840.582 1281.81 840.662 1283.62L855.612 1621.2C855.782 1624.94 861.962 1625.69 863.382 1622.15L998.592 1282.68C999.142 1281.31 1000.66 1280.39 1002.37 1280.39H1194.35C1196.75 1280.39 1198.61 1282.16 1198.31 1284.17L1046.04 2302.27C1045.79 2303.95 1044.09 2305.21 1042.08 2305.21H845.032C842.632 2305.21 840.782 2303.44 841.072 2301.43L912.382 1816.12C913.002 1811.91 905.712 1810.8 904.542 1814.93L869.922 1937.47C869.492 1938.99 867.892 1940.05 866.042 1940.05H750.072C747.812 1940.05 746.002 1938.46 746.082 1936.56L759.972 1812.61C760.152 1808.63 752.212 1808.11 751.562 1812.06L695.452 2143.26" fill="#0E1325"/>
<path d="M1641.29 1280.38H1257.98C1255.97 1280.38 1254.28 1281.65 1254.03 1283.32L1104.76 2301.44C1104.46 2303.44 1106.31 2305.2 1108.7 2305.2H1302.56C1304.58 2305.2 1306.28 2303.92 1306.51 2302.22L1354.25 1938.37C1354.47 1936.68 1356.15 1935.41 1358.16 1935.39C1381.24 1935.2 1511.54 1934.22 1562.81 1935.42C1619.16 1936.74 1659.86 1898.45 1664.55 1846.94C1669.25 1795.44 1724.03 1407.17 1727.16 1364.9C1730.29 1322.64 1722.46 1280.37 1641.29 1280.37V1280.38ZM1548.72 1492.77C1546.38 1517.2 1518.81 1724.13 1515.53 1739.06C1513.11 1750.12 1500.81 1758.47 1487.51 1758.47H1388.18C1385.74 1758.47 1383.85 1756.67 1384.13 1754.63L1423.43 1466.42C1423.67 1464.68 1425.41 1463.38 1427.48 1463.38L1519.77 1464.38C1529.94 1464.38 1551.07 1468.34 1548.72 1492.77Z" fill="#0E1325"/>
<path d="M2717.66 2300.5L2803.52 1507.6C2803.79 1505.09 2801.87 1502.89 2799.4 1502.89H2651.3C2648.85 1502.89 2646.93 1500.72 2647.18 1498.21L2667.47 1284.19C2667.69 1282.02 2669.47 1280.38 2671.59 1280.38H3182.08C3184.55 1280.38 3186.47 1282.58 3186.2 1285.1L3163.66 1499.12C3163.42 1501.27 3161.65 1502.89 3159.54 1502.89H3021.39C3019.28 1502.89 3017.5 1504.52 3017.27 1506.67L2931.21 2301.42C2930.98 2303.57 2929.21 2305.2 2927.09 2305.2H2721.77C2719.3 2305.2 2717.38 2303.01 2717.65 2300.49L2717.66 2300.5Z" fill="#0E1325"/>
<path d="M2335.7 1521.82L2297 1888.09C2296.17 1897.73 2302.82 1906.14 2311.52 1906.47L2546.49 1906.98C2555.11 1907.31 2561.74 1915.59 2561.03 1925.15L2546.91 2132.38C2546.26 2141.09 2539.72 2147.79 2531.86 2147.79H2172.09C2130.41 2147.79 2098.26 2107.01 2103.7 2061.07L2188.83 1342.48C2193.35 1304.32 2222.61 1275.79 2257.22 1275.79H2603.02C2611.84 1275.79 2618.78 1284.16 2618.08 1293.94L2603.69 1493.44C2603.06 1502.22 2596.43 1508.97 2588.51 1508.89L2350.87 1506.61C2343.04 1506.54 2336.45 1513.14 2335.71 1521.81L2335.7 1521.82Z" fill="#0E1325"/>
<path d="M0.0511288 1211.77L156.071 4.33008C156.391 1.86008 158.491 0.0100098 160.981 0.0100098H381.761C384.491 0.0100098 386.711 2.23008 386.711 4.96008V362.74C386.711 368.32 394.511 369.64 396.341 364.36L521.731 3.33008C522.421 1.34008 524.301 0 526.411 0H728.551C731.541 0 733.851 2.6301 733.461 5.6001L439.781 2141.27C439.461 2143.73 437.361 2145.58 434.871 2145.58H254.681C251.691 2145.58 249.381 2142.95 249.771 2139.99L444.141 747.1C444.931 741.04 436.181 739.21 434.471 745.08L394.791 881.57C394.181 883.68 392.241 885.14 390.031 885.14H276.241C273.651 885.14 271.501 883.15 271.301 880.57L269.311 741.92C268.841 735.97 260.191 735.77 259.461 741.7L194.721 1213.01C194.411 1215.49 192.311 1217.35 189.811 1217.35H4.95112C1.96112 1217.35 -0.33885 1214.73 0.0411495 1211.76L0.0511288 1211.77Z" fill="#101526"/>
</svg>
