<?xml version="1.0" encoding="UTF-8"?>
<svg id="Layer_1" data-name="Layer 1" xmlns="http://www.w3.org/2000/svg" viewBox="0 0 3186.23 2305.21">
  <defs>
    <style>
      .cls-1 {
        fill: #fff;
        stroke-width: 0px;
      }
    </style>
  </defs>
  <g id="Layer_2" data-name="Layer 2">
    <path class="cls-1" d="m850.83,195.38c-1.84,0-3.44,1.28-3.85,3.07l-110.44,488.41-117.49,528.55c-.55,2.46,1.33,4.8,3.85,4.8h155.08c1.85,0,3.45-1.29,3.85-3.1l61.31-279.26c.39-1.78,1.95-3.06,3.76-3.1l40.57-.89c2.21-.05,4.03,1.73,4.03,3.94v125.47c0,2.18,1.77,3.94,3.94,3.94h154.93c2.16,0,3.92-1.74,3.94-3.91l7.76-863.94c.02-2.19-1.75-3.98-3.94-3.98h-207.31.01Zm5.76,665.26l25.27-86.64c1.23-4.22,7.4-3.57,7.72.82l6.31,86.64c.17,2.28-1.64,4.23-3.93,4.23h-31.58c-2.63,0-4.52-2.52-3.79-5.05Z"/>
    <path class="cls-1" d="m1852.39,1280.38c-1.84,0-3.44,1.28-3.85,3.07l-110.44,488.41-117.49,528.55c-.55,2.46,1.33,4.8,3.85,4.8h155.08c1.85,0,3.45-1.29,3.85-3.1l61.31-279.26c.39-1.78,1.95-3.06,3.76-3.1l40.57-.89c2.21-.05,4.03,1.73,4.03,3.94v125.47c0,2.18,1.77,3.94,3.94,3.94h154.93c2.16,0,3.92-1.74,3.94-3.91l7.76-863.94c.02-2.19-1.75-3.98-3.94-3.98h-207.31,0Zm5.76,665.26l25.27-86.64c1.23-4.22,7.4-3.57,7.72.82l6.31,86.64c.17,2.28-1.64,4.23-3.93,4.23h-31.58c-2.63,0-4.52-2.52-3.79-5.05Z"/>
    <path class="cls-1" d="m1110.72,962.72l-13.85,92.02c-.95,6.3,3.82,11.98,10.05,11.98h330.93c53.22,0,71.22-28.8,79.04-102.4,7.83-73.6,47.43-329.54,59.48-425.6,3.91-31.2-10.57-46.4-26.61-47.2-20.26-1.01-139.16.06-160.44.51-13.69.29-19.96,1.89-19.17-12.51,1.35-24.75,9.29-71.27,10.63-91.6.47-7.2,4.63-10.84,12.46-10.91,37.26-.35,151.77-1.23,174.93.11,27.76,1.6,29.32-32,32.45-67.2,2.07-23.32,7.59-66.32,11.07-92.68,1.77-13.42-4.19-22.48-16.55-22.41-61.23.33-248.96-.08-315.38-.11-72.78-.04-77.48,42.4-84.52,84.8-5.79,34.85-21.98,171.19-31.3,256-7.43,67.6,18.78,92,81.39,95.18,30.07,0,60.08-1.56,79.3-.69,15.13.69,19.83,5.77,16.61,25.67-7.75,47.87-25.24,150.71-30.17,187.03-5.22,38.4-11.35,37.6-59.48,36.8-33.11-1.13-83.35-2.26-110.09-2.82-3.55-.08-6.68-.14-9.31-.19-5.12-.11-9.51,3.69-10.26,8.87l-11.21,77.35h0Z"/>
    <path class="cls-1" d="m1573.24,962.61l-13.85,92.02c-.95,6.3,3.82,11.98,10.05,11.98h330.93c53.22,0,71.22-28.8,79.04-102.4,7.83-73.6,47.43-329.54,59.48-425.6,3.91-31.2-10.57-46.4-26.61-47.2-20.26-1.01-139.16.06-160.44.51-13.69.29-19.96,1.89-19.17-12.51,1.35-24.75,9.29-71.27,10.63-91.6.47-7.2,4.63-10.84,12.46-10.91,37.26-.35,151.77-1.23,174.93.11,27.76,1.6,29.32-32,32.45-67.2,2.07-23.32,7.59-66.32,11.07-92.68,1.77-13.42-4.19-22.48-16.55-22.41-61.23.33-248.96-.08-315.38-.11-72.78-.04-77.48,42.4-84.52,84.8-5.79,34.85-21.98,171.19-31.3,256-7.43,67.6,18.78,92,81.39,95.18,30.07,0,60.08-1.56,79.3-.69,15.13.69,19.83,5.77,16.61,25.67-7.75,47.87-25.24,150.71-30.17,187.03-5.22,38.4-11.35,37.6-59.48,36.8-33.11-1.13-83.35-2.26-110.09-2.82-3.55-.08-6.68-.14-9.31-.19-5.12-.11-9.51,3.69-10.26,8.87l-11.21,77.35h0Z"/>
    <path class="cls-1" d="m2093.55,631.13l55.16-426.53c.68-5.27,5.17-9.22,10.49-9.22h158.7c6.37,0,11.29,5.58,10.49,11.9l-127.23,1003.69c-.67,5.28-5.16,9.24-10.49,9.24h-174.04c-6.47,0-11.42-5.76-10.46-12.15l87.38-576.93h0Z"/>
    <path class="cls-1" d="m2382.94,1062.61V198.61c0-2.21,1.78-4,3.98-4h173.18c2.36,0,4.2,2.04,3.96,4.4l-29.13,293.71c-.49,4.89,6.55,6.18,7.81,1.43l78.87-296.57c.47-1.75,2.04-2.97,3.85-2.97h151.46c2.6,0,4.5,2.46,3.86,4.99l-220.22,864c-.45,1.77-2.04,3.01-3.86,3.01h-169.79c-2.2,0-3.98-1.79-3.98-4h0Z"/>
    <path class="cls-1" d="m489.24,2143.25l129.26-859.94c.26-1.67,1.95-2.93,3.95-2.93h214.22c2.14,0,3.91,1.43,3.99,3.24l14.95,337.58c.17,3.74,6.35,4.49,7.77.95l135.21-339.47c.55-1.37,2.07-2.29,3.78-2.29h191.98c2.4,0,4.26,1.77,3.96,3.78l-152.27,1018.1c-.25,1.68-1.95,2.94-3.96,2.94h-197.05c-2.4,0-4.25-1.77-3.96-3.78l71.31-485.31c.62-4.21-6.67-5.32-7.84-1.19l-34.62,122.54c-.43,1.52-2.03,2.58-3.88,2.58h-115.97c-2.26,0-4.07-1.59-3.99-3.49l13.89-123.95c.18-3.98-7.76-4.5-8.41-.55l-56.11,331.2"/>
    <path class="cls-1" d="m1641.29,1280.38h-383.31c-2.01,0-3.7,1.27-3.95,2.94l-149.27,1018.12c-.3,2,1.55,3.76,3.94,3.76h193.86c2.02,0,3.72-1.28,3.95-2.98l47.74-363.85c.22-1.69,1.9-2.96,3.91-2.98,23.08-.19,153.38-1.17,204.65.03,56.35,1.32,97.05-36.97,101.74-88.48,4.7-51.5,59.48-439.77,62.61-482.04,3.13-42.26-4.7-84.53-85.87-84.53h0Zm-92.57,212.39c-2.34,24.43-29.91,231.36-33.19,246.29-2.42,11.06-14.72,19.41-28.02,19.41h-99.33c-2.44,0-4.33-1.8-4.05-3.84l39.3-288.21c.24-1.74,1.98-3.04,4.05-3.04l92.29,1c10.17,0,31.3,3.96,28.95,28.39h0Z"/>
    <path class="cls-1" d="m2717.66,2300.5l85.86-792.9c.27-2.51-1.65-4.71-4.12-4.71h-148.1c-2.45,0-4.37-2.17-4.12-4.68l20.29-214.02c.22-2.17,2-3.81,4.12-3.81h510.49c2.47,0,4.39,2.2,4.12,4.72l-22.54,214.02c-.24,2.15-2.01,3.77-4.12,3.77h-138.15c-2.11,0-3.89,1.63-4.12,3.78l-86.06,794.75c-.23,2.15-2,3.78-4.12,3.78h-205.32c-2.47,0-4.39-2.19-4.12-4.71h.01Z"/>
    <path class="cls-1" d="m2335.7,1521.82l-38.7,366.27c-.83,9.64,5.82,18.05,14.52,18.38l234.97.51c8.62.33,15.25,8.61,14.54,18.17l-14.12,207.23c-.65,8.71-7.19,15.41-15.05,15.41h-359.77c-41.68,0-73.83-40.78-68.39-86.72l85.13-718.59c4.52-38.16,33.78-66.69,68.39-66.69h345.8c8.82,0,15.76,8.37,15.06,18.15l-14.39,199.5c-.63,8.78-7.26,15.53-15.18,15.45l-237.64-2.28c-7.83-.07-14.42,6.53-15.16,15.2h-.01Z"/>
    <path class="cls-1" d="m.05,1211.77L156.07,4.33c.32-2.47,2.42-4.32,4.91-4.32h220.78c2.73,0,4.95,2.22,4.95,4.95v357.78c0,5.58,7.8,6.9,9.63,1.62L521.73,3.33c.69-1.99,2.57-3.33,4.68-3.33h202.14c2.99,0,5.3,2.63,4.91,5.6l-293.68,2135.67c-.32,2.46-2.42,4.31-4.91,4.31h-180.19c-2.99,0-5.3-2.63-4.91-5.59l194.37-1392.89c.79-6.06-7.96-7.89-9.67-2.02l-39.68,136.49c-.61,2.11-2.55,3.57-4.76,3.57h-113.79c-2.59,0-4.74-1.99-4.94-4.57l-1.99-138.65c-.47-5.95-9.12-6.15-9.85-.22l-64.74,471.31c-.31,2.48-2.41,4.34-4.91,4.34H4.95c-2.99,0-5.29-2.62-4.91-5.59h0Z"/>
  </g>
  <g id="Layer_3" data-name="Layer 3">
    <path class="cls-1" d="m3180.32,206.82l-21.36,141.95c-.78,5.19-5.24,9.03-10.49,9.03h-150.18c-5.09,0-9.46,3.61-10.42,8.6l-27.85,144.55c-1.24,6.43,3.58,12.43,10.12,12.61l143.73,4.04c6.48.18,11.29,6.09,10.15,12.47l-28.36,158.68c-.92,5.14-5.44,8.85-10.66,8.74l-152.29-3.06c-5.16-.1-9.64,3.52-10.63,8.58l-27.78,142.87c-1.25,6.41,3.54,12.42,10.07,12.63l149.84,4.84c6.35.21,11.1,5.91,10.15,12.19l-25.96,172.02c-.78,5.19-5.24,9.03-10.49,9.03h-320.06c-2.91-.19-20.39-1.61-32.61-16.74-13.92-17.23-9.19-37.61-8.61-39.91,80.28-419.07,141.86-726.21,153.02-763.67,2.06-6.92,7.52-25.17,23.85-37.73,18.53-14.25,38.48-13.62,43.5-13.31,94.27-.21,188.53-.41,282.8-.62,6.5-.01,11.48,5.76,10.51,12.19v.02Z"/>
  </g>
</svg>