<svg width="102" height="99" viewBox="0 0 102 99" fill="none" xmlns="http://www.w3.org/2000/svg">
<path d="M8.80193 84.7867C4.81548 84.7867 1.58383 81.6666 1.58383 77.8179C1.58383 73.9691 4.81548 70.8491 8.80193 70.8491C12.7884 70.8491 16.02 73.9691 16.02 77.8179C16.02 81.6666 12.7884 84.7867 8.80193 84.7867Z" fill="url(#paint0_linear_346_1583)"/>
<path d="M17.6857 95.2399C15.5392 95.2399 13.7991 93.4198 13.7991 91.1747C13.7991 88.9296 15.5392 87.1096 17.6857 87.1096C19.8323 87.1096 21.5724 88.9296 21.5724 91.1747C21.5724 93.4198 19.8323 95.2399 17.6857 95.2399Z" fill="url(#paint1_linear_346_1583)"/>
<path d="M28.2351 98.7242C27.0085 98.7242 26.0142 97.6842 26.0142 96.4013C26.0142 95.1184 27.0085 94.0784 28.2351 94.0784C29.4617 94.0784 30.4561 95.1184 30.4561 96.4013C30.4561 97.6842 29.4617 98.7242 28.2351 98.7242Z" fill="url(#paint2_linear_346_1583)"/>
<path d="M80.2886 61.7814C79.56 61.7814 78.8314 61.7581 78.1029 61.6881C75.6743 68.6408 68.8257 73.4937 61.0057 73.4937C56.6343 73.4937 52.5057 72.0005 49.2514 69.2941C45.9243 73.9137 40.4114 76.7601 34.4371 76.7601C28.3171 76.7601 22.6829 73.797 19.3557 68.9441C18.8943 68.9675 18.4571 68.9908 17.9957 68.9908C8.06286 68.9908 0 61.2214 0 51.6789C0 46.546 2.35571 41.7164 6.38715 38.4501C5.92571 36.7002 5.68286 34.927 5.68286 33.1538C5.68286 21.6748 15.4214 12.3189 27.37 12.3189C27.9286 12.3189 28.5114 12.3423 29.1186 12.3889C34.4129 4.71293 43.4471 0 53.04 0C65.9357 0 77.2286 8.32929 80.6771 20.0883C92.4557 20.2983 102 29.5608 102 40.9465C102 52.4255 92.2614 61.7814 80.2886 61.7814Z" fill="url(#paint3_linear_346_1583)"/>
<defs>
<linearGradient id="paint0_linear_346_1583" x1="8.80193" y1="70.8491" x2="8.80193" y2="84.7867" gradientUnits="userSpaceOnUse">
<stop offset="0.479167" stop-color="#5B18B1"/>
<stop offset="1" stop-color="#142777"/>
</linearGradient>
<linearGradient id="paint1_linear_346_1583" x1="17.6857" y1="87.1096" x2="17.6857" y2="95.2399" gradientUnits="userSpaceOnUse">
<stop offset="0.479167" stop-color="#5B18B1"/>
<stop offset="1" stop-color="#142777"/>
</linearGradient>
<linearGradient id="paint2_linear_346_1583" x1="28.2351" y1="94.0784" x2="28.2351" y2="98.7242" gradientUnits="userSpaceOnUse">
<stop offset="0.479167" stop-color="#5B18B1"/>
<stop offset="1" stop-color="#142777"/>
</linearGradient>
<linearGradient id="paint3_linear_346_1583" x1="51" y1="0" x2="51" y2="76.7601" gradientUnits="userSpaceOnUse">
<stop offset="0.479167" stop-color="#5B18B1"/>
<stop offset="1" stop-color="#142777"/>
</linearGradient>
</defs>
</svg>
